<svg xmlns="http://www.w3.org/2000/svg" version="1.1" data-width="490" data-height="77" class="icms-hetu-svg" width="490" height="77"><defs /><g transform="translate(0.5,0.5)"><path d="M 247 20 L 342 20 L 342 18.7 L 425.34 18.74" fill="none" stroke="#595959" stroke-miterlimit="10" stroke-dasharray="3 3" pointer-events="none" /><path d="M 432.34 18.74 L 425.34 22.24 L 425.34 15.24 Z" fill="#595959" stroke="#595959" stroke-miterlimit="10" pointer-events="none" /><g><switch><foreignObject style="overflow: visible; text-align: left;" pointer-events="none" width="100%" height="100%" requiredFeatures="http://www.w3.org/TR/SVG11/feature#Extensibility"><div xmlns="http://www.w3.org/1999/xhtml" style="display: flex; align-items: unsafe center; justify-content: unsafe center; width: 1px; height: 1px; padding-top: 18px; margin-left: 339px;"><div style="box-sizing: border-box; font-size: 0; text-align: center; "><div style="display: inline-block; font-size: 12px; font-family: PingFangSC-Regular; color: #595959; line-height: 1.2; pointer-events: none; background-color: #ffffff; white-space: nowrap; ">自动触发函数</div></div></div></foreignObject><text x="339" y="21" fill="#595959" font-family="PingFangSC-Regular" font-size="12px" text-anchor="middle">[Not supported by viewer]</text></switch></g><rect x="207" y="7" width="36" height="36" fill-opacity="0" fill="#ffffff" stroke="none" pointer-events="none" /><rect x="207" y="7" width="0" height="0" fill="none" stroke="#000000" stroke-width="2" pointer-events="none" /><path d="M 228.63 13.62 C 223.44 13.62 219.1 17.2 217.92 22.01 C 217.81 22 217.71 22 217.6 22 C 213.83 22 210.78 25.06 210.78 28.83 C 210.78 30.64 211.5 32.37 212.78 33.65 C 214.06 34.93 215.79 35.64 217.6 35.64 C 219.41 35.64 221.15 34.92 222.43 33.64 C 223.5 32.56 224.1 31.13 224.27 29.54 L 221.8 29.35 C 221.24 29.28 221.06 28.85 221.4 28.4 L 225.59 23.22 C 225.93 22.77 226.39 22.83 226.61 23.35 L 228.98 29.15 C 229.2 29.67 228.92 30.04 228.36 29.97 L 226.52 29.8 C 226.32 31.72 225.45 33.42 224.24 34.76 C 225.63 35.36 227.12 35.67 228.63 35.67 C 234.72 35.67 239.65 30.73 239.65 24.65 C 239.65 18.56 234.72 13.63 228.63 13.63 Z" fill="#1366ec" stroke="none" pointer-events="none" /><g><switch><foreignObject style="overflow: visible; text-align: left;" pointer-events="none" width="100%" height="100%" requiredFeatures="http://www.w3.org/TR/SVG11/feature#Extensibility"><div xmlns="http://www.w3.org/1999/xhtml" style="display: flex; align-items: unsafe flex-start; justify-content: unsafe center; width: 1px; height: 1px; padding-top: 54px; margin-left: 225px;"><div style="box-sizing: border-box; font-size: 0; text-align: center; "><div style="display: inline-block; font-size: 14px; font-family: PingFangSC-Regular; color: #252525; line-height: 1.2; pointer-events: none; white-space: nowrap; ">对象存储</div></div></div></foreignObject><text x="225" y="68" fill="#252525" font-family="PingFangSC-Regular" font-size="14px" text-anchor="middle">[Not supported by viewer]</text></switch></g><path d="M 427 40 L 358 40 L 256.12 40" fill="none" stroke="#595959" stroke-miterlimit="10" stroke-dasharray="3 3" pointer-events="none" /><path d="M 249.12 40 L 256.12 36.5 L 256.12 43.5 Z" fill="#595959" stroke="#595959" stroke-miterlimit="10" pointer-events="none" /><g><switch><foreignObject style="overflow: visible; text-align: left;" pointer-events="none" width="100%" height="100%" requiredFeatures="http://www.w3.org/TR/SVG11/feature#Extensibility"><div xmlns="http://www.w3.org/1999/xhtml" style="display: flex; align-items: unsafe center; justify-content: unsafe center; width: 1px; height: 1px; padding-top: 38px; margin-left: 338px;"><div style="box-sizing: border-box; font-size: 0; text-align: center; "><div style="display: inline-block; font-size: 12px; font-family: PingFangSC-Regular; color: #595959; line-height: 1.2; pointer-events: none; background-color: #ffffff; white-space: nowrap; ">解压文件并上传</div></div></div></foreignObject><text x="338" y="41" fill="#595959" font-family="PingFangSC-Regular" font-size="12px" text-anchor="middle">[Not supported by viewer]</text></switch></g><rect x="437" y="2" width="46" height="46" fill-opacity="0" fill="#ffffff" stroke="none" pointer-events="none" /><rect x="437" y="2" width="0" height="0" fill="none" stroke="#000000" stroke-width="2" pointer-events="none" /><path d="M 449.52 16.18 L 451.59 18.27 L 443.38 26.48 L 441.29 24.41 Z M 441.29 24.43 L 443.38 22.35 L 451.59 30.58 L 449.52 32.65 Z M 468.2 32.65 L 466.13 30.58 L 474.36 22.35 L 476.43 24.43 Z M 476.43 24.41 L 474.36 26.48 L 466.13 18.27 L 468.2 16.18 Z M 464.31 9.99 L 465.34 11.02 L 450.89 25.46 L 449.85 24.43 Z M 457.02 29.56 L 455.99 30.6 L 449.82 24.44 L 450.85 23.4 Z M 459.11 25.45 L 460.14 26.5 L 456.03 30.6 L 454.99 29.56 Z M 465.83 12.07 C 464.41 12.07 463.26 10.93 463.26 9.53 C 463.26 8.12 464.41 6.98 465.83 6.98 C 467.23 6.98 468.38 8.12 468.38 9.53 C 468.38 10.93 467.23 12.07 465.83 12.07 Z M 465.83 8.44 C 465.21 8.44 464.72 8.93 464.72 9.53 C 464.72 10.13 465.21 10.61 465.83 10.61 C 466.43 10.61 466.93 10.13 466.93 9.53 C 466.93 8.93 466.43 8.44 465.83 8.44 Z M 453.41 38.89 L 452.37 37.84 L 466.81 23.4 L 467.85 24.44 Z M 460.69 19.3 L 461.73 18.27 L 467.88 24.43 L 466.85 25.46 Z M 458.61 23.42 L 457.56 22.38 L 461.67 18.27 L 462.71 19.3 Z M 451.89 36.79 C 453.3 36.79 454.45 37.93 454.45 39.34 C 454.45 40.74 453.3 41.88 451.89 41.88 C 450.47 41.88 449.32 40.74 449.32 39.34 C 449.32 37.93 450.47 36.79 451.89 36.79 Z M 451.89 40.42 C 452.5 40.42 452.99 39.94 452.99 39.34 C 452.99 38.74 452.5 38.25 451.89 38.25 C 451.29 38.25 450.79 38.74 450.79 39.34 C 450.79 39.94 451.29 40.42 451.89 40.42 Z" fill="#1366ec" stroke="none" pointer-events="none" /><g><switch><foreignObject style="overflow: visible; text-align: left;" pointer-events="none" width="100%" height="100%" requiredFeatures="http://www.w3.org/TR/SVG11/feature#Extensibility"><div xmlns="http://www.w3.org/1999/xhtml" style="display: flex; align-items: unsafe flex-start; justify-content: unsafe center; width: 1px; height: 1px; padding-top: 59px; margin-left: 460px;"><div style="box-sizing: border-box; font-size: 0; text-align: center; "><div style="display: inline-block; font-size: 14px; font-family: PingFangSC-Regular; color: #252525; line-height: 1.2; pointer-events: none; white-space: nowrap; ">函数计算</div></div></div></foreignObject><text x="460" y="73" fill="#252525" font-family="PingFangSC-Regular" font-size="14px" text-anchor="middle">[Not supported by viewer]</text></switch></g><path d="M 43 25 L 188.88 25" fill="none" stroke="#595959" stroke-miterlimit="10" pointer-events="none" /><path d="M 195.88 25 L 188.88 28.5 L 188.88 21.5 Z" fill="#595959" stroke="#595959" stroke-miterlimit="10" pointer-events="none" /><g><switch><foreignObject style="overflow: visible; text-align: left;" pointer-events="none" width="100%" height="100%" requiredFeatures="http://www.w3.org/TR/SVG11/feature#Extensibility"><div xmlns="http://www.w3.org/1999/xhtml" style="display: flex; align-items: unsafe center; justify-content: unsafe center; width: 1px; height: 1px; padding-top: 22px; margin-left: 109px;"><div style="box-sizing: border-box; font-size: 0; text-align: center; "><div style="display: inline-block; font-size: 12px; font-family: PingFangSC-Regular; color: #595959; line-height: 1.2; pointer-events: none; background-color: #ffffff; white-space: nowrap; ">上传ZIP文件</div></div></div></foreignObject><text x="109" y="25" fill="#595959" font-family="PingFangSC-Regular" font-size="12px" text-anchor="middle">[Not supported by viewer]</text></switch></g><rect x="7" y="7" width="36" height="36" fill-opacity="0" fill="#ffffff" stroke="none" pointer-events="none" /><rect x="7" y="7" width="0" height="0" fill="none" stroke="#000000" stroke-width="2" pointer-events="none" /><path d="M 25.99 18.02 L 35.99 18.02 L 35.99 20.02 L 25.99 20.02 Z M 19 25 L 31 25 L 31 27 L 19 27 Z" fill="#252525" stroke="none" pointer-events="none" /><path d="M 25.97 12.35 L 27.97 12.35 L 27.97 20.02 L 25.97 20.02 Z M 19 30 L 31 30 L 31 32 L 19 32 Z" fill="#252525" stroke="none" pointer-events="none" /><path d="M 28 13 L 34 19 L 34 37 L 16 37 L 16 13 Z M 29.41 11.59 L 28.83 11 L 14 11 L 14 39 L 36 39 L 36 18" fill="#252525" stroke="none" pointer-events="none" /><g><switch><foreignObject style="overflow: visible; text-align: left;" pointer-events="none" width="100%" height="100%" requiredFeatures="http://www.w3.org/TR/SVG11/feature#Extensibility"><div xmlns="http://www.w3.org/1999/xhtml" style="display: flex; align-items: unsafe flex-start; justify-content: unsafe center; width: 1px; height: 1px; padding-top: 54px; margin-left: 25px;"><div style="box-sizing: border-box; font-size: 0; text-align: center; "><div style="display: inline-block; font-size: 14px; font-family: PingFangSC-Regular; color: #252525; line-height: 1.2; pointer-events: none; white-space: nowrap; ">ZIP文件</div></div></div></foreignObject><text x="25" y="68" fill="#252525" font-family="PingFangSC-Regular" font-size="14px" text-anchor="middle">[Not supported by viewer]</text></switch></g></g></svg>