<svg xmlns="http://www.w3.org/2000/svg" version="1.1" data-width="565" data-height="313" class="icms-hetu-svg" width="565" height="313"><defs /><g transform="translate(0.5,0.5)"><rect x="353" y="1" width="210" height="235" fill="#ebf0ff" stroke="none" pointer-events="none" /><path d="M 51 106.5 L 153 106.5 L 174.88 106.86" fill="none" stroke="#595959" stroke-miterlimit="10" pointer-events="none" /><path d="M 181.88 106.98 L 174.82 110.36 L 174.94 103.37 Z" fill="#595959" stroke="#595959" stroke-miterlimit="10" pointer-events="none" /><g><switch><foreignObject style="overflow: visible; text-align: left;" pointer-events="none" width="100%" height="100%" requiredFeatures="http://www.w3.org/TR/SVG11/feature#Extensibility"><div xmlns="http://www.w3.org/1999/xhtml" style="display: flex; align-items: unsafe center; justify-content: unsafe center; width: 1px; height: 1px; padding-top: 106px; margin-left: 116px;"><div style="box-sizing: border-box; font-size: 0; text-align: center; "><div style="display: inline-block; font-size: 12px; font-family: PingFangSC-Regular; color: #595959; line-height: 1.2; pointer-events: none; background-color: #ffffff; white-space: nowrap; ">发起推理请求</div></div></div></foreignObject><text x="116" y="110" fill="#595959" font-family="PingFangSC-Regular" font-size="12px" text-anchor="middle">[Not supported by viewer]</text></switch></g><path d="M 183 131 L 117 131 L 59.12 130.56" fill="none" stroke="#595959" stroke-miterlimit="10" pointer-events="none" /><path d="M 52.12 130.51 L 59.14 127.06 L 59.09 134.06 Z" fill="#595959" stroke="#595959" stroke-miterlimit="10" pointer-events="none" /><g><switch><foreignObject style="overflow: visible; text-align: left;" pointer-events="none" width="100%" height="100%" requiredFeatures="http://www.w3.org/TR/SVG11/feature#Extensibility"><div xmlns="http://www.w3.org/1999/xhtml" style="display: flex; align-items: unsafe center; justify-content: unsafe center; width: 1px; height: 1px; padding-top: 131px; margin-left: 119px;"><div style="box-sizing: border-box; font-size: 0; text-align: center; "><div style="display: inline-block; font-size: 12px; font-family: PingFangSC-Regular; color: #595959; line-height: 1.2; pointer-events: none; background-color: #ffffff; white-space: nowrap; ">返回推理结果</div></div></div></foreignObject><text x="119" y="134" fill="#595959" font-family="PingFangSC-Regular" font-size="12px" text-anchor="middle">[Not supported by viewer]</text></switch></g><rect x="184" y="81" width="66" height="75" fill="#ffffff" stroke="#d9d9d9" pointer-events="none" /><rect x="199" y="87" width="36" height="36" fill-opacity="0" fill="#ffffff" stroke="none" pointer-events="none" /><rect x="199" y="87" width="0" height="0" fill="none" stroke="#000000" stroke-width="2" pointer-events="none" /><path d="M 208.8 98.1 L 210.42 99.73 L 203.99 106.16 L 202.36 104.54 Z M 202.36 104.55 L 203.99 102.93 L 210.42 109.37 L 208.8 110.99 Z M 223.42 110.99 L 221.8 109.37 L 228.24 102.93 L 229.86 104.55 Z M 229.86 104.54 L 228.24 106.16 L 221.8 99.73 L 223.42 98.1 Z M 220.37 93.25 L 221.18 94.06 L 209.87 105.36 L 209.06 104.55 Z M 214.67 108.57 L 213.86 109.38 L 209.03 104.56 L 209.84 103.75 Z M 216.3 105.35 L 217.11 106.17 L 213.89 109.38 L 213.08 108.57 Z M 221.56 94.88 C 220.45 94.88 219.55 93.99 219.55 92.89 C 219.55 91.79 220.45 90.9 221.56 90.9 C 222.66 90.9 223.56 91.79 223.56 92.89 C 223.56 93.99 222.66 94.88 221.56 94.88 Z M 221.56 92.04 C 221.08 92.04 220.69 92.42 220.69 92.89 C 220.69 93.36 221.08 93.74 221.56 93.74 C 222.03 93.74 222.42 93.36 222.42 92.89 C 222.42 92.42 222.03 92.04 221.56 92.04 Z M 211.84 115.87 L 211.03 115.05 L 222.33 103.75 L 223.14 104.56 Z M 217.54 100.54 L 218.35 99.73 L 223.17 104.55 L 222.36 105.36 Z M 215.91 103.76 L 215.09 102.95 L 218.31 99.73 L 219.12 100.54 Z M 210.65 114.23 C 211.76 114.23 212.66 115.12 212.66 116.22 C 212.66 117.32 211.76 118.21 210.65 118.21 C 209.54 118.21 208.64 117.32 208.64 116.22 C 208.64 115.12 209.54 114.23 210.65 114.23 Z M 210.65 117.07 C 211.13 117.07 211.51 116.69 211.51 116.22 C 211.51 115.75 211.13 115.37 210.65 115.37 C 210.18 115.37 209.79 115.75 209.79 116.22 C 209.79 116.69 210.18 117.07 210.65 117.07 Z" fill="#1366ec" stroke="none" pointer-events="none" /><g><switch><foreignObject style="overflow: visible; text-align: left;" pointer-events="none" width="100%" height="100%" requiredFeatures="http://www.w3.org/TR/SVG11/feature#Extensibility"><div xmlns="http://www.w3.org/1999/xhtml" style="display: flex; align-items: unsafe flex-start; justify-content: unsafe center; width: 1px; height: 1px; padding-top: 134px; margin-left: 217px;"><div style="box-sizing: border-box; font-size: 0; text-align: center; "><div style="display: inline-block; font-size: 14px; font-family: PingFangSC-Regular; color: #252525; line-height: 1.2; pointer-events: none; white-space: nowrap; ">函数计算</div></div></div></foreignObject><text x="217" y="148" fill="#252525" font-family="PingFangSC-Regular" font-size="14px" text-anchor="middle">[Not supported by viewer]</text></switch></g><path d="M 353 118.5 L 258.12 118.5" fill="none" stroke="#595959" stroke-miterlimit="10" pointer-events="none" /><path d="M 251.12 118.5 L 258.12 115 L 258.12 122 Z" fill="#595959" stroke="#595959" stroke-miterlimit="10" pointer-events="none" /><g><switch><foreignObject style="overflow: visible; text-align: left;" pointer-events="none" width="100%" height="100%" requiredFeatures="http://www.w3.org/TR/SVG11/feature#Extensibility"><div xmlns="http://www.w3.org/1999/xhtml" style="display: flex; align-items: unsafe center; justify-content: unsafe center; width: 1px; height: 1px; padding-top: 119px; margin-left: 305px;"><div style="box-sizing: border-box; font-size: 0; text-align: center; "><div style="display: inline-block; font-size: 12px; font-family: PingFangSC-Regular; color: #595959; line-height: 1.2; pointer-events: none; background-color: #ffffff; white-space: nowrap; ">加载模型</div></div></div></foreignObject><text x="305" y="123" fill="#595959" font-family="PingFangSC-Regular" font-size="12px" text-anchor="middle">[Not supported by viewer]</text></switch></g><rect x="184" y="236" width="66" height="75" fill="#ffffff" stroke="#d9d9d9" pointer-events="none" /><rect x="199" y="236" width="36" height="36" fill-opacity="0" fill="#ffffff" stroke="none" pointer-events="none" /><rect x="199" y="236" width="0" height="0" fill="none" stroke="#000000" stroke-width="2" pointer-events="none" /><path d="M 229.79 262.21 L 229.79 262.19 L 229.71 262.1 C 229.63 262.01 229.54 261.93 229.45 261.85 C 228.07 260.44 227.77 260.06 227.77 260.06 C 228.96 258.07 229.59 255.79 229.59 253.47 C 229.59 246.3 223.75 240.49 216.54 240.49 C 209.33 240.49 203.49 246.3 203.49 253.47 C 203.49 260.64 209.33 266.45 216.54 266.45 C 218.96 266.45 221.22 265.79 223.16 264.65 L 224.96 266.4 C 225.03 266.48 225.12 266.56 225.2 266.64 L 225.31 266.74 L 225.34 266.75 C 226.62 267.75 228.45 267.62 229.59 266.46 C 230.72 265.3 230.81 263.47 229.79 262.21 Z M 216.54 263.21 C 211.13 263.21 206.75 258.85 206.75 253.47 C 206.75 248.09 211.13 243.73 216.54 243.73 C 221.94 243.73 226.33 248.09 226.33 253.47 C 226.33 258.85 221.94 263.21 216.54 263.21 Z M 220.45 249.4 L 212.85 249.4 C 212.3 249.4 211.79 249.81 211.79 250.25 C 211.78 250.7 212.22 251.05 212.77 251.06 L 220.45 251.03 C 221 251.04 221.44 250.76 221.44 250.31 C 221.45 249.87 221 249.41 220.45 249.4 Z M 220.45 256.19 L 212.58 256.19 C 212.12 256.19 211.74 256.67 211.74 257.04 C 211.74 257.4 212.12 257.82 212.58 257.82 L 220.45 257.82 C 220.91 257.82 221.39 257.46 221.4 257.1 C 221.4 256.73 220.91 256.19 220.45 256.19 Z M 220.45 252.93 L 212.76 252.92 C 212.21 252.92 211.76 253.27 211.76 253.71 C 211.76 254.15 212.3 254.56 212.85 254.56 L 220.43 254.57 C 220.97 254.57 221.42 254.21 221.42 253.77 C 221.42 253.33 221 252.94 220.45 252.93 Z" fill="#1366ec" stroke="none" pointer-events="none" /><g><switch><foreignObject style="overflow: visible; text-align: left;" pointer-events="none" width="100%" height="100%" requiredFeatures="http://www.w3.org/TR/SVG11/feature#Extensibility"><div xmlns="http://www.w3.org/1999/xhtml" style="display: flex; align-items: unsafe flex-start; justify-content: unsafe center; width: 1px; height: 1px; padding-top: 283px; margin-left: 217px;"><div style="box-sizing: border-box; font-size: 0; text-align: center; "><div style="display: inline-block; font-size: 14px; font-family: PingFangSC-Regular; color: #252525; line-height: 1.2; pointer-events: none; white-space: nowrap; ">日志服务</div></div></div></foreignObject><text x="217" y="297" fill="#252525" font-family="PingFangSC-Regular" font-size="14px" text-anchor="middle">[Not supported by viewer]</text></switch></g><rect x="1" y="81" width="48" height="48" fill="#ffffff" stroke="#d9d9d9" pointer-events="none" /><rect x="1" y="81" width="48" height="75" fill="#ffffff" stroke="#d9d9d9" pointer-events="none" /><rect x="7" y="87" width="36" height="36" fill-opacity="0" fill="#ffffff" stroke="none" pointer-events="none" /><rect x="7" y="87" width="0" height="0" fill="none" stroke="#000000" stroke-width="2" pointer-events="none" /><path d="M 25 103 C 23.9 103 23 102.1 23 101 C 23 99.9 23.9 99 25 99 C 26.1 99 27 99.9 27 101 C 27 102.1 26.1 103 25 103 M 25 97 C 22.79 97 21 98.79 21 101 C 21 103.21 22.79 105 25 105 C 27.21 105 29 103.21 29 101 C 29 98.79 27.21 97 25 97" fill="#252525" stroke="none" pointer-events="none" /><path d="M 33 113.93 L 33 111.74 C 32.99 109.12 30.88 107.01 28.26 107 L 21.74 107 C 19.12 107.01 17.01 109.12 17 111.74 L 17 113.92 C 14.55 111.73 13 108.55 13 105 C 13 98.37 18.37 93 25 93 C 31.63 93 37 98.37 37 105 C 37 108.55 35.45 111.73 33 113.93 M 19 115.38 L 19 111.74 C 19 111.01 19.29 110.32 19.8 109.8 C 20.32 109.29 21.01 109 21.74 109 L 28.26 109 C 28.99 109 29.68 109.29 30.2 109.8 C 30.71 110.32 31 111.01 31 111.74 L 31 115.38 C 27.29 117.54 22.71 117.54 19 115.38 M 25 91 C 17.28 91 11 97.28 11 105 C 11 112.72 17.28 119 25 119 C 32.72 119 39 112.72 39 105 C 39 97.28 32.72 91 25 91" fill="#252525" stroke="none" pointer-events="none" /><g><switch><foreignObject style="overflow: visible; text-align: left;" pointer-events="none" width="100%" height="100%" requiredFeatures="http://www.w3.org/TR/SVG11/feature#Extensibility"><div xmlns="http://www.w3.org/1999/xhtml" style="display: flex; align-items: unsafe flex-start; justify-content: unsafe center; width: 1px; height: 1px; padding-top: 134px; margin-left: 25px;"><div style="box-sizing: border-box; font-size: 0; text-align: center; "><div style="display: inline-block; font-size: 14px; font-family: PingFangSC-Regular; color: #252525; line-height: 1.2; pointer-events: none; white-space: nowrap; ">用户</div></div></div></foreignObject><text x="25" y="148" fill="#252525" font-family="PingFangSC-Regular" font-size="14px" text-anchor="middle">[Not supported by viewer]</text></switch></g><path d="M 217 156 L 217 227.88" fill="none" stroke="#595959" stroke-miterlimit="10" pointer-events="none" /><path d="M 217 234.88 L 213.5 227.88 L 220.5 227.88 Z" fill="#595959" stroke="#595959" stroke-miterlimit="10" pointer-events="none" /><g><switch><foreignObject style="overflow: visible; text-align: left;" pointer-events="none" width="100%" height="100%" requiredFeatures="http://www.w3.org/TR/SVG11/feature#Extensibility"><div xmlns="http://www.w3.org/1999/xhtml" style="display: flex; align-items: unsafe center; justify-content: unsafe center; width: 1px; height: 1px; padding-top: 189px; margin-left: 218px;"><div style="box-sizing: border-box; font-size: 0; text-align: center; "><div style="display: inline-block; font-size: 12px; font-family: PingFangSC-Regular; color: #595959; line-height: 1.2; pointer-events: none; background-color: #ffffff; white-space: nowrap; ">记录函数日志</div></div></div></foreignObject><text x="218" y="192" fill="#595959" font-family="PingFangSC-Regular" font-size="12px" text-anchor="middle">[Not supported by viewer]</text></switch></g><g><switch><foreignObject style="overflow: visible; text-align: left;" pointer-events="none" width="100%" height="100%" requiredFeatures="http://www.w3.org/TR/SVG11/feature#Extensibility"><div xmlns="http://www.w3.org/1999/xhtml" style="display: flex; align-items: unsafe center; justify-content: unsafe center; width: 68px; height: 1px; padding-top: 12px; margin-left: 344px;"><div style="box-sizing: border-box; font-size: 0; text-align: center; "><div style="display: inline-block; font-size: 12px; font-family: PingFangSC-Regular; color: #595959; line-height: 1.2; pointer-events: none; white-space: normal; word-wrap: normal; ">云存储</div></div></div></foreignObject><text x="378" y="15" fill="#595959" font-family="PingFangSC-Regular" font-size="12px" text-anchor="middle">[Not supported by viewer]</text></switch></g><rect x="376.5" y="138" width="66" height="75" fill="#ffffff" stroke="#d9d9d9" pointer-events="none" /><rect x="391.5" y="144" width="36" height="36" fill-opacity="0" fill="#ffffff" stroke="none" pointer-events="none" /><rect x="391.5" y="144" width="0" height="0" fill="none" stroke="#000000" stroke-width="2" pointer-events="none" /><path d="M 409.67 150.67 C 412.6 150.67 414.98 152.9 414.98 155.66 C 414.98 156.46 414.78 157.25 414.39 157.95 L 418.68 161.09 C 419.24 160.72 419.89 160.53 420.56 160.53 C 422.37 160.53 423.84 161.91 423.84 163.6 C 423.84 165.3 422.37 166.68 420.56 166.68 C 418.76 166.68 417.29 165.3 417.29 163.6 C 417.29 163.22 417.37 162.85 417.5 162.52 L 413.2 159.38 C 412.46 160 411.58 160.41 410.63 160.57 L 410.63 165.36 C 412.54 165.77 413.97 167.37 413.97 169.29 C 413.97 171.52 412.04 173.33 409.67 173.33 C 407.29 173.33 405.37 171.52 405.37 169.29 C 405.37 167.37 406.79 165.77 408.71 165.36 L 408.71 160.57 C 407.76 160.41 406.87 160 406.13 159.38 L 401.83 162.52 C 401.97 162.85 402.05 163.22 402.05 163.6 C 402.05 165.3 400.58 166.68 398.77 166.68 C 396.97 166.68 395.5 165.3 395.5 163.6 C 395.5 161.91 396.97 160.53 398.77 160.53 C 399.47 160.53 400.12 160.74 400.65 161.09 L 404.95 157.95 C 404.56 157.25 404.36 156.46 404.36 155.66 C 404.36 152.9 406.74 150.67 409.67 150.67 Z" fill="#1366ec" stroke="none" pointer-events="none" /><g><switch><foreignObject style="overflow: visible; text-align: left;" pointer-events="none" width="100%" height="100%" requiredFeatures="http://www.w3.org/TR/SVG11/feature#Extensibility"><div xmlns="http://www.w3.org/1999/xhtml" style="display: flex; align-items: unsafe flex-start; justify-content: unsafe center; width: 1px; height: 1px; padding-top: 191px; margin-left: 410px;"><div style="box-sizing: border-box; font-size: 0; text-align: center; "><div style="display: inline-block; font-size: 14px; font-family: PingFangSC-Regular; color: #252525; line-height: 1.2; pointer-events: none; white-space: nowrap; ">表格存储</div></div></div></foreignObject><text x="410" y="205" fill="#252525" font-family="PingFangSC-Regular" font-size="14px" text-anchor="middle">[Not supported by viewer]</text></switch></g><rect x="376.5" y="39" width="66" height="75" fill="#ffffff" stroke="#d9d9d9" pointer-events="none" /><rect x="391.5" y="45" width="36" height="36" fill-opacity="0" fill="#ffffff" stroke="none" pointer-events="none" /><rect x="391.5" y="45" width="0" height="0" fill="none" stroke="#000000" stroke-width="2" pointer-events="none" /><path d="M 421.35 57.82 L 414.55 57.82 C 413.8 57.13 412.93 56.44 412.24 55.74 C 412.03 55.53 411.79 55.46 411.56 55.48 C 411.53 55.48 411.5 55.48 411.47 55.48 L 397.2 55.48 C 397.15 55.48 397.1 55.48 397.05 55.49 C 396.6 55.5 396.17 55.81 396.17 56.42 L 396.17 69.08 C 396.17 69.18 396.18 69.28 396.2 69.36 C 396.24 69.78 396.53 70.16 397.07 70.16 L 401.75 70.16 C 401.87 71.46 402.96 72.46 404.27 72.46 C 404.6 72.46 404.93 72.4 405.23 72.27 C 406.32 73.17 407.69 73.66 409.1 73.67 C 410.5 73.67 411.88 73.17 412.97 72.27 C 413.28 72.4 413.6 72.46 413.93 72.46 C 415.24 72.46 416.33 71.46 416.45 70.16 L 421.12 70.16 C 421.63 70.27 422.22 69.96 422.22 69.23 L 422.22 58.78 C 422.23 58.15 421.79 57.83 421.35 57.82 Z M 404.27 68.84 C 404.88 68.84 405.36 69.32 405.36 69.93 C 405.36 70.54 404.88 71.02 404.27 71.02 C 403.66 71.02 403.19 70.54 403.19 69.93 C 403.19 69.32 403.66 68.84 404.27 68.84 Z M 413.93 68.84 C 414.54 68.84 415.02 69.32 415.02 69.93 C 415.02 70.54 414.54 71.02 413.93 71.02 C 413.32 71.02 412.85 70.54 412.85 69.93 C 412.85 69.32 413.33 68.84 413.93 68.84 Z M 406.92 63.35 C 407.37 64.13 408.21 64.61 409.11 64.61 C 410.01 64.61 410.84 64.13 411.29 63.35 C 412.82 64.13 413.79 65.69 413.82 67.4 C 412.47 67.46 411.4 68.58 411.4 69.93 C 411.4 70.43 411.56 70.91 411.85 71.34 C 411.05 71.91 410.09 72.23 409.11 72.23 C 408.13 72.23 407.17 71.92 406.37 71.34 C 406.67 70.91 406.82 70.43 406.82 69.93 C 406.82 68.58 405.76 67.47 404.41 67.4 C 404.43 65.69 405.39 64.13 406.92 63.35 Z M 408.02 62.08 C 408.02 61.47 408.49 60.99 409.1 60.99 C 409.71 60.99 410.19 61.47 410.19 62.08 C 410.19 62.69 409.71 63.17 409.1 63.17 C 408.49 63.17 408.02 62.69 408.02 62.08 Z M 415.93 68.38 C 415.74 68.14 415.51 67.93 415.25 67.77 C 415.25 67.69 415.26 67.61 415.26 67.51 C 415.26 65.08 413.83 62.89 411.61 61.91 C 411.53 60.58 410.43 59.55 409.1 59.55 C 407.77 59.55 406.68 60.58 406.59 61.91 C 404.37 62.88 402.94 65.07 402.94 67.51 L 402.94 67.79 C 402.69 67.95 402.47 68.14 402.29 68.37 C 402.24 68.36 402.18 68.36 402.13 68.36 L 397.98 68.36 L 397.98 57.28 L 411.24 57.28 C 411.94 57.93 413.29 59.11 413.66 59.43 C 413.77 59.55 413.91 59.63 414.09 59.63 L 420.43 59.63 L 420.43 68.36 L 416.12 68.36 C 416.05 68.36 415.99 68.37 415.93 68.38 Z M 397.2 54.15 C 396 54.15 396 52.34 397.19 52.33 L 412.91 52.33 C 412.94 52.33 412.97 52.34 413 52.34 C 413.22 52.32 413.47 52.39 413.68 52.6 L 416 54.92 L 421.57 54.92 C 422.44 54.92 422.44 56.73 421.57 56.73 L 415.52 56.73 C 415.3 56.73 415.14 56.62 415.03 56.45 C 414.94 56.41 414.87 56.35 414.8 56.28 L 412.66 54.15 L 397.2 54.15 Z" fill="#1366ec" stroke="none" pointer-events="none" /><g><switch><foreignObject style="overflow: visible; text-align: left;" pointer-events="none" width="100%" height="100%" requiredFeatures="http://www.w3.org/TR/SVG11/feature#Extensibility"><div xmlns="http://www.w3.org/1999/xhtml" style="display: flex; align-items: unsafe flex-start; justify-content: unsafe center; width: 1px; height: 1px; padding-top: 92px; margin-left: 410px;"><div style="box-sizing: border-box; font-size: 0; text-align: center; "><div style="display: inline-block; font-size: 14px; font-family: PingFangSC-Regular; color: #252525; line-height: 1.2; pointer-events: none; white-space: nowrap; ">文件存储</div></div></div></foreignObject><text x="410" y="106" fill="#252525" font-family="PingFangSC-Regular" font-size="14px" text-anchor="middle">[Not supported by viewer]</text></switch></g><rect x="472" y="39" width="66" height="75" fill="#ffffff" stroke="#d9d9d9" pointer-events="none" /><rect x="487" y="45" width="36" height="36" fill-opacity="0" fill="#ffffff" stroke="none" pointer-events="none" /><rect x="487" y="45" width="0" height="0" fill="none" stroke="#000000" stroke-width="2" pointer-events="none" /><path d="M 501.02 75.46 L 496.64 68.34 L 499.02 64.46 L 495.16 64.46 L 490.78 57.33 L 495.16 50.2 L 503.83 50.2 L 505.36 52.68 L 506.88 50.2 L 515.55 50.2 L 519.93 57.33 L 515.55 64.46 L 511.69 64.46 L 514.07 68.34 L 509.69 75.46 L 501.02 75.46 Z M 507.93 61.67 L 505.36 57.47 L 502.78 61.67 L 507.93 61.67 Z" fill="#1366ec" stroke="none" pointer-events="none" /><g><switch><foreignObject style="overflow: visible; text-align: left;" pointer-events="none" width="100%" height="100%" requiredFeatures="http://www.w3.org/TR/SVG11/feature#Extensibility"><div xmlns="http://www.w3.org/1999/xhtml" style="display: flex; align-items: unsafe flex-start; justify-content: unsafe center; width: 1px; height: 1px; padding-top: 92px; margin-left: 505px;"><div style="box-sizing: border-box; font-size: 0; text-align: center; "><div style="display: inline-block; font-size: 14px; font-family: PingFangSC-Regular; color: #252525; line-height: 1.2; pointer-events: none; white-space: nowrap; ">云数据库</div></div></div></foreignObject><text x="505" y="106" fill="#252525" font-family="PingFangSC-Regular" font-size="14px" text-anchor="middle">[Not supported by viewer]</text></switch></g><rect x="472" y="138" width="66" height="75" fill="#ffffff" stroke="#d9d9d9" pointer-events="none" /><rect x="487" y="143.5" width="36" height="36" fill-opacity="0" fill="#ffffff" stroke="none" pointer-events="none" /><rect x="487" y="143.5" width="0" height="0" fill="none" stroke="#000000" stroke-width="2" pointer-events="none" /><path d="M 508.63 150.12 C 503.44 150.12 499.1 153.7 497.92 158.51 C 497.81 158.5 497.71 158.5 497.6 158.5 C 493.83 158.5 490.78 161.56 490.78 165.33 C 490.78 167.14 491.5 168.87 492.78 170.15 C 494.06 171.43 495.79 172.14 497.6 172.14 C 499.41 172.14 501.15 171.42 502.43 170.14 C 503.5 169.06 504.1 167.63 504.27 166.04 L 501.8 165.85 C 501.24 165.78 501.06 165.35 501.4 164.9 L 505.59 159.72 C 505.93 159.27 506.39 159.33 506.61 159.85 L 508.98 165.65 C 509.2 166.17 508.92 166.54 508.36 166.47 L 506.52 166.3 C 506.32 168.22 505.45 169.92 504.24 171.26 C 505.63 171.86 507.12 172.17 508.63 172.17 C 514.72 172.17 519.65 167.23 519.65 161.15 C 519.65 155.06 514.72 150.13 508.63 150.13 Z" fill="#1366ec" stroke="none" pointer-events="none" /><g><switch><foreignObject style="overflow: visible; text-align: left;" pointer-events="none" width="100%" height="100%" requiredFeatures="http://www.w3.org/TR/SVG11/feature#Extensibility"><div xmlns="http://www.w3.org/1999/xhtml" style="display: flex; align-items: unsafe flex-start; justify-content: unsafe center; width: 1px; height: 1px; padding-top: 191px; margin-left: 505px;"><div style="box-sizing: border-box; font-size: 0; text-align: center; "><div style="display: inline-block; font-size: 14px; font-family: PingFangSC-Regular; color: #252525; line-height: 1.2; pointer-events: none; white-space: nowrap; ">对象存储</div></div></div></foreignObject><text x="505" y="205" fill="#252525" font-family="PingFangSC-Regular" font-size="14px" text-anchor="middle">[Not supported by viewer]</text></switch></g></g></svg>