<svg xmlns="http://www.w3.org/2000/svg" version="1.1" data-width="453" data-height="178" class="icms-hetu-svg" width="453" height="178"><defs /><g transform="translate(0.5,0.5)"><path d="M 308.02 63.39 C 277.93 51.38 275 31.6 301.31 18.1 C 327.61 4.61 374.19 2 407.91 12.15 C 441.63 22.29 451 41.71 429.35 56.61 C 407.7 71.51 362.42 76.79 325.71 68.71 C 317.45 78.72 304.13 85.08 289.52 86 C 298.71 80.5 305.26 72.49 308.02 63.39 Z" fill="#ffffff" stroke="#000000" stroke-width="2" stroke-miterlimit="15" pointer-events="none" /><g><switch><foreignObject style="overflow: visible; text-align: left;" pointer-events="none" width="100%" height="100%" requiredFeatures="http://www.w3.org/TR/SVG11/feature#Extensibility"><div xmlns="http://www.w3.org/1999/xhtml" style="display: flex; align-items: unsafe center; justify-content: unsafe center; width: 104px; height: 1px; padding-top: 34px; margin-left: 311px;"><div style="box-sizing: border-box; font-size: 0; text-align: center; "><div style="display: inline-block; font-size: 14px; font-family: PingFangSC-Regular; color: #252525; line-height: 1.2; pointer-events: none; white-space: normal; word-wrap: normal; "><br />保持待机，随时等待下一个请求</div></div></div></foreignObject><text x="363" y="38" fill="#252525" font-family="PingFangSC-Regular" font-size="14px" text-anchor="middle">[Not supported by viewer]</text></switch></g><path d="M 56 102 L 215.88 101.05" fill="none" stroke="#595959" stroke-miterlimit="10" pointer-events="none" /><path d="M 222.88 101.01 L 215.9 104.55 L 215.86 97.55 Z" fill="#595959" stroke="#595959" stroke-miterlimit="10" pointer-events="none" /><g><switch><foreignObject style="overflow: visible; text-align: left;" pointer-events="none" width="100%" height="100%" requiredFeatures="http://www.w3.org/TR/SVG11/feature#Extensibility"><div xmlns="http://www.w3.org/1999/xhtml" style="display: flex; align-items: unsafe center; justify-content: unsafe center; width: 1px; height: 1px; padding-top: 101px; margin-left: 140px;"><div style="box-sizing: border-box; font-size: 0; text-align: center; "><div style="display: inline-block; font-size: 12px; font-family: PingFangSC-Regular; color: #595959; line-height: 1.2; pointer-events: none; background-color: #ffffff; white-space: nowrap; ">发送请求</div></div></div></foreignObject><text x="140" y="105" fill="#595959" font-family="PingFangSC-Regular" font-size="12px" text-anchor="middle">[Not supported by viewer]</text></switch></g><path d="M 224 125 L 64.12 125.95" fill="none" stroke="#595959" stroke-miterlimit="10" pointer-events="none" /><path d="M 57.12 125.99 L 64.1 122.45 L 64.14 129.45 Z" fill="#595959" stroke="#595959" stroke-miterlimit="10" pointer-events="none" /><g><switch><foreignObject style="overflow: visible; text-align: left;" pointer-events="none" width="100%" height="100%" requiredFeatures="http://www.w3.org/TR/SVG11/feature#Extensibility"><div xmlns="http://www.w3.org/1999/xhtml" style="display: flex; align-items: unsafe center; justify-content: unsafe center; width: 1px; height: 1px; padding-top: 126px; margin-left: 140px;"><div style="box-sizing: border-box; font-size: 0; text-align: center; "><div style="display: inline-block; font-size: 12px; font-family: PingFangSC-Regular; color: #595959; line-height: 1.2; pointer-events: none; background-color: #ffffff; white-space: nowrap; ">返回结果</div></div></div></foreignObject><text x="140" y="130" fill="#595959" font-family="PingFangSC-Regular" font-size="12px" text-anchor="middle">[Not supported by viewer]</text></switch></g><rect x="227" y="86" width="61" height="61" fill-opacity="0" fill="#ffffff" stroke="none" pointer-events="none" /><rect x="227" y="86" width="0" height="0" fill="none" stroke="#000000" stroke-width="2" pointer-events="none" /><path d="M 243.94 129.46 L 237.18 125.57 L 237.18 104.05 L 255.81 93.3 L 271.61 102.42 L 274.09 99.95 L 255.81 89.39 L 233.79 102.1 L 233.79 127.51 L 243.94 133.38 L 243.94 129.46 Z M 281.22 123.28 L 247.33 123.28 L 247.33 109.72 L 281.22 109.72 Z M 250.72 119.89 L 277.83 119.89 L 277.83 113.11 L 250.72 113.11 Z M 252.4 114.82 L 255.79 114.82 L 255.79 118.21 L 252.4 118.21 Z M 252.4 131.75 L 255.79 131.75 L 255.79 135.14 L 252.4 135.14 Z M 281.22 140.22 L 247.33 140.22 L 247.33 126.67 L 281.22 126.67 Z M 250.72 136.83 L 277.83 136.83 L 277.83 130.06 L 250.72 130.06 Z" fill="#252525" stroke="none" pointer-events="none" /><g><switch><foreignObject style="overflow: visible; text-align: left;" pointer-events="none" width="100%" height="100%" requiredFeatures="http://www.w3.org/TR/SVG11/feature#Extensibility"><div xmlns="http://www.w3.org/1999/xhtml" style="display: flex; align-items: unsafe flex-start; justify-content: unsafe center; width: 1px; height: 1px; padding-top: 158px; margin-left: 258px;"><div style="box-sizing: border-box; font-size: 0; text-align: center; "><div style="display: inline-block; font-size: 14px; font-family: PingFangSC-Regular; color: #252525; line-height: 1.2; pointer-events: none; white-space: nowrap; "><font color="#ffffff">非阿里云服务器</font></div></div></div></foreignObject><text x="258" y="172" fill="#252525" font-family="PingFangSC-Regular" font-size="14px" text-anchor="middle">[Not supported by viewer]</text></switch></g><g><switch><foreignObject style="overflow: visible; text-align: left;" pointer-events="none" width="100%" height="100%" requiredFeatures="http://www.w3.org/TR/SVG11/feature#Extensibility"><div xmlns="http://www.w3.org/1999/xhtml" style="display: flex; align-items: unsafe center; justify-content: unsafe center; width: 50px; height: 1px; padding-top: 166px; margin-left: 233px;"><div style="box-sizing: border-box; font-size: 0; text-align: center; "><div style="display: inline-block; font-size: 14px; font-family: PingFangSC-Regular; color: #252525; line-height: 1.2; pointer-events: none; white-space: normal; word-wrap: normal; ">服务器</div></div></div></foreignObject><text x="258" y="170" fill="#252525" font-family="PingFangSC-Regular" font-size="14px" text-anchor="middle">[Not supported by viewer]</text></switch></g><rect x="2" y="85.25" width="61.75" height="61.75" fill-opacity="0" fill="#ffffff" stroke="none" pointer-events="none" /><rect x="2" y="85.25" width="0" height="0" fill="none" stroke="#000000" stroke-width="2" pointer-events="none" /><path d="M 44.88 95.54 L 44.88 136.71 L 20.87 136.71 L 20.87 95.54 Z M 48.31 92.11 L 17.44 92.11 L 17.44 140.14 L 48.31 140.14 Z" fill="#252525" stroke="none" pointer-events="none" /><path d="M 17.52 129.85 L 17.52 136.71 L 32.89 136.71 C 31.95 136.71 31.18 135.94 31.18 134.99 C 31.18 134.05 31.95 133.28 32.89 133.28 C 33.84 133.28 34.61 134.05 34.61 134.99 C 34.61 135.94 33.84 136.71 32.89 136.71 L 44.97 136.71 L 44.97 129.85 Z" fill="#252525" stroke="none" pointer-events="none" /><g><switch><foreignObject style="overflow: visible; text-align: left;" pointer-events="none" width="100%" height="100%" requiredFeatures="http://www.w3.org/TR/SVG11/feature#Extensibility"><div xmlns="http://www.w3.org/1999/xhtml" style="display: flex; align-items: unsafe flex-start; justify-content: unsafe center; width: 1px; height: 1px; padding-top: 158px; margin-left: 33px;"><div style="box-sizing: border-box; font-size: 0; text-align: center; "><div style="display: inline-block; font-size: 14px; font-family: PingFangSC-Regular; color: #252525; line-height: 1.2; pointer-events: none; white-space: nowrap; ">客户端</div></div></div></foreignObject><text x="33" y="172" fill="#252525" font-family="PingFangSC-Regular" font-size="14px" text-anchor="middle">[Not supported by viewer]</text></switch></g></g></svg>