<svg xmlns="http://www.w3.org/2000/svg" version="1.1" data-width="699" data-height="273" class="icms-hetu-svg" width="699" height="273"><defs /><g transform="translate(0.5,0.5)"><rect x="106" y="21" width="470" height="250" fill="#ffffff" stroke="#8c8c8c" stroke-dasharray="3 3" pointer-events="none" /><g><switch><foreignObject style="overflow: visible; text-align: left;" pointer-events="none" width="100%" height="100%" requiredFeatures="http://www.w3.org/TR/SVG11/feature#Extensibility"><div xmlns="http://www.w3.org/1999/xhtml" style="display: flex; align-items: unsafe center; justify-content: unsafe center; width: 58px; height: 1px; padding-top: 200px; margin-left: 251px;"><div style="box-sizing: border-box; font-size: 0; text-align: center; "><div style="display: inline-block; font-size: 14px; font-family: PingFangSC-Regular; color: #252525; line-height: 1.2; pointer-events: none; white-space: normal; word-wrap: normal; ">自动伸缩<br />秒级弹性</div></div></div></foreignObject><text x="280" y="204" fill="#252525" font-family="PingFangSC-Regular" font-size="14px" text-anchor="middle">[Not supported by viewer]</text></switch></g><rect x="155" y="134" width="36" height="36" fill-opacity="0" fill="#ffffff" stroke="none" pointer-events="none" /><rect x="155" y="134" width="0" height="0" fill="none" stroke="#000000" stroke-width="2" pointer-events="none" /><path d="M 175.6 152.43 L 173 149.83 L 170.42 152.41 L 169 150.99 L 171.58 148.41 L 173 147 L 177.01 151.02 Z" fill="#252525" stroke="none" pointer-events="none" /><path d="M 172 148.96 L 174 148.96 L 174 157.96 L 172 157.96 Z" fill="#252525" stroke="none" pointer-events="none" /><path d="M 180.75 148.1 C 180.31 144.1 176.95 141 172.87 141 C 168.78 141 165.41 144.13 164.99 148.14 C 161.58 148.82 159 151.86 159 155.5 C 159 159.64 162.33 163 166.43 163 L 179.31 163 C 179.35 163 179.39 162.99 179.43 162.99 C 179.47 162.99 179.51 163 179.55 163 C 183.66 163 186.98 159.64 186.98 155.5 C 187 151.84 184.36 148.7 180.75 148.1 Z M 179.61 161 C 179.56 161 179.52 160.99 179.47 160.99 L 179.41 160.99 C 179.36 160.99 179.32 160.99 179.27 161 L 166.43 161 C 163.42 161 160.98 158.53 160.98 155.5 C 160.97 152.48 163.41 150.02 166.43 150 L 167.02 150 C 166.97 149.67 166.93 149.34 166.93 149 C 166.93 148.66 166.96 148.33 167.02 148 C 167.49 145.17 169.94 143 172.88 143 C 175.82 143 178.26 145.17 178.74 148 C 178.79 148.33 178.83 148.66 178.83 149 C 178.83 149.34 178.8 149.67 178.74 150 L 179.28 150 C 179.33 150 179.37 150.01 179.42 150.01 L 179.48 150.01 C 179.52 150.01 179.57 150.01 179.62 150 C 180 150 180.37 150.05 180.73 150.12 C 183.18 150.65 185.03 152.86 185.03 155.5 C 185.02 158.52 182.6 160.98 179.61 161 Z" fill="#252525" stroke="none" pointer-events="none" /><g><switch><foreignObject style="overflow: visible; text-align: left;" pointer-events="none" width="100%" height="100%" requiredFeatures="http://www.w3.org/TR/SVG11/feature#Extensibility"><div xmlns="http://www.w3.org/1999/xhtml" style="display: flex; align-items: unsafe flex-start; justify-content: unsafe center; width: 1px; height: 1px; padding-top: 181px; margin-left: 173px;"><div style="box-sizing: border-box; font-size: 0; text-align: center; "><div style="display: inline-block; font-size: 14px; font-family: PingFangSC-Regular; color: #252525; line-height: 1.2; pointer-events: none; white-space: nowrap; ">&#160; &#160; HTTP 触发<br />事件触发</div></div></div></foreignObject><text x="173" y="195" fill="#252525" font-family="PingFangSC-Regular" font-size="14px" text-anchor="middle">[Not supported by viewer]</text></switch></g><ellipse cx="280" cy="152" rx="15" ry="15" fill="#ffffff" stroke="#000000" stroke-width="2" pointer-events="none" /><g fill="#252525" font-family="PingFangSC-Regular" pointer-events="none" text-anchor="middle" font-size="14px"><text x="280" y="158">A</text></g><g><switch><foreignObject style="overflow: visible; text-align: left;" pointer-events="none" width="100%" height="100%" requiredFeatures="http://www.w3.org/TR/SVG11/feature#Extensibility"><div xmlns="http://www.w3.org/1999/xhtml" style="display: flex; align-items: unsafe center; justify-content: unsafe flex-start; width: 128px; height: 1px; padding-top: 200px; margin-left: 374px;"><div style="box-sizing: border-box; font-size: 0; text-align: left; "><div style="display: inline-block; font-size: 14px; font-family: PingFangSC-Regular; color: #252525; line-height: 1.2; pointer-events: none; white-space: normal; word-wrap: normal; ">&#160; 可观测<br />（日志、监控）</div></div></div></foreignObject><text x="374" y="204" fill="#252525" font-family="PingFangSC-Regular" font-size="14px">[Not supported by viewer]</text></switch></g><rect x="451" y="1" width="30" height="40" fill="#ffffff" stroke="none" pointer-events="none" /><g><switch><foreignObject style="overflow: visible; text-align: left;" pointer-events="none" width="100%" height="100%" requiredFeatures="http://www.w3.org/TR/SVG11/feature#Extensibility"><div xmlns="http://www.w3.org/1999/xhtml" style="display: flex; align-items: unsafe center; justify-content: unsafe center; width: 178px; height: 1px; padding-top: 71px; margin-left: 392px;"><div style="box-sizing: border-box; font-size: 0; text-align: center; "><div style="display: inline-block; font-size: 14px; font-family: PingFangSC-Regular; color: #252525; line-height: 1.2; pointer-events: none; white-space: normal; word-wrap: normal; ">全托管 Serverless 推理平台</div></div></div></foreignObject><text x="481" y="75" fill="#252525" font-family="PingFangSC-Regular" font-size="14px" text-anchor="middle">[Not supported by viewer]</text></switch></g><g><switch><foreignObject style="overflow: visible; text-align: left;" pointer-events="none" width="100%" height="100%" requiredFeatures="http://www.w3.org/TR/SVG11/feature#Extensibility"><div xmlns="http://www.w3.org/1999/xhtml" style="display: flex; align-items: unsafe center; justify-content: unsafe center; width: 68px; height: 1px; padding-top: 200px; margin-left: 486px;"><div style="box-sizing: border-box; font-size: 0; text-align: center; "><div style="display: inline-block; font-size: 14px; font-family: PingFangSC-Regular; color: #252525; line-height: 1.2; pointer-events: none; white-space: normal; word-wrap: normal; ">按需使用<br />按需付费</div></div></div></foreignObject><text x="520" y="204" fill="#252525" font-family="PingFangSC-Regular" font-size="14px" text-anchor="middle">[Not supported by viewer]</text></switch></g><path d="M 576 146 L 642.88 146" fill="none" stroke="#595959" stroke-miterlimit="10" pointer-events="none" /><path d="M 649.88 146 L 642.88 149.5 L 642.88 142.5 Z" fill="#595959" stroke="#595959" stroke-miterlimit="10" pointer-events="none" /><rect x="382" y="137" width="36" height="36" fill-opacity="0" fill="#ffffff" stroke="none" pointer-events="none" /><rect x="382" y="137" width="0" height="0" fill="none" stroke="#000000" stroke-width="2" pointer-events="none" /><path d="M 388.01 143.01 L 390.01 143.01 L 390.01 167.01 L 388.01 167.01 Z" fill="#252525" stroke="none" pointer-events="none" /><path d="M 388 167.01 L 388 165.01 L 412 165.01 L 412 167.01 Z M 393.63 162.97 L 392 161.8 L 398.4 152.91 L 404.91 157.59 L 410.38 149.97 L 412.01 151.14 L 405.36 160.38 L 398.86 155.7 Z" fill="#252525" stroke="none" pointer-events="none" /><rect x="502" y="134" width="36" height="36" fill-opacity="0" fill="#ffffff" stroke="none" pointer-events="none" /><rect x="502" y="134" width="0" height="0" fill="none" stroke="#000000" stroke-width="2" pointer-events="none" /><path d="M 532 138 L 508 138 L 508 166 L 532 166 L 532 138 Z M 530 140 L 530 164 L 510 164 L 510 140 L 530 140 Z" fill="#252525" stroke="none" pointer-events="none" /><path d="M 514 145 L 526 145 L 526 143 L 514 143 Z M 514 151 L 516 151 L 516 149 L 514 149 Z M 519 151 L 521 151 L 521 149 L 519 149 Z M 524 151 L 526 151 L 526 149 L 524 149 Z M 514 156 L 516 156 L 516 154 L 514 154 Z M 519 156 L 521 156 L 521 154 L 519 154 Z M 524 156 L 526 156 L 526 154 L 524 154 Z M 514 161 L 516 161 L 516 159 L 514 159 Z M 519 161 L 521 161 L 521 159 L 519 159 Z M 524 161 L 526 161 L 526 159 L 524 159 Z" fill="#252525" stroke="none" pointer-events="none" /><g><switch><foreignObject style="overflow: visible; text-align: left;" pointer-events="none" width="100%" height="100%" requiredFeatures="http://www.w3.org/TR/SVG11/feature#Extensibility"><div xmlns="http://www.w3.org/1999/xhtml" style="display: flex; align-items: unsafe center; justify-content: unsafe center; width: 58px; height: 1px; padding-top: 190px; margin-left: 2px;"><div style="box-sizing: border-box; font-size: 0; text-align: center; "><div style="display: inline-block; font-size: 14px; font-family: PingFangSC-Regular; color: #252525; line-height: 1.2; pointer-events: none; white-space: normal; word-wrap: normal; ">推理请求</div></div></div></foreignObject><text x="31" y="194" fill="#252525" font-family="PingFangSC-Regular" font-size="14px" text-anchor="middle">[Not supported by viewer]</text></switch></g><rect x="451" y="3" width="36" height="36" fill-opacity="0" fill="#ffffff" stroke="none" pointer-events="none" /><rect x="451" y="3" width="0" height="0" fill="none" stroke="#000000" stroke-width="2" pointer-events="none" /><path d="M 460.8 14.1 L 462.42 15.73 L 455.99 22.16 L 454.36 20.54 Z M 454.36 20.55 L 455.99 18.93 L 462.42 25.37 L 460.8 26.99 Z M 475.42 26.99 L 473.8 25.37 L 480.24 18.93 L 481.86 20.55 Z M 481.86 20.54 L 480.24 22.16 L 473.8 15.73 L 475.42 14.1 Z M 472.37 9.25 L 473.18 10.06 L 461.87 21.36 L 461.06 20.55 Z M 466.67 24.57 L 465.86 25.38 L 461.03 20.56 L 461.84 19.75 Z M 468.3 21.35 L 469.11 22.17 L 465.89 25.38 L 465.08 24.57 Z M 473.56 10.88 C 472.45 10.88 471.55 9.99 471.55 8.89 C 471.55 7.79 472.45 6.9 473.56 6.9 C 474.66 6.9 475.56 7.79 475.56 8.89 C 475.56 9.99 474.66 10.88 473.56 10.88 Z M 473.56 8.04 C 473.08 8.04 472.69 8.42 472.69 8.89 C 472.69 9.36 473.08 9.74 473.56 9.74 C 474.03 9.74 474.42 9.36 474.42 8.89 C 474.42 8.42 474.03 8.04 473.56 8.04 Z M 463.84 31.87 L 463.03 31.05 L 474.33 19.75 L 475.14 20.56 Z M 469.54 16.54 L 470.35 15.73 L 475.17 20.55 L 474.36 21.36 Z M 467.91 19.76 L 467.09 18.95 L 470.31 15.73 L 471.12 16.54 Z M 462.65 30.23 C 463.76 30.23 464.66 31.12 464.66 32.22 C 464.66 33.32 463.76 34.21 462.65 34.21 C 461.54 34.21 460.64 33.32 460.64 32.22 C 460.64 31.12 461.54 30.23 462.65 30.23 Z M 462.65 33.07 C 463.13 33.07 463.51 32.69 463.51 32.22 C 463.51 31.75 463.13 31.37 462.65 31.37 C 462.18 31.37 461.79 31.75 461.79 32.22 C 461.79 32.69 462.18 33.07 462.65 33.07 Z" fill="#1366ec" stroke="none" pointer-events="none" /><path d="M 51 145.64 L 94.88 145.94" fill="none" stroke="#595959" stroke-miterlimit="10" pointer-events="none" /><path d="M 101.88 145.99 L 94.86 149.44 L 94.91 142.44 Z" fill="#595959" stroke="#595959" stroke-miterlimit="10" pointer-events="none" /><path d="M 11 123 L 35 123 L 51 139 L 51 168 L 11 168 L 11 123 Z" fill="#ffffff" stroke="#000000" stroke-miterlimit="10" pointer-events="none" /><path d="M 35 123 L 35 139 L 51 139" fill="none" stroke="#000000" stroke-miterlimit="10" pointer-events="none" /><path d="M 13 129.2 L 21.4 129.2 L 21.4 125 L 27 132 L 21.4 139 L 21.4 134.8 L 13 134.8 Z" fill="#ffffff" stroke="#000000" stroke-miterlimit="10" pointer-events="none" /><rect x="24" y="153" width="2.8" height="15" fill="#000000" stroke="#000000" pointer-events="none" /><rect x="29.6" y="153" width="2.8" height="15" fill="#000000" stroke="#000000" pointer-events="none" /><rect x="35.2" y="153" width="2.8" height="15" fill="#000000" stroke="#000000" pointer-events="none" /><rect x="651" y="128" width="36" height="36" fill-opacity="0" fill="#ffffff" stroke="none" pointer-events="none" /><rect x="651" y="128" width="0" height="0" fill="none" stroke="#000000" stroke-width="2" pointer-events="none" /><path d="M 665 136 C 666.65 136 668 137.35 668 139 C 668 140.65 666.65 142 665 142 C 663.35 142 662 140.65 662 139 C 662 137.35 663.35 136 665 136 M 665 144 C 667.76 144 670 141.76 670 139 C 670 136.24 667.76 134 665 134 C 662.24 134 660 136.24 660 139 C 660 141.76 662.24 144 665 144 M 675 141 C 676.1 141 677 141.9 677 143 C 677 144.1 676.1 145 675 145 C 673.9 145 673 144.1 673 143 C 673 141.9 673.9 141 675 141 M 675 147 C 677.21 147 679 145.21 679 143 C 679 140.79 677.21 139 675 139 C 672.79 139 671 140.79 671 143 C 671 145.21 672.79 147 675 147 M 677.14 149 L 672.86 149 C 672.77 149 672.68 149.02 672.59 149.02 C 671.8 147.19 670 146 668 146 L 662 146 C 659.24 146 657 148.24 657 151 L 657 158 L 659 158 L 659 151 C 659 149.35 660.35 148 662 148 L 668 148 C 669.66 148 671 149.35 671 151 L 671 158 L 673 158 L 673 151 L 677.14 151 C 678.17 151 679 151.84 679 152.86 L 679 158 L 681 158 L 681 152.86 C 681 151.84 680.59 150.85 679.87 150.13 C 679.15 149.41 678.16 149 677.14 149" fill="#252525" stroke="none" pointer-events="none" /><g><switch><foreignObject style="overflow: visible; text-align: left;" pointer-events="none" width="100%" height="100%" requiredFeatures="http://www.w3.org/TR/SVG11/feature#Extensibility"><div xmlns="http://www.w3.org/1999/xhtml" style="display: flex; align-items: unsafe flex-start; justify-content: unsafe center; width: 1px; height: 1px; padding-top: 175px; margin-left: 669px;"><div style="box-sizing: border-box; font-size: 0; text-align: center; "><div style="display: inline-block; font-size: 14px; font-family: PingFangSC-Regular; color: #252525; line-height: 1.2; pointer-events: none; white-space: nowrap; ">推理结果</div></div></div></foreignObject><text x="669" y="189" fill="#252525" font-family="PingFangSC-Regular" font-size="14px" text-anchor="middle">[Not supported by viewer]</text></switch></g></g></svg>