<svg xmlns="http://www.w3.org/2000/svg" width="734" height="67" version="1.1"><defs /><g transform="translate(0.5,0.5)"><path d="M 38 20 L 303.88 20" fill="none" stroke="#595959" stroke-miterlimit="10" pointer-events="none" /><path d="M 310.88 20 L 303.88 23.5 L 303.88 16.5 Z" fill="#595959" stroke="#595959" stroke-miterlimit="10" pointer-events="none" /><g><switch><foreignObject style="overflow: visible; text-align: left;" pointer-events="none" width="100%" height="100%" requiredFeatures="http://www.w3.org/TR/SVG11/feature#Extensibility"><div xmlns="http://www.w3.org/1999/xhtml" style="display: flex; align-items: unsafe center; justify-content: unsafe center; width: 1px; height: 1px; padding-top: 22px; margin-left: 171px;"><div style="box-sizing: border-box; font-size: 0; text-align: center; "><div style="display: inline-block; font-size: 12px; font-family: PingFangSC-Regular; color: #595959; line-height: 1.2; pointer-events: none; background-color: #ffffff; white-space: nowrap; ">绑定角色 AliyunOSSEventNotificationRole</div></div></div></foreignObject><text x="171" y="25" fill="#595959" font-family="PingFangSC-Regular" font-size="12px" text-anchor="middle">[Not supported by viewer]</text></switch></g><rect x="2" y="2" width="36" height="36" fill-opacity="0" fill="#ffffff" stroke="none" pointer-events="none" /><rect x="2" y="2" width="0" height="0" fill="none" stroke="#000000" stroke-width="2" pointer-events="none" /><path d="M 23.63 8.62 C 18.44 8.62 14.1 12.2 12.92 17.01 C 12.81 17 12.71 17 12.6 17 C 8.83 17 5.78 20.06 5.78 23.83 C 5.78 25.64 6.5 27.37 7.78 28.65 C 9.06 29.93 10.79 30.64 12.6 30.64 C 14.41 30.64 16.15 29.92 17.43 28.64 C 18.5 27.56 19.1 26.13 19.27 24.54 L 16.8 24.35 C 16.24 24.28 16.06 23.85 16.4 23.4 L 20.59 18.22 C 20.93 17.77 21.39 17.83 21.61 18.35 L 23.98 24.15 C 24.2 24.67 23.92 25.04 23.36 24.97 L 21.52 24.8 C 21.32 26.72 20.45 28.42 19.24 29.76 C 20.63 30.36 22.12 30.67 23.63 30.67 C 29.72 30.67 34.65 25.73 34.65 19.65 C 34.65 13.56 29.72 8.63 23.63 8.63 Z" fill="#1366ec" stroke="none" pointer-events="none" /><g><switch><foreignObject style="overflow: visible; text-align: left;" pointer-events="none" width="100%" height="100%" requiredFeatures="http://www.w3.org/TR/SVG11/feature#Extensibility"><div xmlns="http://www.w3.org/1999/xhtml" style="display: flex; align-items: unsafe flex-start; justify-content: unsafe center; width: 1px; height: 1px; padding-top: 49px; margin-left: 20px;"><div style="box-sizing: border-box; font-size: 0; text-align: center; "><div style="display: inline-block; font-size: 14px; font-family: PingFangSC-Regular; color: #252525; line-height: 1.2; pointer-events: none; white-space: nowrap; ">OSS</div></div></div></foreignObject><text x="20" y="63" fill="#252525" font-family="PingFangSC-Regular" font-size="14px" text-anchor="middle">[Not supported by viewer]</text></switch></g><path d="M 348.67 20 L 680.9 20" fill="none" stroke="#595959" stroke-miterlimit="10" pointer-events="none" /><path d="M 687.9 20 L 680.9 23.5 L 680.9 16.5 Z" fill="#595959" stroke="#595959" stroke-miterlimit="10" pointer-events="none" /><g><switch><foreignObject style="overflow: visible; text-align: left;" pointer-events="none" width="100%" height="100%" requiredFeatures="http://www.w3.org/TR/SVG11/feature#Extensibility"><div xmlns="http://www.w3.org/1999/xhtml" style="display: flex; align-items: unsafe center; justify-content: unsafe center; width: 1px; height: 1px; padding-top: 21px; margin-left: 518px;"><div style="box-sizing: border-box; font-size: 0; text-align: center; "><div style="display: inline-block; font-size: 12px; font-family: PingFangSC-Regular; color: #595959; line-height: 1.2; pointer-events: none; background-color: #ffffff; white-space: nowrap; ">使用 AliyunOSSEventNotificationRolePolicy 策略调用函数</div></div></div></foreignObject><text x="518" y="24" fill="#595959" font-family="PingFangSC-Regular" font-size="12px" text-anchor="middle">[Not supported by viewer]</text></switch></g><rect x="687" y="2" width="36" height="36" fill-opacity="0" fill="#ffffff" stroke="none" pointer-events="none" /><rect x="687" y="2" width="0" height="0" fill="none" stroke="#000000" stroke-width="2" pointer-events="none" /><path d="M 696.8 13.1 L 698.42 14.73 L 691.99 21.16 L 690.36 19.54 Z M 690.36 19.55 L 691.99 17.93 L 698.42 24.37 L 696.8 25.99 Z M 711.42 25.99 L 709.8 24.37 L 716.24 17.93 L 717.86 19.55 Z M 717.86 19.54 L 716.24 21.16 L 709.8 14.73 L 711.42 13.1 Z M 708.37 8.25 L 709.18 9.06 L 697.87 20.36 L 697.06 19.55 Z M 702.67 23.57 L 701.86 24.38 L 697.03 19.56 L 697.84 18.75 Z M 704.3 20.35 L 705.11 21.17 L 701.89 24.38 L 701.08 23.57 Z M 709.56 9.88 C 708.45 9.88 707.55 8.99 707.55 7.89 C 707.55 6.79 708.45 5.9 709.56 5.9 C 710.66 5.9 711.56 6.79 711.56 7.89 C 711.56 8.99 710.66 9.88 709.56 9.88 Z M 709.56 7.04 C 709.08 7.04 708.69 7.42 708.69 7.89 C 708.69 8.36 709.08 8.74 709.56 8.74 C 710.03 8.74 710.42 8.36 710.42 7.89 C 710.42 7.42 710.03 7.04 709.56 7.04 Z M 699.84 30.87 L 699.03 30.05 L 710.33 18.75 L 711.14 19.56 Z M 705.54 15.54 L 706.35 14.73 L 711.17 19.55 L 710.36 20.36 Z M 703.91 18.76 L 703.09 17.95 L 706.31 14.73 L 707.12 15.54 Z M 698.65 29.23 C 699.76 29.23 700.66 30.12 700.66 31.22 C 700.66 32.32 699.76 33.21 698.65 33.21 C 697.54 33.21 696.64 32.32 696.64 31.22 C 696.64 30.12 697.54 29.23 698.65 29.23 Z M 698.65 32.07 C 699.13 32.07 699.51 31.69 699.51 31.22 C 699.51 30.75 699.13 30.37 698.65 30.37 C 698.18 30.37 697.79 30.75 697.79 31.22 C 697.79 31.69 698.18 32.07 698.65 32.07 Z" fill="#1366ec" stroke="none" pointer-events="none" /><g><switch><foreignObject style="overflow: visible; text-align: left;" pointer-events="none" width="100%" height="100%" requiredFeatures="http://www.w3.org/TR/SVG11/feature#Extensibility"><div xmlns="http://www.w3.org/1999/xhtml" style="display: flex; align-items: unsafe flex-start; justify-content: unsafe center; width: 1px; height: 1px; padding-top: 49px; margin-left: 705px;"><div style="box-sizing: border-box; font-size: 0; text-align: center; "><div style="display: inline-block; font-size: 14px; font-family: PingFangSC-Regular; color: #252525; line-height: 1.2; pointer-events: none; white-space: nowrap; ">函数计算</div></div></div></foreignObject><text x="705" y="63" fill="#252525" font-family="PingFangSC-Regular" font-size="14px" text-anchor="middle">[Not supported by viewer]</text></switch></g><rect x="312" y="2" width="36" height="36" fill-opacity="0" fill="#ffffff" stroke="none" pointer-events="none" /><rect x="312" y="2" width="0" height="0" fill="none" stroke="#000000" stroke-width="2" pointer-events="none" /><path d="M 330 18 C 328.9 18 328 17.1 328 16 C 328 14.9 328.9 14 330 14 C 331.1 14 332 14.9 332 16 C 332 17.1 331.1 18 330 18 M 330 12 C 327.79 12 326 13.79 326 16 C 326 18.21 327.79 20 330 20 C 332.21 20 334 18.21 334 16 C 334 13.79 332.21 12 330 12" fill="#252525" stroke="none" pointer-events="none" /><path d="M 338 28.93 L 338 26.74 C 337.99 24.12 335.88 22.01 333.26 22 L 326.74 22 C 324.12 22.01 322.01 24.12 322 26.74 L 322 28.92 C 319.55 26.73 318 23.55 318 20 C 318 13.37 323.37 8 330 8 C 336.63 8 342 13.37 342 20 C 342 23.55 340.45 26.73 338 28.93 M 324 30.38 L 324 26.74 C 324 26.01 324.29 25.32 324.8 24.8 C 325.32 24.29 326.01 24 326.74 24 L 333.26 24 C 333.99 24 334.68 24.29 335.2 24.8 C 335.71 25.32 336 26.01 336 26.74 L 336 30.38 C 332.29 32.54 327.71 32.54 324 30.38 M 330 6 C 322.28 6 316 12.28 316 20 C 316 27.72 322.28 34 330 34 C 337.72 34 344 27.72 344 20 C 344 12.28 337.72 6 330 6" fill="#252525" stroke="none" pointer-events="none" /><g><switch><foreignObject style="overflow: visible; text-align: left;" pointer-events="none" width="100%" height="100%" requiredFeatures="http://www.w3.org/TR/SVG11/feature#Extensibility"><div xmlns="http://www.w3.org/1999/xhtml" style="display: flex; align-items: unsafe flex-start; justify-content: unsafe center; width: 1px; height: 1px; padding-top: 49px; margin-left: 330px;"><div style="box-sizing: border-box; font-size: 0; text-align: center; "><div style="display: inline-block; font-size: 14px; font-family: PingFangSC-Regular; color: #252525; line-height: 1.2; pointer-events: none; white-space: nowrap; ">RAM 用户</div></div></div></foreignObject><text x="330" y="63" fill="#252525" font-family="PingFangSC-Regular" font-size="14px" text-anchor="middle">[Not supported by viewer]</text></switch></g></g></svg>