<svg xmlns="http://www.w3.org/2000/svg" width="784" height="291" version="1.1"><defs /><g transform="translate(0.5,0.5)"><path d="M 40 69 L 82 69 L 82 131 L 115.88 131" fill="none" stroke="#595959" stroke-miterlimit="10" pointer-events="none" /><path d="M 122.88 131 L 115.88 134.5 L 115.88 127.5 Z" fill="#595959" stroke="#595959" stroke-miterlimit="10" pointer-events="none" /><rect x="4" y="51" width="36" height="36" fill-opacity="0" fill="#ffffff" stroke="none" pointer-events="none" /><rect x="4" y="51" width="0" height="0" fill="none" stroke="#000000" stroke-width="2" pointer-events="none" /><path d="M 33.33 75.19 L 33.33 61.63 L 28 56.33 L 20.6 56.33 L 20.6 56.38 L 22.55 58.33 L 27.22 58.33 L 31.33 62.5 L 31.33 74.33 L 31 74.33 C 30.38 74.33 29.77 74.49 29.23 74.79 L 26 71.52 L 27.11 67.58 L 23.45 63.92 L 19.48 65 L 16.28 61.8 C 17.17 60.23 16.79 58.26 15.38 57.13 C 13.98 56 11.97 56.06 10.63 57.27 C 9.29 58.47 9.03 60.47 10 61.98 L 10 76.37 L 10.04 76.37 L 15.33 81.67 L 23.33 81.67 L 21.33 79.67 L 16.18 79.67 L 12 75.5 L 12 63.5 C 12.35 63.6 12.71 63.66 13.08 63.66 C 13.69 63.66 14.29 63.51 14.83 63.22 L 18.02 66.41 L 16.9 70.41 L 20.56 74.07 L 24.56 72.95 L 27.8 76.19 C 26.83 77.88 27.35 80.03 28.98 81.09 C 30.61 82.15 32.78 81.76 33.94 80.19 C 35.09 78.63 34.83 76.43 33.33 75.19 Z M 11.43 60 C 11.43 59.4 11.75 58.85 12.26 58.55 C 12.78 58.26 13.42 58.26 13.94 58.55 C 14.45 58.85 14.77 59.4 14.77 60 C 14.77 60.92 14.02 61.67 13.1 61.67 C 12.18 61.67 11.43 60.92 11.43 60 Z M 19.16 69.83 L 20 67 L 22.87 66.19 L 24.87 68.19 L 24.06 71.07 L 21.19 71.87 L 19.16 69.83 Z M 32.49 78.83 C 32.19 79.36 31.62 79.68 31.01 79.67 C 30.72 79.67 30.43 79.59 30.18 79.44 C 29.6 79.1 29.27 78.44 29.36 77.77 C 29.45 77.1 29.94 76.55 30.59 76.38 C 31.25 76.21 31.94 76.45 32.35 76.99 C 32.76 77.52 32.8 78.26 32.46 78.84 L 32.49 78.84 Z" fill="#1366ec" stroke="none" pointer-events="none" /><g><switch><foreignObject style="overflow: visible; text-align: left;" pointer-events="none" width="100%" height="100%" requiredFeatures="http://www.w3.org/TR/SVG11/feature#Extensibility"><div xmlns="http://www.w3.org/1999/xhtml" style="display: flex; align-items: unsafe flex-start; justify-content: unsafe center; width: 1px; height: 1px; padding-top: 98px; margin-left: 22px;"><div style="box-sizing: border-box; font-size: 0; text-align: center; "><div style="display: inline-block; font-size: 14px; font-family: PingFangSC-Regular; color: #252525; line-height: 1.2; pointer-events: none; white-space: nowrap; ">事件源</div></div></div></foreignObject><text x="22" y="112" fill="#252525" font-family="PingFangSC-Regular" font-size="14px" text-anchor="middle">[Not supported by viewer]</text></switch></g><path d="M 40 189 L 82 189 L 82 131 L 115.88 131" fill="none" stroke="#595959" stroke-miterlimit="10" pointer-events="none" /><path d="M 122.88 131 L 115.88 134.5 L 115.88 127.5 Z" fill="#595959" stroke="#595959" stroke-miterlimit="10" pointer-events="none" /><rect x="4" y="171" width="36" height="36" fill-opacity="0" fill="#ffffff" stroke="none" pointer-events="none" /><rect x="4" y="171" width="0" height="0" fill="none" stroke="#000000" stroke-width="2" pointer-events="none" /><path d="M 22 187 C 20.9 187 20 186.1 20 185 C 20 183.9 20.9 183 22 183 C 23.1 183 24 183.9 24 185 C 24 186.1 23.1 187 22 187 M 22 181 C 19.79 181 18 182.79 18 185 C 18 187.21 19.79 189 22 189 C 24.21 189 26 187.21 26 185 C 26 182.79 24.21 181 22 181" fill="#252525" stroke="none" pointer-events="none" /><path d="M 30 197.93 L 30 195.74 C 29.99 193.12 27.88 191.01 25.26 191 L 18.74 191 C 16.12 191.01 14.01 193.12 14 195.74 L 14 197.92 C 11.55 195.73 10 192.55 10 189 C 10 182.37 15.37 177 22 177 C 28.63 177 34 182.37 34 189 C 34 192.55 32.45 195.73 30 197.93 M 16 199.38 L 16 195.74 C 16 195.01 16.29 194.32 16.8 193.8 C 17.32 193.29 18.01 193 18.74 193 L 25.26 193 C 25.99 193 26.68 193.29 27.2 193.8 C 27.71 194.32 28 195.01 28 195.74 L 28 199.38 C 24.29 201.54 19.71 201.54 16 199.38 M 22 175 C 14.28 175 8 181.28 8 189 C 8 196.72 14.28 203 22 203 C 29.72 203 36 196.72 36 189 C 36 181.28 29.72 175 22 175" fill="#252525" stroke="none" pointer-events="none" /><g><switch><foreignObject style="overflow: visible; text-align: left;" pointer-events="none" width="100%" height="100%" requiredFeatures="http://www.w3.org/TR/SVG11/feature#Extensibility"><div xmlns="http://www.w3.org/1999/xhtml" style="display: flex; align-items: unsafe flex-start; justify-content: unsafe center; width: 1px; height: 1px; padding-top: 218px; margin-left: 22px;"><div style="box-sizing: border-box; font-size: 0; text-align: center; "><div style="display: inline-block; font-size: 14px; font-family: PingFangSC-Regular; color: #252525; line-height: 1.2; pointer-events: none; white-space: nowrap; ">用户</div></div></div></foreignObject><text x="22" y="232" fill="#252525" font-family="PingFangSC-Regular" font-size="14px" text-anchor="middle">[Not supported by viewer]</text></switch></g><rect x="214" y="1" width="120" height="60" fill="#d1ddff" stroke="none" pointer-events="none" /><g><switch><foreignObject style="overflow: visible; text-align: left;" pointer-events="none" width="100%" height="100%" requiredFeatures="http://www.w3.org/TR/SVG11/feature#Extensibility"><div xmlns="http://www.w3.org/1999/xhtml" style="display: flex; align-items: unsafe center; justify-content: unsafe center; width: 118px; height: 1px; padding-top: 31px; margin-left: 215px;"><div style="box-sizing: border-box; font-size: 0; text-align: center; "><div style="display: inline-block; font-size: 14px; font-family: PingFangSC-Regular; color: #252525; line-height: 1.2; pointer-events: none; white-space: normal; word-wrap: normal; ">调度服务</div></div></div></foreignObject><text x="274" y="35" fill="#252525" font-family="PingFangSC-Regular" font-size="14px" text-anchor="middle">[Not supported by viewer]</text></switch></g><path d="M 124 8.6 C 124 4.4 141.91 1 164 1 C 174.61 1 184.78 1.8 192.28 3.23 C 199.79 4.65 204 6.58 204 8.6 L 204 53.4 C 204 57.6 186.09 61 164 61 C 141.91 61 124 57.6 124 53.4 Z" fill="#d1ddff" stroke="#ffffff" stroke-miterlimit="10" pointer-events="none" /><path d="M 204 8.6 C 204 12.8 186.09 16.2 164 16.2 C 141.91 16.2 124 12.8 124 8.6" fill="none" stroke="#ffffff" stroke-miterlimit="10" pointer-events="none" /><g><switch><foreignObject style="overflow: visible; text-align: left;" pointer-events="none" width="100%" height="100%" requiredFeatures="http://www.w3.org/TR/SVG11/feature#Extensibility"><div xmlns="http://www.w3.org/1999/xhtml" style="display: flex; align-items: unsafe center; justify-content: unsafe center; width: 78px; height: 1px; padding-top: 38px; margin-left: 125px;"><div style="box-sizing: border-box; font-size: 0; text-align: center; "><div style="display: inline-block; font-size: 14px; font-family: PingFangSC-Regular; color: #252525; line-height: 1.2; pointer-events: none; white-space: normal; word-wrap: normal; ">元数据</div></div></div></foreignObject><text x="164" y="42" fill="#252525" font-family="PingFangSC-Regular" font-size="14px" text-anchor="middle">[Not supported by viewer]</text></switch></g><path d="M 334 131 L 395.88 131" fill="none" stroke="#595959" stroke-miterlimit="10" pointer-events="none" /><path d="M 402.88 131 L 395.88 134.5 L 395.88 127.5 Z" fill="#595959" stroke="#595959" stroke-miterlimit="10" pointer-events="none" /><path d="M 229 101 L 229 81 L 164 81 L 164 69.12" fill="none" stroke="#595959" stroke-miterlimit="10" pointer-events="none" /><path d="M 164 62.12 L 167.5 69.12 L 160.5 69.12 Z" fill="#595959" stroke="#595959" stroke-miterlimit="10" pointer-events="none" /><path d="M 229 101 L 229 81 L 274 81 L 274 69.12" fill="none" stroke="#595959" stroke-miterlimit="10" pointer-events="none" /><path d="M 274 62.12 L 277.5 69.12 L 270.5 69.12 Z" fill="#595959" stroke="#595959" stroke-miterlimit="10" pointer-events="none" /><path d="M 229 161 L 229 181 L 298 181 L 298 192.88" fill="none" stroke="#595959" stroke-miterlimit="10" pointer-events="none" /><path d="M 298 199.88 L 294.5 192.88 L 301.5 192.88 Z" fill="#595959" stroke="#595959" stroke-miterlimit="10" pointer-events="none" /><path d="M 229 161 L 229 181 L 164 181 L 164 192.88" fill="none" stroke="#595959" stroke-miterlimit="10" pointer-events="none" /><path d="M 164 199.88 L 160.5 192.88 L 167.5 192.88 Z" fill="#595959" stroke="#595959" stroke-miterlimit="10" pointer-events="none" /><rect x="124" y="101" width="210" height="60" fill="#d1ddff" stroke="none" pointer-events="none" /><g><switch><foreignObject style="overflow: visible; text-align: left;" pointer-events="none" width="100%" height="100%" requiredFeatures="http://www.w3.org/TR/SVG11/feature#Extensibility"><div xmlns="http://www.w3.org/1999/xhtml" style="display: flex; align-items: unsafe center; justify-content: unsafe center; width: 208px; height: 1px; padding-top: 131px; margin-left: 125px;"><div style="box-sizing: border-box; font-size: 0; text-align: center; "><div style="display: inline-block; font-size: 14px; font-family: PingFangSC-Regular; color: #252525; line-height: 1.2; pointer-events: none; white-space: normal; word-wrap: normal; ">接入服务</div></div></div></foreignObject><text x="229" y="135" fill="#252525" font-family="PingFangSC-Regular" font-size="14px" text-anchor="middle">[Not supported by viewer]</text></switch></g><path d="M 164 261 L 164 281 L 504 281 L 504 219.12" fill="none" stroke="#595959" stroke-miterlimit="10" pointer-events="none" /><path d="M 504 212.12 L 507.5 219.12 L 500.5 219.12 Z" fill="#595959" stroke="#595959" stroke-miterlimit="10" pointer-events="none" /><path d="M 124 208.6 C 124 204.4 141.91 201 164 201 C 174.61 201 184.78 201.8 192.28 203.23 C 199.79 204.65 204 206.58 204 208.6 L 204 253.4 C 204 257.6 186.09 261 164 261 C 141.91 261 124 257.6 124 253.4 Z" fill="#d1ddff" stroke="#ffffff" stroke-miterlimit="10" pointer-events="none" /><path d="M 204 208.6 C 204 212.8 186.09 216.2 164 216.2 C 141.91 216.2 124 212.8 124 208.6" fill="none" stroke="#ffffff" stroke-miterlimit="10" pointer-events="none" /><g><switch><foreignObject style="overflow: visible; text-align: left;" pointer-events="none" width="100%" height="100%" requiredFeatures="http://www.w3.org/TR/SVG11/feature#Extensibility"><div xmlns="http://www.w3.org/1999/xhtml" style="display: flex; align-items: unsafe center; justify-content: unsafe center; width: 78px; height: 1px; padding-top: 238px; margin-left: 125px;"><div style="box-sizing: border-box; font-size: 0; text-align: center; "><div style="display: inline-block; font-size: 14px; font-family: PingFangSC-Regular; color: #252525; line-height: 1.2; pointer-events: none; white-space: normal; word-wrap: normal; ">代码缓存</div></div></div></foreignObject><text x="164" y="242" fill="#252525" font-family="PingFangSC-Regular" font-size="14px" text-anchor="middle">[Not supported by viewer]</text></switch></g><path d="M 298 261 L 298 281 L 504 281 L 504 219.12" fill="none" stroke="#595959" stroke-miterlimit="10" pointer-events="none" /><path d="M 504 212.12 L 507.5 219.12 L 500.5 219.12 Z" fill="#595959" stroke="#595959" stroke-miterlimit="10" pointer-events="none" /><path d="M 258 208.6 C 258 204.4 275.91 201 298 201 C 308.61 201 318.78 201.8 326.28 203.23 C 333.79 204.65 338 206.58 338 208.6 L 338 253.4 C 338 257.6 320.09 261 298 261 C 275.91 261 258 257.6 258 253.4 Z" fill="#d1ddff" stroke="#ffffff" stroke-miterlimit="10" pointer-events="none" /><path d="M 338 208.6 C 338 212.8 320.09 216.2 298 216.2 C 275.91 216.2 258 212.8 258 208.6" fill="none" stroke="#ffffff" stroke-miterlimit="10" pointer-events="none" /><g><switch><foreignObject style="overflow: visible; text-align: left;" pointer-events="none" width="100%" height="100%" requiredFeatures="http://www.w3.org/TR/SVG11/feature#Extensibility"><div xmlns="http://www.w3.org/1999/xhtml" style="display: flex; align-items: unsafe center; justify-content: unsafe center; width: 78px; height: 1px; padding-top: 238px; margin-left: 259px;"><div style="box-sizing: border-box; font-size: 0; text-align: center; "><div style="display: inline-block; font-size: 14px; font-family: PingFangSC-Regular; color: #252525; line-height: 1.2; pointer-events: none; white-space: normal; word-wrap: normal; ">镜像缓存</div></div></div></foreignObject><text x="298" y="242" fill="#252525" font-family="PingFangSC-Regular" font-size="14px" text-anchor="middle">[Not supported by viewer]</text></switch></g><path d="M 604 131 L 644 131 L 644 60 L 688.28 60" fill="none" stroke="#595959" stroke-miterlimit="10" pointer-events="none" /><path d="M 695.28 60 L 688.28 63.5 L 688.28 56.5 Z" fill="#595959" stroke="#595959" stroke-miterlimit="10" pointer-events="none" /><path d="M 604 131 L 644 131 L 644 191 L 681.88 191" fill="none" stroke="#595959" stroke-miterlimit="10" pointer-events="none" /><path d="M 688.88 191 L 681.88 194.5 L 681.88 187.5 Z" fill="#595959" stroke="#595959" stroke-miterlimit="10" pointer-events="none" /><rect x="404" y="51" width="200" height="160" fill="#f0f0f0" stroke="#8c8c8c" stroke-dasharray="3 3" pointer-events="none" /><g><switch><foreignObject style="overflow: visible; text-align: left;" pointer-events="none" width="100%" height="100%" requiredFeatures="http://www.w3.org/TR/SVG11/feature#Extensibility"><div xmlns="http://www.w3.org/1999/xhtml" style="display: flex; align-items: unsafe flex-end; justify-content: unsafe center; width: 198px; height: 1px; padding-top: 208px; margin-left: 405px;"><div style="box-sizing: border-box; font-size: 0; text-align: center; "><div style="display: inline-block; font-size: 14px; font-family: PingFangSC-Regular; color: #252525; line-height: 1.2; pointer-events: none; white-space: normal; word-wrap: normal; ">计算节点</div></div></div></foreignObject><text x="504" y="208" fill="#252525" font-family="PingFangSC-Regular" font-size="14px" text-anchor="middle">[Not supported by viewer]</text></switch></g><rect x="414" y="61" width="180" height="120" fill="#ffffff" stroke="#8c8c8c" stroke-dasharray="3 3" pointer-events="none" /><g><switch><foreignObject style="overflow: visible; text-align: left;" pointer-events="none" width="100%" height="100%" requiredFeatures="http://www.w3.org/TR/SVG11/feature#Extensibility"><div xmlns="http://www.w3.org/1999/xhtml" style="display: flex; align-items: unsafe flex-end; justify-content: unsafe flex-end; width: 178px; height: 1px; padding-top: 178px; margin-left: 414px;"><div style="box-sizing: border-box; font-size: 0; text-align: right; "><div style="display: inline-block; font-size: 14px; font-family: PingFangSC-Regular; color: #252525; line-height: 1.2; pointer-events: none; white-space: normal; word-wrap: normal; ">函数实例</div></div></div></foreignObject><text x="592" y="178" fill="#252525" font-family="PingFangSC-Regular" font-size="14px" text-anchor="end">[Not supported by viewer]</text></switch></g><rect x="434" y="71" width="140" height="40" fill="#ebf0ff" stroke="none" pointer-events="none" /><g><switch><foreignObject style="overflow: visible; text-align: left;" pointer-events="none" width="100%" height="100%" requiredFeatures="http://www.w3.org/TR/SVG11/feature#Extensibility"><div xmlns="http://www.w3.org/1999/xhtml" style="display: flex; align-items: unsafe center; justify-content: unsafe center; width: 138px; height: 1px; padding-top: 91px; margin-left: 435px;"><div style="box-sizing: border-box; font-size: 0; text-align: center; "><div style="display: inline-block; font-size: 14px; font-family: PingFangSC-Regular; color: #252525; line-height: 1.2; pointer-events: none; white-space: normal; word-wrap: normal; ">函数代码/层</div></div></div></foreignObject><text x="504" y="95" fill="#252525" font-family="PingFangSC-Regular" font-size="14px" text-anchor="middle">[Not supported by viewer]</text></switch></g><rect x="434" y="116" width="140" height="40" fill="#d1ddff" stroke="none" pointer-events="none" /><g><switch><foreignObject style="overflow: visible; text-align: left;" pointer-events="none" width="100%" height="100%" requiredFeatures="http://www.w3.org/TR/SVG11/feature#Extensibility"><div xmlns="http://www.w3.org/1999/xhtml" style="display: flex; align-items: unsafe center; justify-content: unsafe center; width: 138px; height: 1px; padding-top: 136px; margin-left: 435px;"><div style="box-sizing: border-box; font-size: 0; text-align: center; "><div style="display: inline-block; font-size: 14px; font-family: PingFangSC-Regular; color: #252525; line-height: 1.2; pointer-events: none; white-space: normal; word-wrap: normal; ">运行时环境</div></div></div></foreignObject><text x="504" y="140" fill="#252525" font-family="PingFangSC-Regular" font-size="14px" text-anchor="middle">[Not supported by viewer]</text></switch></g><g><switch><foreignObject style="overflow: visible; text-align: left;" pointer-events="none" width="100%" height="100%" requiredFeatures="http://www.w3.org/TR/SVG11/feature#Extensibility"><div xmlns="http://www.w3.org/1999/xhtml" style="display: flex; align-items: unsafe center; justify-content: unsafe center; width: 98px; height: 1px; padding-top: 97px; margin-left: 681px;"><div style="box-sizing: border-box; font-size: 0; text-align: center; "><div style="display: inline-block; font-size: 14px; font-family: PingFangSC-Regular; color: #252525; line-height: 1.2; pointer-events: none; white-space: normal; word-wrap: normal; ">访问 Internet</div></div></div></foreignObject><text x="730" y="101" fill="#252525" font-family="PingFangSC-Regular" font-size="14px" text-anchor="middle">[Not supported by viewer]</text></switch></g><rect x="690" y="171" width="82" height="40" fill="#ebf0ff" stroke="#d9d9d9" pointer-events="none" /><g><switch><foreignObject style="overflow: visible; text-align: left;" pointer-events="none" width="100%" height="100%" requiredFeatures="http://www.w3.org/TR/SVG11/feature#Extensibility"><div xmlns="http://www.w3.org/1999/xhtml" style="display: flex; align-items: unsafe center; justify-content: unsafe center; width: 80px; height: 1px; padding-top: 191px; margin-left: 691px;"><div style="box-sizing: border-box; font-size: 0; text-align: center; "><div style="display: inline-block; font-size: 14px; font-family: PingFangSC-Regular; color: #252525; line-height: 1.2; pointer-events: none; white-space: normal; word-wrap: normal; ">RDS 等</div></div></div></foreignObject><text x="731" y="195" fill="#252525" font-family="PingFangSC-Regular" font-size="14px" text-anchor="middle">[Not supported by viewer]</text></switch></g><g><switch><foreignObject style="overflow: visible; text-align: left;" pointer-events="none" width="100%" height="100%" requiredFeatures="http://www.w3.org/TR/SVG11/feature#Extensibility"><div xmlns="http://www.w3.org/1999/xhtml" style="display: flex; align-items: unsafe center; justify-content: unsafe center; width: 98px; height: 1px; padding-top: 229px; margin-left: 683px;"><div style="box-sizing: border-box; font-size: 0; text-align: center; "><div style="display: inline-block; font-size: 14px; font-family: PingFangSC-Regular; color: #252525; line-height: 1.2; pointer-events: none; white-space: normal; word-wrap: normal; ">访问 VPC</div></div></div></foreignObject><text x="732" y="233" fill="#252525" font-family="PingFangSC-Regular" font-size="14px" text-anchor="middle">[Not supported by viewer]</text></switch></g><path d="M 704.5 42 C 686.5 42 682 57 696.4 60 C 682 66.6 698.2 81 709.9 75 C 718 87 745 87 754 75 C 772 75 772 63 760.75 57 C 772 45 754 33 738.25 39 C 727 30 709 30 704.5 42 Z" fill="#ebf0ff" stroke="#ffffff" stroke-miterlimit="10" pointer-events="none" /></g></svg>