<svg xmlns="http://www.w3.org/2000/svg" version="1.1" data-width="709" data-height="273" class="icms-hetu-svg" width="709" height="273"><defs /><g transform="translate(0.5,0.5)"><rect x="106" y="21" width="470" height="250" fill="#ffffff" stroke="#8c8c8c" stroke-dasharray="3 3" pointer-events="none" /><g><switch><foreignObject style="overflow: visible; text-align: left;" pointer-events="none" width="100%" height="100%" requiredFeatures="http://www.w3.org/TR/SVG11/feature#Extensibility"><div xmlns="http://www.w3.org/1999/xhtml" style="display: flex; align-items: unsafe center; justify-content: unsafe flex-start; width: 128px; height: 1px; padding-top: 205px; margin-left: 203px;"><div style="box-sizing: border-box; font-size: 0; text-align: left; "><div style="display: inline-block; font-size: 14px; font-family: PingFangSC-Regular; color: #252525; line-height: 1.2; pointer-events: none; white-space: normal; word-wrap: normal; ">按时弹性预留伸缩<br />按指标弹性预留伸缩<br />· 并发度/QPS<br />· CPU/GPU</div></div></div></foreignObject><text x="203" y="209" fill="#252525" font-family="PingFangSC-Regular" font-size="14px">[Not supported by viewer]</text></switch></g><rect x="131" y="124" width="36" height="36" fill-opacity="0" fill="#ffffff" stroke="none" pointer-events="none" /><rect x="131" y="124" width="0" height="0" fill="none" stroke="#000000" stroke-width="2" pointer-events="none" /><path d="M 151.6 142.43 L 149 139.83 L 146.42 142.41 L 145 140.99 L 147.58 138.41 L 149 137 L 153.01 141.02 Z" fill="#252525" stroke="none" pointer-events="none" /><path d="M 148 138.96 L 150 138.96 L 150 147.96 L 148 147.96 Z" fill="#252525" stroke="none" pointer-events="none" /><path d="M 156.75 138.1 C 156.31 134.1 152.95 131 148.87 131 C 144.78 131 141.41 134.13 140.99 138.14 C 137.58 138.82 135 141.86 135 145.5 C 135 149.64 138.33 153 142.43 153 L 155.31 153 C 155.35 153 155.39 152.99 155.43 152.99 C 155.47 152.99 155.51 153 155.55 153 C 159.66 153 162.98 149.64 162.98 145.5 C 163 141.84 160.36 138.7 156.75 138.1 Z M 155.61 151 C 155.56 151 155.52 150.99 155.47 150.99 L 155.41 150.99 C 155.36 150.99 155.32 150.99 155.27 151 L 142.43 151 C 139.42 151 136.98 148.53 136.98 145.5 C 136.97 142.48 139.41 140.02 142.43 140 L 143.02 140 C 142.97 139.67 142.93 139.34 142.93 139 C 142.93 138.66 142.96 138.33 143.02 138 C 143.49 135.17 145.94 133 148.88 133 C 151.82 133 154.26 135.17 154.74 138 C 154.79 138.33 154.83 138.66 154.83 139 C 154.83 139.34 154.8 139.67 154.74 140 L 155.28 140 C 155.33 140 155.37 140.01 155.42 140.01 L 155.48 140.01 C 155.52 140.01 155.57 140.01 155.62 140 C 156 140 156.37 140.05 156.73 140.12 C 159.18 140.65 161.03 142.86 161.03 145.5 C 161.02 148.52 158.6 150.98 155.61 151 Z" fill="#252525" stroke="none" pointer-events="none" /><g><switch><foreignObject style="overflow: visible; text-align: left;" pointer-events="none" width="100%" height="100%" requiredFeatures="http://www.w3.org/TR/SVG11/feature#Extensibility"><div xmlns="http://www.w3.org/1999/xhtml" style="display: flex; align-items: unsafe flex-start; justify-content: unsafe center; width: 1px; height: 1px; padding-top: 171px; margin-left: 149px;"><div style="box-sizing: border-box; font-size: 0; text-align: center; "><div style="display: inline-block; font-size: 14px; font-family: PingFangSC-Regular; color: #252525; line-height: 1.2; pointer-events: none; white-space: nowrap; "><div style=""><br /></div></div></div></div></foreignObject><text x="149" y="185" fill="#252525" font-family="PingFangSC-Regular" font-size="14px" text-anchor="middle">[Not supported by viewer]</text></switch></g><ellipse cx="266" cy="142" rx="15" ry="15" fill="#ffffff" stroke="#000000" stroke-width="2" pointer-events="none" /><g fill="#252525" font-family="PingFangSC-Regular" pointer-events="none" text-anchor="middle" font-size="14px"><text x="266" y="148">A</text></g><g><switch><foreignObject style="overflow: visible; text-align: left;" pointer-events="none" width="100%" height="100%" requiredFeatures="http://www.w3.org/TR/SVG11/feature#Extensibility"><div xmlns="http://www.w3.org/1999/xhtml" style="display: flex; align-items: unsafe center; justify-content: unsafe flex-start; width: 107px; height: 1px; padding-top: 190px; margin-left: 363px;"><div style="box-sizing: border-box; font-size: 0; text-align: left; "><div style="display: inline-block; font-size: 14px; font-family: PingFangSC-Regular; color: #252525; line-height: 1.2; pointer-events: none; white-space: normal; word-wrap: normal; ">&#160; 可观测<br />（日志、监控）</div></div></div></foreignObject><text x="363" y="194" fill="#252525" font-family="PingFangSC-Regular" font-size="14px">[Not supported by viewer]</text></switch></g><rect x="451" y="1" width="30" height="40" fill="#ffffff" stroke="none" pointer-events="none" /><g><switch><foreignObject style="overflow: visible; text-align: left;" pointer-events="none" width="100%" height="100%" requiredFeatures="http://www.w3.org/TR/SVG11/feature#Extensibility"><div xmlns="http://www.w3.org/1999/xhtml" style="display: flex; align-items: unsafe center; justify-content: unsafe center; width: 178px; height: 1px; padding-top: 71px; margin-left: 392px;"><div style="box-sizing: border-box; font-size: 0; text-align: center; "><div style="display: inline-block; font-size: 14px; font-family: PingFangSC-Regular; color: #252525; line-height: 1.2; pointer-events: none; white-space: normal; word-wrap: normal; ">全托管 Serverless 推理平台</div></div></div></foreignObject><text x="481" y="75" fill="#252525" font-family="PingFangSC-Regular" font-size="14px" text-anchor="middle">[Not supported by viewer]</text></switch></g><g><switch><foreignObject style="overflow: visible; text-align: left;" pointer-events="none" width="100%" height="100%" requiredFeatures="http://www.w3.org/TR/SVG11/feature#Extensibility"><div xmlns="http://www.w3.org/1999/xhtml" style="display: flex; align-items: unsafe center; justify-content: unsafe center; width: 104px; height: 1px; padding-top: 178px; margin-left: 467px;"><div style="box-sizing: border-box; font-size: 0; text-align: center; "><div style="display: inline-block; font-size: 14px; font-family: PingFangSC-Regular; color: #252525; line-height: 1.2; pointer-events: none; white-space: normal; word-wrap: normal; ">按实例资源计费</div></div></div></foreignObject><text x="519" y="182" fill="#252525" font-family="PingFangSC-Regular" font-size="14px" text-anchor="middle">[Not supported by viewer]</text></switch></g><path d="M 576 146 L 652.88 146" fill="none" stroke="#595959" stroke-miterlimit="10" pointer-events="none" /><path d="M 659.88 146 L 652.88 149.5 L 652.88 142.5 Z" fill="#595959" stroke="#595959" stroke-miterlimit="10" pointer-events="none" /><rect x="371" y="127" width="36" height="36" fill-opacity="0" fill="#ffffff" stroke="none" pointer-events="none" /><rect x="371" y="127" width="0" height="0" fill="none" stroke="#000000" stroke-width="2" pointer-events="none" /><path d="M 377.01 133.01 L 379.01 133.01 L 379.01 157.01 L 377.01 157.01 Z" fill="#252525" stroke="none" pointer-events="none" /><path d="M 377 157.01 L 377 155.01 L 401 155.01 L 401 157.01 Z M 382.63 152.97 L 381 151.8 L 387.4 142.91 L 393.91 147.59 L 399.38 139.97 L 401.01 141.14 L 394.36 150.38 L 387.86 145.7 Z" fill="#252525" stroke="none" pointer-events="none" /><rect x="501" y="128" width="36" height="36" fill-opacity="0" fill="#ffffff" stroke="none" pointer-events="none" /><rect x="501" y="128" width="0" height="0" fill="none" stroke="#000000" stroke-width="2" pointer-events="none" /><path d="M 531 132 L 507 132 L 507 160 L 531 160 L 531 132 Z M 529 134 L 529 158 L 509 158 L 509 134 L 529 134 Z" fill="#252525" stroke="none" pointer-events="none" /><path d="M 513 139 L 525 139 L 525 137 L 513 137 Z M 513 145 L 515 145 L 515 143 L 513 143 Z M 518 145 L 520 145 L 520 143 L 518 143 Z M 523 145 L 525 145 L 525 143 L 523 143 Z M 513 150 L 515 150 L 515 148 L 513 148 Z M 518 150 L 520 150 L 520 148 L 518 148 Z M 523 150 L 525 150 L 525 148 L 523 148 Z M 513 155 L 515 155 L 515 153 L 513 153 Z M 518 155 L 520 155 L 520 153 L 518 153 Z M 523 155 L 525 155 L 525 153 L 523 153 Z" fill="#252525" stroke="none" pointer-events="none" /><g><switch><foreignObject style="overflow: visible; text-align: left;" pointer-events="none" width="100%" height="100%" requiredFeatures="http://www.w3.org/TR/SVG11/feature#Extensibility"><div xmlns="http://www.w3.org/1999/xhtml" style="display: flex; align-items: unsafe center; justify-content: unsafe center; width: 58px; height: 1px; padding-top: 190px; margin-left: 2px;"><div style="box-sizing: border-box; font-size: 0; text-align: center; "><div style="display: inline-block; font-size: 14px; font-family: PingFangSC-Regular; color: #252525; line-height: 1.2; pointer-events: none; white-space: normal; word-wrap: normal; ">推理请求</div></div></div></foreignObject><text x="31" y="194" fill="#252525" font-family="PingFangSC-Regular" font-size="14px" text-anchor="middle">[Not supported by viewer]</text></switch></g><rect x="451" y="3" width="36" height="36" fill-opacity="0" fill="#ffffff" stroke="none" pointer-events="none" /><rect x="451" y="3" width="0" height="0" fill="none" stroke="#000000" stroke-width="2" pointer-events="none" /><path d="M 460.8 14.1 L 462.42 15.73 L 455.99 22.16 L 454.36 20.54 Z M 454.36 20.55 L 455.99 18.93 L 462.42 25.37 L 460.8 26.99 Z M 475.42 26.99 L 473.8 25.37 L 480.24 18.93 L 481.86 20.55 Z M 481.86 20.54 L 480.24 22.16 L 473.8 15.73 L 475.42 14.1 Z M 472.37 9.25 L 473.18 10.06 L 461.87 21.36 L 461.06 20.55 Z M 466.67 24.57 L 465.86 25.38 L 461.03 20.56 L 461.84 19.75 Z M 468.3 21.35 L 469.11 22.17 L 465.89 25.38 L 465.08 24.57 Z M 473.56 10.88 C 472.45 10.88 471.55 9.99 471.55 8.89 C 471.55 7.79 472.45 6.9 473.56 6.9 C 474.66 6.9 475.56 7.79 475.56 8.89 C 475.56 9.99 474.66 10.88 473.56 10.88 Z M 473.56 8.04 C 473.08 8.04 472.69 8.42 472.69 8.89 C 472.69 9.36 473.08 9.74 473.56 9.74 C 474.03 9.74 474.42 9.36 474.42 8.89 C 474.42 8.42 474.03 8.04 473.56 8.04 Z M 463.84 31.87 L 463.03 31.05 L 474.33 19.75 L 475.14 20.56 Z M 469.54 16.54 L 470.35 15.73 L 475.17 20.55 L 474.36 21.36 Z M 467.91 19.76 L 467.09 18.95 L 470.31 15.73 L 471.12 16.54 Z M 462.65 30.23 C 463.76 30.23 464.66 31.12 464.66 32.22 C 464.66 33.32 463.76 34.21 462.65 34.21 C 461.54 34.21 460.64 33.32 460.64 32.22 C 460.64 31.12 461.54 30.23 462.65 30.23 Z M 462.65 33.07 C 463.13 33.07 463.51 32.69 463.51 32.22 C 463.51 31.75 463.13 31.37 462.65 31.37 C 462.18 31.37 461.79 31.75 461.79 32.22 C 461.79 32.69 462.18 33.07 462.65 33.07 Z" fill="#1366ec" stroke="none" pointer-events="none" /><path d="M 51 145.64 L 94.88 145.94" fill="none" stroke="#595959" stroke-miterlimit="10" pointer-events="none" /><path d="M 101.88 145.99 L 94.86 149.44 L 94.91 142.44 Z" fill="#595959" stroke="#595959" stroke-miterlimit="10" pointer-events="none" /><path d="M 11 123 L 35 123 L 51 139 L 51 168 L 11 168 L 11 123 Z" fill="#ffffff" stroke="#000000" stroke-miterlimit="10" pointer-events="none" /><path d="M 35 123 L 35 139 L 51 139" fill="none" stroke="#000000" stroke-miterlimit="10" pointer-events="none" /><path d="M 13 129.2 L 21.4 129.2 L 21.4 125 L 27 132 L 21.4 139 L 21.4 134.8 L 13 134.8 Z" fill="#ffffff" stroke="#000000" stroke-miterlimit="10" pointer-events="none" /><rect x="24" y="153" width="2.8" height="15" fill="#000000" stroke="#000000" pointer-events="none" /><rect x="29.6" y="153" width="2.8" height="15" fill="#000000" stroke="#000000" pointer-events="none" /><rect x="35.2" y="153" width="2.8" height="15" fill="#000000" stroke="#000000" pointer-events="none" /><g><switch><foreignObject style="overflow: visible; text-align: left;" pointer-events="none" width="100%" height="100%" requiredFeatures="http://www.w3.org/TR/SVG11/feature#Extensibility"><div xmlns="http://www.w3.org/1999/xhtml" style="display: flex; align-items: unsafe center; justify-content: unsafe flex-start; width: 88px; height: 1px; padding-top: 190px; margin-left: 123px;"><div style="box-sizing: border-box; font-size: 0; text-align: left; "><div style="display: inline-block; font-size: 14px; font-family: PingFangSC-Regular; color: #252525; line-height: 1.2; pointer-events: none; white-space: normal; word-wrap: normal; ">HTTP 触发<br />事件触发</div></div></div></foreignObject><text x="123" y="194" fill="#252525" font-family="PingFangSC-Regular" font-size="14px">[Not supported by viewer]</text></switch></g><rect x="661" y="124" width="36" height="36" fill-opacity="0" fill="#ffffff" stroke="none" pointer-events="none" /><rect x="661" y="124" width="0" height="0" fill="none" stroke="#000000" stroke-width="2" pointer-events="none" /><path d="M 675 132 C 676.65 132 678 133.35 678 135 C 678 136.65 676.65 138 675 138 C 673.35 138 672 136.65 672 135 C 672 133.35 673.35 132 675 132 M 675 140 C 677.76 140 680 137.76 680 135 C 680 132.24 677.76 130 675 130 C 672.24 130 670 132.24 670 135 C 670 137.76 672.24 140 675 140 M 685 137 C 686.1 137 687 137.9 687 139 C 687 140.1 686.1 141 685 141 C 683.9 141 683 140.1 683 139 C 683 137.9 683.9 137 685 137 M 685 143 C 687.21 143 689 141.21 689 139 C 689 136.79 687.21 135 685 135 C 682.79 135 681 136.79 681 139 C 681 141.21 682.79 143 685 143 M 687.14 145 L 682.86 145 C 682.77 145 682.68 145.02 682.59 145.02 C 681.8 143.19 680 142 678 142 L 672 142 C 669.24 142 667 144.24 667 147 L 667 154 L 669 154 L 669 147 C 669 145.35 670.35 144 672 144 L 678 144 C 679.66 144 681 145.35 681 147 L 681 154 L 683 154 L 683 147 L 687.14 147 C 688.17 147 689 147.84 689 148.86 L 689 154 L 691 154 L 691 148.86 C 691 147.84 690.59 146.85 689.87 146.13 C 689.15 145.41 688.16 145 687.14 145" fill="#252525" stroke="none" pointer-events="none" /><g><switch><foreignObject style="overflow: visible; text-align: left;" pointer-events="none" width="100%" height="100%" requiredFeatures="http://www.w3.org/TR/SVG11/feature#Extensibility"><div xmlns="http://www.w3.org/1999/xhtml" style="display: flex; align-items: unsafe flex-start; justify-content: unsafe center; width: 1px; height: 1px; padding-top: 171px; margin-left: 679px;"><div style="box-sizing: border-box; font-size: 0; text-align: center; "><div style="display: inline-block; font-size: 14px; font-family: PingFangSC-Regular; color: #252525; line-height: 1.2; pointer-events: none; white-space: nowrap; ">推理结果</div></div></div></foreignObject><text x="679" y="185" fill="#252525" font-family="PingFangSC-Regular" font-size="14px" text-anchor="middle">[Not supported by viewer]</text></switch></g></g></svg>