<svg xmlns="http://www.w3.org/2000/svg" version="1.1" data-width="713" data-height="341" class="icms-hetu-svg" width="713" height="341"><defs /><g transform="translate(0.5,0.5)"><path d="M 179 216 L 179 294 L 322.88 294" fill="none" stroke="#595959" stroke-miterlimit="10" pointer-events="none" /><path d="M 329.88 294 L 322.88 297.5 L 322.88 290.5 Z" fill="#595959" stroke="#595959" stroke-miterlimit="10" pointer-events="none" /><g><switch><foreignObject style="overflow: visible; text-align: left;" pointer-events="none" width="100%" height="100%" requiredFeatures="http://www.w3.org/TR/SVG11/feature#Extensibility"><div xmlns="http://www.w3.org/1999/xhtml" style="display: flex; align-items: unsafe center; justify-content: unsafe center; width: 1px; height: 1px; padding-top: 293px; margin-left: 245px;"><div style="box-sizing: border-box; font-size: 0; text-align: center; "><div style="display: inline-block; font-size: 12px; font-family: PingFangSC-Regular; color: #595959; line-height: 1.2; pointer-events: none; background-color: #ffffff; white-space: nowrap; ">触发函数执行</div></div></div></foreignObject><text x="245" y="296" fill="#595959" font-family="PingFangSC-Regular" font-size="12px" text-anchor="middle">[Not supported by viewer]</text></switch></g><rect x="161" y="148" width="36" height="36" fill-opacity="0" fill="#ffffff" stroke="none" pointer-events="none" /><rect x="161" y="148" width="0" height="0" fill="none" stroke="#000000" stroke-width="2" pointer-events="none" /><path d="M 179.17 154.67 C 182.1 154.67 184.48 156.9 184.48 159.66 C 184.48 160.46 184.28 161.25 183.89 161.95 L 188.18 165.09 C 188.74 164.72 189.39 164.53 190.06 164.53 C 191.87 164.53 193.34 165.91 193.34 167.6 C 193.34 169.3 191.87 170.68 190.06 170.68 C 188.26 170.68 186.79 169.3 186.79 167.6 C 186.79 167.22 186.87 166.85 187 166.52 L 182.7 163.38 C 181.96 164 181.08 164.41 180.13 164.57 L 180.13 169.36 C 182.04 169.77 183.47 171.37 183.47 173.29 C 183.47 175.52 181.54 177.33 179.17 177.33 C 176.79 177.33 174.87 175.52 174.87 173.29 C 174.87 171.37 176.29 169.77 178.21 169.36 L 178.21 164.57 C 177.26 164.41 176.37 164 175.63 163.38 L 171.33 166.52 C 171.47 166.85 171.55 167.22 171.55 167.6 C 171.55 169.3 170.08 170.68 168.27 170.68 C 166.47 170.68 165 169.3 165 167.6 C 165 165.91 166.47 164.53 168.27 164.53 C 168.97 164.53 169.62 164.74 170.15 165.09 L 174.45 161.95 C 174.06 161.25 173.86 160.46 173.86 159.66 C 173.86 156.9 176.24 154.67 179.17 154.67 Z" fill="#1366ec" stroke="none" pointer-events="none" /><g><switch><foreignObject style="overflow: visible; text-align: left;" pointer-events="none" width="100%" height="100%" requiredFeatures="http://www.w3.org/TR/SVG11/feature#Extensibility"><div xmlns="http://www.w3.org/1999/xhtml" style="display: flex; align-items: unsafe flex-start; justify-content: unsafe center; width: 1px; height: 1px; padding-top: 195px; margin-left: 179px;"><div style="box-sizing: border-box; font-size: 0; text-align: center; "><div style="display: inline-block; font-size: 14px; font-family: PingFangSC-Regular; color: #252525; line-height: 1.2; pointer-events: none; white-space: nowrap; ">A</div></div></div></foreignObject><text x="179" y="209" fill="#252525" font-family="PingFangSC-Regular" font-size="14px" text-anchor="middle">[Not supported by viewer]</text></switch></g><path d="M 532 164 L 341 164 L 341 74.12" fill="none" stroke="#595959" stroke-miterlimit="10" pointer-events="none" /><path d="M 341 67.12 L 344.5 74.12 L 337.5 74.12 Z" fill="#595959" stroke="#595959" stroke-miterlimit="10" pointer-events="none" /><g><switch><foreignObject style="overflow: visible; text-align: left;" pointer-events="none" width="100%" height="100%" requiredFeatures="http://www.w3.org/TR/SVG11/feature#Extensibility"><div xmlns="http://www.w3.org/1999/xhtml" style="display: flex; align-items: unsafe center; justify-content: unsafe center; width: 1px; height: 1px; padding-top: 165px; margin-left: 436px;"><div style="box-sizing: border-box; font-size: 0; text-align: center; "><div style="display: inline-block; font-size: 12px; font-family: PingFangSC-Regular; color: #595959; line-height: 1.2; pointer-events: none; background-color: #ffffff; white-space: nowrap; ">直接从 B 读取有用信息统计展示</div></div></div></foreignObject><text x="436" y="168" fill="#595959" font-family="PingFangSC-Regular" font-size="12px" text-anchor="middle">[Not supported by viewer]</text></switch></g><rect x="532" y="146" width="36" height="36" fill-opacity="0" fill="#ffffff" stroke="none" pointer-events="none" /><rect x="532" y="146" width="0" height="0" fill="none" stroke="#000000" stroke-width="2" pointer-events="none" /><path d="M 550.17 152.67 C 553.1 152.67 555.48 154.9 555.48 157.66 C 555.48 158.46 555.28 159.25 554.89 159.95 L 559.18 163.09 C 559.74 162.72 560.39 162.53 561.06 162.53 C 562.87 162.53 564.34 163.91 564.34 165.6 C 564.34 167.3 562.87 168.68 561.06 168.68 C 559.26 168.68 557.79 167.3 557.79 165.6 C 557.79 165.22 557.87 164.85 558 164.52 L 553.7 161.38 C 552.96 162 552.08 162.41 551.13 162.57 L 551.13 167.36 C 553.04 167.77 554.47 169.37 554.47 171.29 C 554.47 173.52 552.54 175.33 550.17 175.33 C 547.79 175.33 545.87 173.52 545.87 171.29 C 545.87 169.37 547.29 167.77 549.21 167.36 L 549.21 162.57 C 548.26 162.41 547.37 162 546.63 161.38 L 542.33 164.52 C 542.47 164.85 542.55 165.22 542.55 165.6 C 542.55 167.3 541.08 168.68 539.27 168.68 C 537.47 168.68 536 167.3 536 165.6 C 536 163.91 537.47 162.53 539.27 162.53 C 539.97 162.53 540.62 162.74 541.15 163.09 L 545.45 159.95 C 545.06 159.25 544.86 158.46 544.86 157.66 C 544.86 154.9 547.24 152.67 550.17 152.67 Z" fill="#1366ec" stroke="none" pointer-events="none" /><g><switch><foreignObject style="overflow: visible; text-align: left;" pointer-events="none" width="100%" height="100%" requiredFeatures="http://www.w3.org/TR/SVG11/feature#Extensibility"><div xmlns="http://www.w3.org/1999/xhtml" style="display: flex; align-items: unsafe flex-start; justify-content: unsafe center; width: 1px; height: 1px; padding-top: 193px; margin-left: 550px;"><div style="box-sizing: border-box; font-size: 0; text-align: center; "><div style="display: inline-block; font-size: 14px; font-family: PingFangSC-Regular; color: #252525; line-height: 1.2; pointer-events: none; white-space: nowrap; ">B</div></div></div></foreignObject><text x="550" y="207" fill="#252525" font-family="PingFangSC-Regular" font-size="14px" text-anchor="middle">[Not supported by viewer]</text></switch></g><path d="M 362 292.99 L 362 294 L 551 294 L 551 224.12" fill="none" stroke="#595959" stroke-miterlimit="10" pointer-events="none" /><path d="M 551 217.12 L 554.5 224.12 L 547.5 224.12 Z" fill="#595959" stroke="#595959" stroke-miterlimit="10" pointer-events="none" /><g><switch><foreignObject style="overflow: visible; text-align: left;" pointer-events="none" width="100%" height="100%" requiredFeatures="http://www.w3.org/TR/SVG11/feature#Extensibility"><div xmlns="http://www.w3.org/1999/xhtml" style="display: flex; align-items: unsafe center; justify-content: unsafe center; width: 1px; height: 1px; padding-top: 295px; margin-left: 454px;"><div style="box-sizing: border-box; font-size: 0; text-align: center; "><div style="display: inline-block; font-size: 12px; font-family: PingFangSC-Regular; color: #595959; line-height: 1.2; pointer-events: none; background-color: #ffffff; white-space: nowrap; ">将清洗后的数据保存至 B</div></div></div></foreignObject><text x="454" y="298" fill="#595959" font-family="PingFangSC-Regular" font-size="12px" text-anchor="middle">[Not supported by viewer]</text></switch></g><g><switch><foreignObject style="overflow: visible; text-align: left;" pointer-events="none" width="100%" height="100%" requiredFeatures="http://www.w3.org/TR/SVG11/feature#Extensibility"><div xmlns="http://www.w3.org/1999/xhtml" style="display: flex; align-items: unsafe center; justify-content: unsafe flex-start; width: 128px; height: 1px; padding-top: 285px; margin-left: 583px;"><div style="box-sizing: border-box; font-size: 0; text-align: left; "><div style="display: inline-block; font-size: 12px; font-family: PingFangSC-Regular; color: #595959; line-height: 1.2; pointer-events: none; white-space: normal; word-wrap: normal; ">A：原始 Table<br style="font-size: 12px;" />B：处理后的 Table</div></div></div></foreignObject><text x="583" y="289" fill="#595959" font-family="PingFangSC-Regular" font-size="12px">[Not supported by viewer]</text></switch></g><path d="M 61 164 L 152.88 163.99" fill="none" stroke="#595959" stroke-miterlimit="10" pointer-events="none" /><path d="M 159.88 163.98 L 152.88 167.49 L 152.88 160.49 Z" fill="#595959" stroke="#595959" stroke-miterlimit="10" pointer-events="none" /><g><switch><foreignObject style="overflow: visible; text-align: left;" pointer-events="none" width="100%" height="100%" requiredFeatures="http://www.w3.org/TR/SVG11/feature#Extensibility"><div xmlns="http://www.w3.org/1999/xhtml" style="display: flex; align-items: unsafe center; justify-content: unsafe flex-start; width: 68px; height: 1px; padding-top: 164px; margin-left: 3px;"><div style="box-sizing: border-box; font-size: 0; text-align: left; "><div style="display: inline-block; font-size: 14px; font-family: PingFangSC-Regular; color: #252525; line-height: 1.2; pointer-events: none; white-space: normal; word-wrap: normal; ">各种数据采集源</div></div></div></foreignObject><text x="3" y="168" fill="#252525" font-family="PingFangSC-Regular" font-size="14px">[Not supported by viewer]</text></switch></g><rect x="323" y="2" width="36" height="36" fill-opacity="0" fill="#ffffff" stroke="none" pointer-events="none" /><rect x="323" y="2" width="0" height="0" fill="none" stroke="#000000" stroke-width="2" pointer-events="none" /><path d="M 352.96 11 L 352.96 24.99 L 329 24.99 L 329 11 Z M 354.96 9 L 327 9 L 327 26.99 L 354.96 26.99 Z M 334.97 28.99 L 346.95 28.99 L 346.95 31 L 334.97 31 Z" fill="#252525" stroke="none" pointer-events="none" /><g><switch><foreignObject style="overflow: visible; text-align: left;" pointer-events="none" width="100%" height="100%" requiredFeatures="http://www.w3.org/TR/SVG11/feature#Extensibility"><div xmlns="http://www.w3.org/1999/xhtml" style="display: flex; align-items: unsafe flex-start; justify-content: unsafe center; width: 1px; height: 1px; padding-top: 49px; margin-left: 341px;"><div style="box-sizing: border-box; font-size: 0; text-align: center; "><div style="display: inline-block; font-size: 14px; font-family: PingFangSC-Regular; color: #252525; line-height: 1.2; pointer-events: none; white-space: nowrap; ">客户端 WebAPP</div></div></div></foreignObject><text x="341" y="63" fill="#252525" font-family="PingFangSC-Regular" font-size="14px" text-anchor="middle">[Not supported by viewer]</text></switch></g><rect x="331" y="276" width="36" height="36" fill-opacity="0" fill="#ffffff" stroke="none" pointer-events="none" /><rect x="331" y="276" width="0" height="0" fill="none" stroke="#000000" stroke-width="2" pointer-events="none" /><path d="M 340.8 287.1 L 342.42 288.73 L 335.99 295.16 L 334.36 293.54 Z M 334.36 293.55 L 335.99 291.93 L 342.42 298.37 L 340.8 299.99 Z M 355.42 299.99 L 353.8 298.37 L 360.24 291.93 L 361.86 293.55 Z M 361.86 293.54 L 360.24 295.16 L 353.8 288.73 L 355.42 287.1 Z M 352.37 282.25 L 353.18 283.06 L 341.87 294.36 L 341.06 293.55 Z M 346.67 297.57 L 345.86 298.38 L 341.03 293.56 L 341.84 292.75 Z M 348.3 294.35 L 349.11 295.17 L 345.89 298.38 L 345.08 297.57 Z M 353.56 283.88 C 352.45 283.88 351.55 282.99 351.55 281.89 C 351.55 280.79 352.45 279.9 353.56 279.9 C 354.66 279.9 355.56 280.79 355.56 281.89 C 355.56 282.99 354.66 283.88 353.56 283.88 Z M 353.56 281.04 C 353.08 281.04 352.69 281.42 352.69 281.89 C 352.69 282.36 353.08 282.74 353.56 282.74 C 354.03 282.74 354.42 282.36 354.42 281.89 C 354.42 281.42 354.03 281.04 353.56 281.04 Z M 343.84 304.87 L 343.03 304.05 L 354.33 292.75 L 355.14 293.56 Z M 349.54 289.54 L 350.35 288.73 L 355.17 293.55 L 354.36 294.36 Z M 347.91 292.76 L 347.09 291.95 L 350.31 288.73 L 351.12 289.54 Z M 342.65 303.23 C 343.76 303.23 344.66 304.12 344.66 305.22 C 344.66 306.32 343.76 307.21 342.65 307.21 C 341.54 307.21 340.64 306.32 340.64 305.22 C 340.64 304.12 341.54 303.23 342.65 303.23 Z M 342.65 306.07 C 343.13 306.07 343.51 305.69 343.51 305.22 C 343.51 304.75 343.13 304.37 342.65 304.37 C 342.18 304.37 341.79 304.75 341.79 305.22 C 341.79 305.69 342.18 306.07 342.65 306.07 Z" fill="#1366ec" stroke="none" pointer-events="none" /><g><switch><foreignObject style="overflow: visible; text-align: left;" pointer-events="none" width="100%" height="100%" requiredFeatures="http://www.w3.org/TR/SVG11/feature#Extensibility"><div xmlns="http://www.w3.org/1999/xhtml" style="display: flex; align-items: unsafe flex-start; justify-content: unsafe center; width: 1px; height: 1px; padding-top: 323px; margin-left: 349px;"><div style="box-sizing: border-box; font-size: 0; text-align: center; "><div style="display: inline-block; font-size: 14px; font-family: PingFangSC-Regular; color: #252525; line-height: 1.2; pointer-events: none; white-space: nowrap; ">函数计算</div></div></div></foreignObject><text x="349" y="337" fill="#252525" font-family="PingFangSC-Regular" font-size="14px" text-anchor="middle">[Not supported by viewer]</text></switch></g></g></svg>