<svg xmlns="http://www.w3.org/2000/svg" version="1.1" data-width="730" data-height="186" class="icms-hetu-svg" width="730" height="186"><defs /><g transform="translate(0.5,0.5)"><rect x="568" y="3" width="160" height="86" fill="#ffffff" stroke="#8c8c8c" stroke-dasharray="3 3" pointer-events="none" /><rect x="238" y="4" width="182" height="180" fill="#ffffff" stroke="#8c8c8c" stroke-dasharray="3 3" pointer-events="none" /><rect x="1" y="69" width="120" height="50" fill="#ffffff" stroke="#d9d9d9" pointer-events="none" /><rect x="18" y="79" width="30" height="30" fill-opacity="0" fill="#ffffff" stroke="none" pointer-events="none" /><rect x="18" y="79" width="0" height="0" fill="none" stroke="#000000" stroke-width="2" pointer-events="none" /><path d="M 43 105.67 L 41.33 105.67 L 41.33 99.83 C 41.33 98.45 40.21 97.33 38.83 97.33 L 27.17 97.33 C 25.79 97.33 24.67 98.45 24.67 99.83 L 24.67 105.67 L 23 105.67 L 23 99.83 C 23 97.53 24.87 95.67 27.17 95.67 L 38.83 95.67 C 41.13 95.67 43 97.53 43 99.83 Z M 33 94 C 30.64 94 28.51 92.58 27.61 90.4 C 26.71 88.22 27.21 85.71 28.88 84.04 C 30.54 82.37 33.05 81.87 35.23 82.78 C 37.41 83.68 38.83 85.81 38.83 88.17 C 38.83 91.39 36.22 94 33 94 Z M 33 84 C 30.7 84 28.83 85.87 28.83 88.17 C 28.83 90.47 30.7 92.33 33 92.33 C 35.3 92.33 37.17 90.47 37.17 88.17 C 37.17 87.06 36.73 86 35.95 85.22 C 35.16 84.44 34.11 84 33 84 Z M 23.83 104 L 42.17 104 L 42.17 105.67 L 23.83 105.67 Z" fill="#252525" stroke="none" pointer-events="none" /><path d="M 121 84 L 179.5 84 L 179.5 83.9 L 229.88 83.92" fill="none" stroke="#595959" stroke-miterlimit="10" pointer-events="none" /><path d="M 236.88 83.92 L 229.88 87.42 L 229.88 80.42 Z" fill="#595959" stroke="#595959" stroke-miterlimit="10" pointer-events="none" /><g><switch><foreignObject style="overflow: visible; text-align: left;" pointer-events="none" width="100%" height="100%" requiredFeatures="http://www.w3.org/TR/SVG11/feature#Extensibility"><div xmlns="http://www.w3.org/1999/xhtml" style="display: flex; align-items: unsafe center; justify-content: unsafe center; width: 1px; height: 1px; padding-top: 85px; margin-left: 171px;"><div style="box-sizing: border-box; font-size: 0; text-align: center; "><div style="display: inline-block; font-size: 10px; font-family: PingFangSC-Regular; color: #595959; line-height: 1.2; pointer-events: none; background-color: #ffffff; white-space: nowrap; ">输入提示语</div></div></div></foreignObject><text x="171" y="88" fill="#595959" font-family="PingFangSC-Regular" font-size="10px" text-anchor="middle">[Not supported by viewer]</text></switch></g><rect x="248" y="9" width="30" height="30" fill-opacity="0" fill="#ffffff" stroke="none" pointer-events="none" /><rect x="248" y="9" width="0" height="0" fill="none" stroke="#000000" stroke-width="2" pointer-events="none" /><path d="M 256.17 18.25 L 257.52 19.61 L 252.16 24.97 L 250.8 23.62 Z M 250.8 23.63 L 252.16 22.27 L 257.52 27.64 L 256.17 28.99 Z M 268.35 28.99 L 267 27.64 L 272.37 22.27 L 273.72 23.63 Z M 273.72 23.62 L 272.37 24.97 L 267 19.61 L 268.35 18.25 Z M 265.81 14.21 L 266.48 14.88 L 257.06 24.3 L 256.38 23.63 Z M 261.06 26.98 L 260.38 27.65 L 256.36 23.63 L 257.03 22.96 Z M 262.42 24.29 L 263.09 24.98 L 260.41 27.65 L 259.73 26.98 Z M 266.8 15.57 C 265.88 15.57 265.13 14.82 265.13 13.91 C 265.13 12.99 265.88 12.25 266.8 12.25 C 267.72 12.25 268.47 12.99 268.47 13.91 C 268.47 14.82 267.72 15.57 266.8 15.57 Z M 266.8 13.2 C 266.4 13.2 266.07 13.52 266.07 13.91 C 266.07 14.3 266.4 14.62 266.8 14.62 C 267.19 14.62 267.52 14.3 267.52 13.91 C 267.52 13.52 267.19 13.2 266.8 13.2 Z M 258.7 33.06 L 258.02 32.38 L 267.44 22.96 L 268.12 23.63 Z M 263.45 20.28 L 264.13 19.61 L 268.14 23.63 L 267.47 24.3 Z M 262.09 22.97 L 261.41 22.29 L 264.09 19.61 L 264.77 20.28 Z M 257.71 31.69 C 258.63 31.69 259.38 32.43 259.38 33.35 C 259.38 34.27 258.63 35.01 257.71 35.01 C 256.78 35.01 256.03 34.27 256.03 33.35 C 256.03 32.43 256.78 31.69 257.71 31.69 Z M 257.71 34.06 C 258.11 34.06 258.43 33.74 258.43 33.35 C 258.43 32.96 258.11 32.64 257.71 32.64 C 257.32 32.64 256.99 32.96 256.99 33.35 C 256.99 33.74 257.32 34.06 257.71 34.06 Z" fill="#1366ec" stroke="none" pointer-events="none" /><g><switch><foreignObject style="overflow: visible; text-align: left;" pointer-events="none" width="100%" height="100%" requiredFeatures="http://www.w3.org/TR/SVG11/feature#Extensibility"><div xmlns="http://www.w3.org/1999/xhtml" style="display: flex; align-items: unsafe center; justify-content: unsafe center; width: 58px; height: 1px; padding-top: 94px; margin-left: 49px;"><div style="box-sizing: border-box; font-size: 0; text-align: center; "><div style="display: inline-block; font-size: 14px; font-family: PingFangSC-Regular; color: #252525; line-height: 1.2; pointer-events: none; white-space: normal; word-wrap: normal; ">用户</div></div></div></foreignObject><text x="78" y="98" fill="#252525" font-family="PingFangSC-Regular" font-size="14px" text-anchor="middle">[Not supported by viewer]</text></switch></g><g><switch><foreignObject style="overflow: visible; text-align: left;" pointer-events="none" width="100%" height="100%" requiredFeatures="http://www.w3.org/TR/SVG11/feature#Extensibility"><div xmlns="http://www.w3.org/1999/xhtml" style="display: flex; align-items: unsafe center; justify-content: unsafe center; width: 68px; height: 1px; padding-top: 24px; margin-left: 279px;"><div style="box-sizing: border-box; font-size: 0; text-align: center; "><div style="display: inline-block; font-size: 14px; font-family: PingFangSC-Regular; color: #252525; line-height: 1.2; pointer-events: none; white-space: normal; word-wrap: normal; ">函数计算</div></div></div></foreignObject><text x="313" y="28" fill="#252525" font-family="PingFangSC-Regular" font-size="14px" text-anchor="middle">[Not supported by viewer]</text></switch></g><path d="M 238 94 L 420 94" fill="none" stroke="#595959" stroke-miterlimit="10" stroke-dasharray="3 3" pointer-events="none" /><rect x="263" y="49" width="132" height="30" fill="#ffffff" stroke="#8c8c8c" stroke-dasharray="3 3" pointer-events="none" /><g><switch><foreignObject style="overflow: visible; text-align: left;" pointer-events="none" width="100%" height="100%" requiredFeatures="http://www.w3.org/TR/SVG11/feature#Extensibility"><div xmlns="http://www.w3.org/1999/xhtml" style="display: flex; align-items: unsafe center; justify-content: unsafe center; width: 130px; height: 1px; padding-top: 64px; margin-left: 264px;"><div style="box-sizing: border-box; font-size: 0; text-align: center; "><div style="display: inline-block; font-size: 14px; font-family: PingFangSC-Regular; color: #252525; line-height: 1.2; pointer-events: none; white-space: normal; word-wrap: normal; ">GPT-Sovits</div></div></div></foreignObject><text x="329" y="68" fill="#252525" font-family="PingFangSC-Regular" font-size="14px" text-anchor="middle">[Not supported by viewer]</text></switch></g><rect x="263" y="129" width="132" height="30" fill="#ffffff" stroke="#8c8c8c" stroke-dasharray="3 3" pointer-events="none" /><g><switch><foreignObject style="overflow: visible; text-align: left;" pointer-events="none" width="100%" height="100%" requiredFeatures="http://www.w3.org/TR/SVG11/feature#Extensibility"><div xmlns="http://www.w3.org/1999/xhtml" style="display: flex; align-items: unsafe center; justify-content: unsafe center; width: 130px; height: 1px; padding-top: 144px; margin-left: 264px;"><div style="box-sizing: border-box; font-size: 0; text-align: center; "><div style="display: inline-block; font-size: 14px; font-family: PingFangSC-Regular; color: #252525; line-height: 1.2; pointer-events: none; white-space: normal; word-wrap: normal; ">函数计算GPU资源</div></div></div></foreignObject><text x="329" y="148" fill="#252525" font-family="PingFangSC-Regular" font-size="14px" text-anchor="middle">[Not supported by viewer]</text></switch></g><path d="M 238 103.9 L 179.5 103.9 L 179.5 104 L 128.52 103.96" fill="none" stroke="#595959" stroke-miterlimit="10" pointer-events="none" /><path d="M 121.52 103.95 L 128.52 100.46 L 128.52 107.46 Z" fill="#595959" stroke="#595959" stroke-miterlimit="10" pointer-events="none" /><g><switch><foreignObject style="overflow: visible; text-align: left;" pointer-events="none" width="100%" height="100%" requiredFeatures="http://www.w3.org/TR/SVG11/feature#Extensibility"><div xmlns="http://www.w3.org/1999/xhtml" style="display: flex; align-items: unsafe center; justify-content: unsafe center; width: 1px; height: 1px; padding-top: 104px; margin-left: 170px;"><div style="box-sizing: border-box; font-size: 0; text-align: center; "><div style="display: inline-block; font-size: 10px; font-family: PingFangSC-Regular; color: #595959; line-height: 1.2; pointer-events: none; background-color: #ffffff; white-space: nowrap; ">生成语音</div></div></div></foreignObject><text x="170" y="107" fill="#595959" font-family="PingFangSC-Regular" font-size="10px" text-anchor="middle">[Not supported by viewer]</text></switch></g><path d="M 428.3 58.54 L 499 58.5 L 588.09 59.29" fill="none" stroke="#595959" stroke-miterlimit="10" pointer-events="none" /><path d="M 421.3 58.54 L 428.3 55.04 L 428.3 62.04 Z" fill="#595959" stroke="#595959" stroke-miterlimit="10" pointer-events="none" /><g><switch><foreignObject style="overflow: visible; text-align: left;" pointer-events="none" width="100%" height="100%" requiredFeatures="http://www.w3.org/TR/SVG11/feature#Extensibility"><div xmlns="http://www.w3.org/1999/xhtml" style="display: flex; align-items: unsafe center; justify-content: unsafe center; width: 1px; height: 1px; padding-top: 57px; margin-left: 497px;"><div style="box-sizing: border-box; font-size: 0; text-align: center; "><div style="display: inline-block; font-size: 10px; font-family: PingFangSC-Regular; color: #595959; line-height: 1.2; pointer-events: none; background-color: #ffffff; white-space: nowrap; ">加载模型</div></div></div></foreignObject><text x="497" y="60" fill="#595959" font-family="PingFangSC-Regular" font-size="10px" text-anchor="middle">[Not supported by viewer]</text></switch></g><g><switch><foreignObject style="overflow: visible; text-align: left;" pointer-events="none" width="100%" height="100%" requiredFeatures="http://www.w3.org/TR/SVG11/feature#Extensibility"><div xmlns="http://www.w3.org/1999/xhtml" style="display: flex; align-items: unsafe center; justify-content: unsafe center; width: 118px; height: 1px; padding-top: 19px; margin-left: 589px;"><div style="box-sizing: border-box; font-size: 0; text-align: center; "><div style="display: inline-block; font-size: 14px; font-family: PingFangSC-Regular; color: #252525; line-height: 1.2; pointer-events: none; white-space: normal; word-wrap: normal; ">专有网络VPC</div></div></div></foreignObject><text x="648" y="23" fill="#252525" font-family="PingFangSC-Regular" font-size="14px" text-anchor="middle">[Not supported by viewer]</text></switch></g><rect x="571" y="2" width="32" height="32" fill-opacity="0" fill="#ffffff" stroke="none" pointer-events="none" /><rect x="571" y="2" width="0" height="0" fill="none" stroke="#000000" stroke-width="2" pointer-events="none" /><path d="M 584.4 13.21 L 585.22 12.88 C 585.39 13.37 585.55 13.7 585.72 14.03 L 586.04 14.03 C 587.03 14.03 587.68 14.84 587.68 15.66 L 587.68 15.83 C 588.99 16.32 591.71 17.22 591.94 17.31 C 592.27 16.65 592.92 16.16 593.75 16.16 L 593.91 16.16 C 594.05 15.44 594.21 14.73 594.4 14.03 L 593.25 14.03 C 593.25 13.86 591.94 9.11 586.87 9.11 L 585.72 9.11 C 583.1 9.6 581.62 10.75 580.96 11.89 C 582.28 12.88 583.59 13.87 584.89 14.52 C 584.73 14.03 584.57 13.7 584.4 13.21 Z M 584.24 10.26 C 584.4 10.75 584.56 11.08 584.73 11.56 L 583.92 11.89 L 583.42 10.42 L 584.24 10.26 Z M 591.12 22.05 L 591.45 22.05 C 591.94 21.24 592.27 20.58 592.6 19.76 C 592.1 19.43 591.77 18.77 591.77 18.12 C 591.49 18.04 588.66 17.14 587.19 16.65 C 587.03 17.14 586.54 17.3 586.04 17.3 C 585.06 17.3 584.4 16.48 584.4 15.66 L 584.4 15.33 C 583.1 14.52 581.95 13.7 580.64 12.71 C 580.15 14.19 580.31 15.33 580.31 15.5 C 580.31 15.5 574.9 15.83 574.08 19.76 C 573.1 24.68 578.34 26.48 580.15 26.48 L 588.01 26.48 C 588.83 25.82 589.49 25 589.98 24.19 C 589.98 24.02 589.81 23.69 589.81 23.37 C 589.81 22.54 590.47 22.05 591.12 22.05 Z M 587.84 19.59 C 587.52 19.27 587.19 18.77 587.03 18.44 L 587.68 17.96 C 587.84 18.28 588.17 18.77 588.5 19.1 L 587.84 19.59 Z M 588.66 20.75 L 589.32 20.25 C 589.65 20.58 589.81 21.07 590.14 21.4 L 589.48 21.89 C 589.16 21.56 588.83 21.24 588.66 20.75 Z M 599.97 19.27 C 598.82 19.27 597.19 19.1 595.54 18.94 C 595.22 19.6 594.56 20.09 593.75 20.09 L 593.58 20.09 C 593.25 20.91 592.76 21.72 592.43 22.54 C 592.6 22.71 592.76 23.04 592.76 23.36 C 592.76 24.18 592.1 24.68 591.45 24.68 L 591.12 24.68 C 590.63 25.33 590.14 25.82 589.65 26.48 L 593.58 26.48 C 593.75 26.48 597.84 26.48 599.81 22.71 C 599.97 21.56 600.13 20.42 599.97 19.27 Z M 593.25 26.31 L 592.27 25.33 L 592.92 24.68 L 593.91 25.65 L 593.25 26.31 Z M 599.81 18.44 C 599.31 16.32 597.68 14.68 595.21 14.19 C 595.05 14.84 594.89 15.66 594.72 16.48 C 595.21 16.81 595.54 17.3 595.71 18.12 C 597.35 18.28 598.65 18.44 599.81 18.44 Z" fill="#1366ec" stroke="none" pointer-events="none" /><rect x="588" y="49" width="126" height="30" fill="#ffffff" stroke="#d9d9d9" pointer-events="none" /><rect x="590" y="49" width="30" height="30" fill-opacity="0" fill="#ffffff" stroke="none" pointer-events="none" /><rect x="590" y="49" width="0" height="0" fill="none" stroke="#000000" stroke-width="2" pointer-events="none" /><path d="M 614.88 59.68 L 609.21 59.68 C 608.58 59.11 607.86 58.53 607.28 57.95 C 607.11 57.77 606.91 57.72 606.72 57.73 C 606.69 57.73 606.67 57.73 606.64 57.73 L 594.75 57.73 C 594.71 57.73 594.67 57.73 594.63 57.74 C 594.25 57.75 593.89 58.01 593.89 58.52 L 593.89 69.07 C 593.89 69.15 593.9 69.23 593.92 69.3 C 593.95 69.65 594.19 69.97 594.64 69.97 L 598.54 69.97 C 598.64 71.05 599.55 71.88 600.64 71.88 C 600.92 71.88 601.19 71.83 601.44 71.73 C 602.35 72.48 603.49 72.89 604.67 72.89 C 605.83 72.89 606.98 72.48 607.89 71.73 C 608.15 71.83 608.42 71.88 608.69 71.88 C 609.78 71.88 610.69 71.05 610.79 69.97 L 614.68 69.97 C 615.11 70.06 615.6 69.8 615.6 69.19 L 615.6 60.48 C 615.61 59.96 615.24 59.69 614.88 59.68 Z M 600.64 68.87 C 601.15 68.87 601.55 69.27 601.55 69.77 C 601.55 70.28 601.15 70.68 600.64 70.68 C 600.13 70.68 599.74 70.28 599.74 69.77 C 599.74 69.27 600.13 68.87 600.64 68.87 Z M 608.69 68.87 C 609.2 68.87 609.6 69.27 609.6 69.77 C 609.6 70.28 609.2 70.68 608.69 70.68 C 608.18 70.68 607.79 70.28 607.79 69.77 C 607.79 69.27 608.19 68.87 608.69 68.87 Z M 602.85 64.29 C 603.23 64.94 603.92 65.34 604.67 65.34 C 605.42 65.34 606.11 64.94 606.49 64.29 C 607.76 64.94 608.57 66.24 608.6 67.67 C 607.47 67.72 606.59 68.65 606.58 69.77 C 606.58 70.19 606.72 70.59 606.96 70.95 C 606.29 71.43 605.49 71.69 604.67 71.69 C 603.86 71.69 603.06 71.43 602.39 70.95 C 602.64 70.59 602.77 70.19 602.77 69.77 C 602.76 68.65 601.88 67.72 600.76 67.67 C 600.77 66.24 601.58 64.94 602.85 64.29 Z M 603.77 63.23 C 603.77 62.73 604.16 62.32 604.67 62.32 C 605.17 62.32 605.58 62.73 605.58 63.23 C 605.58 63.74 605.17 64.14 604.67 64.14 C 604.16 64.14 603.77 63.74 603.77 63.23 Z M 610.36 68.48 C 610.2 68.28 610.01 68.11 609.79 67.98 C 609.79 67.91 609.8 67.84 609.8 67.76 C 609.8 65.74 608.61 63.91 606.76 63.09 C 606.69 61.99 605.77 61.13 604.67 61.13 C 603.56 61.13 602.65 61.98 602.58 63.09 C 600.73 63.9 599.53 65.73 599.53 67.76 L 599.53 67.99 C 599.33 68.12 599.14 68.28 598.99 68.48 C 598.95 68.47 598.9 68.46 598.86 68.47 L 595.4 68.47 L 595.4 59.23 L 606.45 59.23 C 607.03 59.77 608.16 60.76 608.47 61.02 C 608.56 61.13 608.67 61.19 608.83 61.19 L 614.11 61.19 L 614.11 68.47 L 610.52 68.47 C 610.46 68.47 610.41 68.48 610.36 68.48 Z M 594.75 56.63 C 593.75 56.63 593.75 55.12 594.74 55.11 L 607.84 55.11 C 607.87 55.11 607.89 55.12 607.92 55.12 C 608.1 55.1 608.31 55.16 608.48 55.33 L 610.42 57.27 L 615.06 57.27 C 615.78 57.27 615.78 58.77 615.06 58.77 L 610.02 58.77 C 609.83 58.77 609.7 58.68 609.61 58.54 C 609.54 58.51 609.47 58.46 609.42 58.4 L 607.63 56.63 L 594.75 56.63 Z" fill="#1366ec" stroke="none" pointer-events="none" /><g><switch><foreignObject style="overflow: visible; text-align: left;" pointer-events="none" width="100%" height="100%" requiredFeatures="http://www.w3.org/TR/SVG11/feature#Extensibility"><div xmlns="http://www.w3.org/1999/xhtml" style="display: flex; align-items: unsafe center; justify-content: unsafe center; width: 107px; height: 1px; padding-top: 64px; margin-left: 613px;"><div style="box-sizing: border-box; font-size: 0; text-align: center; "><div style="display: inline-block; font-size: 14px; font-family: PingFangSC-Regular; color: #252525; line-height: 1.2; pointer-events: none; white-space: normal; word-wrap: normal; ">文件存储 NAS</div></div></div></foreignObject><text x="667" y="68" fill="#252525" font-family="PingFangSC-Regular" font-size="14px" text-anchor="middle">[Not supported by viewer]</text></switch></g><path d="M 420.37 71.86 L 458 71.9 L 579.88 71.52" fill="none" stroke="#595959" stroke-miterlimit="10" pointer-events="none" /><path d="M 586.88 71.5 L 579.89 75.02 L 579.87 68.02 Z" fill="#595959" stroke="#595959" stroke-miterlimit="10" pointer-events="none" /><g><switch><foreignObject style="overflow: visible; text-align: left;" pointer-events="none" width="100%" height="100%" requiredFeatures="http://www.w3.org/TR/SVG11/feature#Extensibility"><div xmlns="http://www.w3.org/1999/xhtml" style="display: flex; align-items: unsafe center; justify-content: unsafe center; width: 1px; height: 1px; padding-top: 71px; margin-left: 496px;"><div style="box-sizing: border-box; font-size: 0; text-align: center; "><div style="display: inline-block; font-size: 10px; font-family: PingFangSC-Regular; color: #595959; line-height: 1.2; pointer-events: none; background-color: #ffffff; white-space: nowrap; ">访问NAS</div></div></div></foreignObject><text x="496" y="74" fill="#595959" font-family="PingFangSC-Regular" font-size="10px" text-anchor="middle">[Not supported by viewer]</text></switch></g></g></svg>