<svg xmlns="http://www.w3.org/2000/svg" version="1.1" data-width="619" data-height="628" class="icms-hetu-svg" width="619" height="628"><defs /><g transform="translate(0.5,0.5)"><path d="M 12 61 C 12 37 12 25 37 25 C 20.33 25 20.33 1 37 1 C 53.67 1 53.67 25 37 25 C 62 25 62 37 62 61 Z" fill="#ffffff" stroke="#000000" stroke-miterlimit="10" pointer-events="none" /><path d="M 316.87 421.68 L 281.95 401 L 247.03 421.68 L 247 440.32 L 281.92 461 L 281.98 461 L 316.9 440.32 L 316.87 421.68 Z" fill="#fff" stroke="#231815" stroke-width="NaN" stroke-miterlimit="10" pointer-events="none" /><rect x="247" y="401" width="0" height="0" fill="none" stroke="#000000" stroke-width="2" pointer-events="none" /><path d="M 282.03 460.96 L 247.1 440.28 L 247.13 421.63 L 282.06 442.31 L 282.03 460.96 Z" fill="#f0efef" stroke="none" pointer-events="none" /><path d="M 282.08 460.96 L 317 440.28 L 316.97 421.63 L 282.06 442.31 L 282.08 460.96 Z" fill="#dcdddd" stroke="none" pointer-events="none" /><path d="M 316.87 421.68 L 281.95 401 L 247.03 421.68 L 247 440.32 L 281.92 461 L 281.98 461 L 316.9 440.32 L 316.87 421.68 Z" fill="none" stroke="#7f8080" stroke-width="NaN" stroke-miterlimit="10" pointer-events="none" /><rect x="247" y="401" width="0" height="0" fill="none" stroke="#000000" stroke-width="2" pointer-events="none" /><path d="M 290.22 424.29 L 290.22 422.6 L 292.63 422.6 C 292.93 422.6 293.09 422.43 293.09 422.17 L 293.09 417.73 C 293.09 417.63 293.09 417.51 293.04 417.45 C 292.98 417.35 292.86 417.35 292.69 417.35 L 290.22 417.35 L 290.22 415.66 C 290.22 415.11 289.76 414.67 289.19 414.67 L 282.82 414.67 L 282.82 413.03 L 282.87 413.03 C 284.02 412.7 284.82 411.67 284.82 410.46 C 284.82 409.75 284.53 409.05 283.97 408.6 C 283.44 408.1 282.7 407.78 282.01 407.78 C 280.45 407.78 279.2 408.99 279.2 410.46 C 279.2 411.67 280.05 412.7 281.26 413.03 L 281.32 413.03 L 281.32 414.62 L 275.29 414.62 C 274.71 414.62 274.25 415 274.25 415.61 L 274.25 417.35 L 271.44 417.35 C 271.2 417.35 270.99 417.51 270.99 417.78 L 270.99 422.22 C 270.99 422.44 271.15 422.65 271.44 422.65 L 274.25 422.65 L 274.25 424.29 C 274.25 424.57 274.36 424.79 274.6 425 C 274.83 425.22 275.05 425.33 275.34 425.33 L 281.38 425.33 L 281.38 426.86 L 281.32 426.86 C 280.11 427.19 279.26 428.28 279.26 429.44 C 279.26 430.14 279.54 430.86 280.11 431.3 C 280.63 431.8 281.38 432.11 282.06 432.11 C 283.61 432.11 284.87 430.91 284.87 429.44 C 284.87 428.23 284.08 427.25 282.92 426.92 L 282.87 426.92 L 282.87 425.28 L 289.18 425.28 C 289.76 425.28 290.22 424.84 290.22 424.29 Z M 291.66 418.61 L 291.66 421.24 L 286.6 421.24 L 286.6 418.61 L 291.66 418.61 Z M 281.08 411.34 C 280.8 411.06 280.69 410.74 280.74 410.41 C 280.74 409.75 281.38 409.14 282.06 409.14 C 282.81 409.14 283.39 409.75 283.39 410.41 C 283.39 410.79 283.22 411.11 282.99 411.34 C 282.75 411.56 282.41 411.67 282.01 411.67 C 281.67 411.67 281.32 411.55 281.08 411.34 Z M 272.47 421.19 L 272.47 418.56 L 277.59 418.56 L 277.59 421.19 L 272.47 421.19 Z M 283.39 429.44 C 283.39 429.81 283.22 430.14 282.99 430.37 C 282.75 430.59 282.41 430.7 282.01 430.7 C 281.61 430.7 281.26 430.54 281.03 430.32 C 280.87 430.14 280.74 429.81 280.74 429.44 C 280.74 428.73 281.38 428.17 282.06 428.17 C 282.81 428.17 283.39 428.73 283.39 429.44 Z M 288.72 423.86 L 275.75 423.86 L 275.75 422.6 L 278.51 422.6 C 278.8 422.6 278.96 422.43 278.96 422.17 L 278.96 417.73 C 278.96 417.51 278.8 417.3 278.51 417.3 L 275.7 417.3 L 275.7 415.94 L 288.79 415.94 L 288.79 417.3 L 285.69 417.3 C 285.46 417.3 285.23 417.45 285.23 417.73 L 285.23 422.17 C 285.23 422.39 285.4 422.6 285.69 422.6 L 288.79 422.6 L 288.79 423.86 L 288.72 423.86 Z" fill="#1366ec" stroke="none" pointer-events="none" /><rect x="457" y="161" width="160" height="320" rx="24" ry="24" fill="#ffffff" stroke="#808080" stroke-dasharray="3 3" pointer-events="none" /><rect x="470.71" y="221" width="137.14" height="140" rx="20.57" ry="20.57" fill="#ffffff" stroke="#808080" stroke-dasharray="3 3" pointer-events="none" /><ellipse cx="537" cy="26" rx="28.57142857142857" ry="25" fill="#ffce9f" stroke="#ffb570" pointer-events="none" /><g><switch><foreignObject style="overflow: visible; text-align: left;" pointer-events="none" width="100%" height="100%" requiredFeatures="http://www.w3.org/TR/SVG11/feature#Extensibility"><div xmlns="http://www.w3.org/1999/xhtml" style="display: flex; align-items: unsafe center; justify-content: unsafe center; width: 55px; height: 1px; padding-top: 26px; margin-left: 509px;"><div style="box-sizing: border-box; font-size: 0; text-align: center; "><div style="display: inline-block; font-size: 14px; font-family: PingFangSC-Regular; color: #252525; line-height: 1.2; pointer-events: none; white-space: normal; word-wrap: normal; ">Start</div></div></div></foreignObject><text x="537" y="30" fill="#252525" font-family="PingFangSC-Regular" font-size="14px" text-anchor="middle">[Not supported by viewer]</text></switch></g><rect x="491.28" y="81" width="91.43" height="40" rx="2.4" ry="2.4" fill="#d4e1f5" stroke="#7ea6e0" pointer-events="none" /><g><switch><foreignObject style="overflow: visible; text-align: left;" pointer-events="none" width="100%" height="100%" requiredFeatures="http://www.w3.org/TR/SVG11/feature#Extensibility"><div xmlns="http://www.w3.org/1999/xhtml" style="display: flex; align-items: unsafe center; justify-content: unsafe center; width: 89px; height: 1px; padding-top: 101px; margin-left: 492px;"><div style="box-sizing: border-box; font-size: 0; text-align: center; "><div style="display: inline-block; font-size: 14px; font-family: PingFangSC-Regular; color: #252525; line-height: 1.2; pointer-events: none; white-space: normal; word-wrap: normal; ">Split</div></div></div></foreignObject><text x="537" y="105" fill="#252525" font-family="PingFangSC-Regular" font-size="14px" text-anchor="middle">[Not supported by viewer]</text></switch></g><path d="M 536.9 51 L 536.9 71 L 537 71 L 537 72.88" fill="none" stroke="#595959" stroke-miterlimit="10" pointer-events="none" /><path d="M 537 79.88 L 533.5 72.88 L 540.5 72.88 Z" fill="#595959" stroke="#595959" stroke-miterlimit="10" pointer-events="none" /><path d="M 537 181 L 537 201 L 537 190 L 537 201.88" fill="none" stroke="#595959" stroke-miterlimit="10" pointer-events="none" /><path d="M 537 208.88 L 533.5 201.88 L 540.5 201.88 Z" fill="#595959" stroke="#595959" stroke-miterlimit="10" pointer-events="none" /><rect x="472" y="151" width="130" height="30" rx="1.8" ry="1.8" fill="#ffffff" stroke="#000000" stroke-dasharray="3 3" pointer-events="none" /><g><switch><foreignObject style="overflow: visible; text-align: left;" pointer-events="none" width="100%" height="100%" requiredFeatures="http://www.w3.org/TR/SVG11/feature#Extensibility"><div xmlns="http://www.w3.org/1999/xhtml" style="display: flex; align-items: unsafe center; justify-content: unsafe center; width: 128px; height: 1px; padding-top: 166px; margin-left: 473px;"><div style="box-sizing: border-box; font-size: 0; text-align: center; "><div style="display: inline-block; font-size: 14px; font-family: PingFangSC-Regular; color: #252525; line-height: 1.2; pointer-events: none; white-space: normal; word-wrap: normal; ">ParallelTranscode</div></div></div></foreignObject><text x="537" y="170" fill="#252525" font-family="PingFangSC-Regular" font-size="14px" text-anchor="middle">[Not supported by viewer]</text></switch></g><rect x="478.93" y="211" width="118.43" height="30" rx="1.8" ry="1.8" fill="#ffffff" stroke="#000000" stroke-dasharray="3 3" pointer-events="none" /><g><switch><foreignObject style="overflow: visible; text-align: left;" pointer-events="none" width="100%" height="100%" requiredFeatures="http://www.w3.org/TR/SVG11/feature#Extensibility"><div xmlns="http://www.w3.org/1999/xhtml" style="display: flex; align-items: unsafe center; justify-content: unsafe center; width: 116px; height: 1px; padding-top: 226px; margin-left: 480px;"><div style="box-sizing: border-box; font-size: 0; text-align: center; "><div style="display: inline-block; font-size: 14px; font-family: PingFangSC-Regular; color: #252525; line-height: 1.2; pointer-events: none; white-space: normal; word-wrap: normal; ">Transcode_splits</div></div></div></foreignObject><text x="538" y="230" fill="#252525" font-family="PingFangSC-Regular" font-size="14px" text-anchor="middle">[Not supported by viewer]</text></switch></g><path d="M 538.14 311 L 538.1 331 L 538.1 321 L 538.12 332.88" fill="none" stroke="#595959" stroke-miterlimit="10" pointer-events="none" /><path d="M 538.14 339.88 L 534.62 332.89 L 541.62 332.88 Z" fill="#595959" stroke="#595959" stroke-miterlimit="10" pointer-events="none" /><rect x="492.43" y="271" width="91.43" height="40" rx="2.4" ry="2.4" fill="#d4e1f5" stroke="#a9c4eb" pointer-events="none" /><g><switch><foreignObject style="overflow: visible; text-align: left;" pointer-events="none" width="100%" height="100%" requiredFeatures="http://www.w3.org/TR/SVG11/feature#Extensibility"><div xmlns="http://www.w3.org/1999/xhtml" style="display: flex; align-items: unsafe center; justify-content: unsafe center; width: 89px; height: 1px; padding-top: 291px; margin-left: 493px;"><div style="box-sizing: border-box; font-size: 0; text-align: center; "><div style="display: inline-block; font-size: 14px; font-family: PingFangSC-Regular; color: #252525; line-height: 1.2; pointer-events: none; white-space: normal; word-wrap: normal; ">Transcode</div></div></div></foreignObject><text x="538" y="295" fill="#252525" font-family="PingFangSC-Regular" font-size="14px" text-anchor="middle">[Not supported by viewer]</text></switch></g><path d="M 538.1 241 L 538.1 261 L 538.1 251 L 538.1 262.88" fill="none" stroke="#595959" stroke-miterlimit="10" pointer-events="none" /><path d="M 538.1 269.88 L 534.6 262.88 L 541.6 262.88 Z" fill="#595959" stroke="#595959" stroke-miterlimit="10" pointer-events="none" /><path d="M 538.14 431 L 538.14 452.88" fill="none" stroke="#595959" stroke-miterlimit="10" pointer-events="none" /><path d="M 538.14 459.88 L 534.64 452.88 L 541.64 452.88 Z" fill="#595959" stroke="#595959" stroke-miterlimit="10" pointer-events="none" /><rect x="492.42" y="391" width="91.43" height="40" rx="2.4" ry="2.4" fill="#d4e1f5" stroke="#a9c4eb" pointer-events="none" /><g><switch><foreignObject style="overflow: visible; text-align: left;" pointer-events="none" width="100%" height="100%" requiredFeatures="http://www.w3.org/TR/SVG11/feature#Extensibility"><div xmlns="http://www.w3.org/1999/xhtml" style="display: flex; align-items: unsafe center; justify-content: unsafe center; width: 89px; height: 1px; padding-top: 411px; margin-left: 493px;"><div style="box-sizing: border-box; font-size: 0; text-align: center; "><div style="display: inline-block; font-size: 14px; font-family: PingFangSC-Regular; color: #252525; line-height: 1.2; pointer-events: none; white-space: normal; word-wrap: normal; ">Merge</div></div></div></foreignObject><text x="538" y="415" fill="#252525" font-family="PingFangSC-Regular" font-size="14px" text-anchor="middle">[Not supported by viewer]</text></switch></g><rect x="480.99" y="506" width="116.57" height="40" rx="2.4" ry="2.4" fill="#d4e1f5" stroke="#a9c4eb" pointer-events="none" /><g><switch><foreignObject style="overflow: visible; text-align: left;" pointer-events="none" width="100%" height="100%" requiredFeatures="http://www.w3.org/TR/SVG11/feature#Extensibility"><div xmlns="http://www.w3.org/1999/xhtml" style="display: flex; align-items: unsafe center; justify-content: unsafe center; width: 115px; height: 1px; padding-top: 526px; margin-left: 482px;"><div style="box-sizing: border-box; font-size: 0; text-align: center; "><div style="display: inline-block; font-size: 14px; font-family: PingFangSC-Regular; color: #252525; line-height: 1.2; pointer-events: none; white-space: normal; word-wrap: normal; ">after-process</div></div></div></foreignObject><text x="539" y="530" fill="#252525" font-family="PingFangSC-Regular" font-size="14px" text-anchor="middle">[Not supported by viewer]</text></switch></g><ellipse cx="536.99" cy="601" rx="28.57142857142857" ry="25" fill="#ffce9f" stroke="#ffb570" pointer-events="none" /><g><switch><foreignObject style="overflow: visible; text-align: left;" pointer-events="none" width="100%" height="100%" requiredFeatures="http://www.w3.org/TR/SVG11/feature#Extensibility"><div xmlns="http://www.w3.org/1999/xhtml" style="display: flex; align-items: unsafe center; justify-content: unsafe center; width: 55px; height: 1px; padding-top: 601px; margin-left: 509px;"><div style="box-sizing: border-box; font-size: 0; text-align: center; "><div style="display: inline-block; font-size: 14px; font-family: PingFangSC-Regular; color: #252525; line-height: 1.2; pointer-events: none; white-space: normal; word-wrap: normal; ">End</div></div></div></foreignObject><text x="537" y="605" fill="#252525" font-family="PingFangSC-Regular" font-size="14px" text-anchor="middle">[Not supported by viewer]</text></switch></g><path d="M 538 360 L 538 371 L 538.08 382.88" fill="none" stroke="#595959" stroke-miterlimit="10" pointer-events="none" /><path d="M 538.13 389.88 L 534.58 382.91 L 541.58 382.86 Z" fill="#595959" stroke="#595959" stroke-miterlimit="10" pointer-events="none" /><path d="M 536.42 131 L 536.4 121 L 536.63 142.88" fill="none" stroke="#595959" stroke-miterlimit="10" pointer-events="none" /><path d="M 536.7 149.88 L 533.13 142.92 L 540.13 142.85 Z" fill="#595959" stroke="#595959" stroke-miterlimit="10" pointer-events="none" /><path d="M 539 481 L 539 502 L 539 497.88" fill="none" stroke="#595959" stroke-miterlimit="10" pointer-events="none" /><path d="M 539 504.88 L 535.5 497.88 L 542.5 497.88 Z" fill="#595959" stroke="#595959" stroke-miterlimit="10" pointer-events="none" /><path d="M 538.7 546 L 538.7 567.88" fill="none" stroke="#595959" stroke-miterlimit="10" pointer-events="none" /><path d="M 538.7 574.88 L 535.2 567.88 L 542.2 567.88 Z" fill="#595959" stroke="#595959" stroke-miterlimit="10" pointer-events="none" /><ellipse cx="538.14" cy="346" rx="5" ry="5" fill="#ffffff" stroke="#000000" pointer-events="none" /><ellipse cx="538.14" cy="466" rx="5" ry="5" fill="#ffffff" stroke="#000000" pointer-events="none" /><path d="M 36.5 71 L 36.97 174.63" fill="none" stroke="#595959" stroke-miterlimit="10" pointer-events="none" /><path d="M 36.99 179.88 L 33.46 172.9 L 36.97 174.63 L 40.46 172.87 Z" fill="#595959" stroke="#595959" stroke-miterlimit="10" pointer-events="none" /><path d="M 87 221 L 230.63 221" fill="none" stroke="#595959" stroke-miterlimit="10" pointer-events="none" /><path d="M 235.88 221 L 228.88 224.5 L 230.63 221 L 228.88 217.5 Z" fill="#595959" stroke="#595959" stroke-miterlimit="10" pointer-events="none" /><path d="M 282 283 L 282 384.63" fill="none" stroke="#595959" stroke-miterlimit="10" pointer-events="none" /><path d="M 282 389.88 L 278.5 382.88 L 282 384.63 L 285.5 382.88 Z" fill="#595959" stroke="#595959" stroke-miterlimit="10" pointer-events="none" /><path d="M 327 431 L 340 421 L 340 428 L 434 428 L 434 421 L 447 431 L 434 441 L 434 434 L 340 434 L 340 441 Z" fill="#ffffff" stroke="#808080" stroke-miterlimit="10" pointer-events="none" /><path d="M 497 601 L 47 601 Q 37 601 37 591 L 37 289.37" fill="none" stroke="#595959" stroke-miterlimit="10" pointer-events="none" /><path d="M 37 284.12 L 40.5 291.12 L 37 289.37 L 33.5 291.12 Z" fill="#595959" stroke="#595959" stroke-miterlimit="10" pointer-events="none" /><g><switch><foreignObject style="overflow: visible; text-align: left;" pointer-events="none" width="100%" height="100%" requiredFeatures="http://www.w3.org/TR/SVG11/feature#Extensibility"><div xmlns="http://www.w3.org/1999/xhtml" style="display: flex; align-items: unsafe center; justify-content: unsafe center; width: 18px; height: 1px; padding-top: 343px; margin-left: 298px;"><div style="box-sizing: border-box; font-size: 0; text-align: center; "><div style="display: inline-block; font-size: 14px; font-family: PingFangSC-Regular; color: #252525; line-height: 1.2; pointer-events: none; white-space: normal; word-wrap: normal; ">函数调用流程</div></div></div></foreignObject><text x="307" y="347" fill="#252525" font-family="PingFangSC-Regular" font-size="14px" text-anchor="middle">[Not supported by viewer]</text></switch></g><path d="M 71.87 211.68 L 36.95 191 L 2.03 211.68 L 2 230.32 L 36.92 251 L 36.98 251 L 71.9 230.32 L 71.87 211.68 Z" fill="#fff" stroke="#231815" stroke-width="NaN" stroke-miterlimit="10" pointer-events="none" /><rect x="2" y="191" width="0" height="0" fill="none" stroke="#000000" stroke-width="2" pointer-events="none" /><path d="M 37.03 250.96 L 2.1 230.28 L 2.13 211.63 L 37.06 232.31 L 37.03 250.96 Z" fill="#f0efef" stroke="none" pointer-events="none" /><path d="M 37.08 250.96 L 72 230.28 L 71.97 211.63 L 37.06 232.31 L 37.08 250.96 Z" fill="#dcdddd" stroke="none" pointer-events="none" /><path d="M 71.87 211.68 L 36.95 191 L 2.03 211.68 L 2 230.32 L 36.92 251 L 36.98 251 L 71.9 230.32 L 71.87 211.68 Z" fill="none" stroke="#7f8080" stroke-width="NaN" stroke-miterlimit="10" pointer-events="none" /><rect x="2" y="191" width="0" height="0" fill="none" stroke="#000000" stroke-width="2" pointer-events="none" /><path d="M 39.98 201.17 C 35.8 201.17 32.29 203.91 31.35 207.63 C 31.26 207.63 31.18 207.63 31.09 207.61 C 28.04 207.61 25.57 209.96 25.57 212.86 C 25.57 214.25 26.15 215.59 27.19 216.57 C 28.22 217.55 29.62 218.1 31.09 218.1 C 32.54 218.1 33.95 217.55 34.98 216.55 C 35.85 215.72 36.33 214.62 36.47 213.4 L 34.47 213.25 C 34.02 213.2 33.88 212.88 34.15 212.53 L 37.53 208.56 C 37.81 208.22 38.18 208.26 38.36 208.65 L 40.28 213.11 C 40.46 213.52 40.23 213.79 39.78 213.75 L 38.29 213.61 C 38.12 215.09 37.43 216.39 36.44 217.43 C 37.56 217.89 38.76 218.13 39.98 218.13 C 44.9 218.13 48.89 214.34 48.89 209.64 C 48.89 204.96 44.9 201.17 39.98 201.17 Z" fill="#1366ec" stroke="none" pointer-events="none" /><rect x="17" y="256" width="40" height="20" fill="#ffffff" stroke="#000000" pointer-events="none" /><g><switch><foreignObject style="overflow: visible; text-align: left;" pointer-events="none" width="100%" height="100%" requiredFeatures="http://www.w3.org/TR/SVG11/feature#Extensibility"><div xmlns="http://www.w3.org/1999/xhtml" style="display: flex; align-items: unsafe center; justify-content: unsafe center; width: 38px; height: 1px; padding-top: 266px; margin-left: 18px;"><div style="box-sizing: border-box; font-size: 0; text-align: center; "><div style="display: inline-block; font-size: 14px; font-family: PingFangSC-Regular; color: #252525; line-height: 1.2; pointer-events: none; white-space: normal; word-wrap: normal; ">OSS</div></div></div></foreignObject><text x="37" y="270" fill="#252525" font-family="PingFangSC-Regular" font-size="14px" text-anchor="middle">[Not supported by viewer]</text></switch></g><path d="M 316.87 211.68 L 281.95 191 L 247.03 211.68 L 247 230.32 L 281.92 251 L 281.98 251 L 316.9 230.32 L 316.87 211.68 Z" fill="#fff" stroke="#231815" stroke-width="NaN" stroke-miterlimit="10" pointer-events="none" /><rect x="247" y="191" width="0" height="0" fill="none" stroke="#000000" stroke-width="2" pointer-events="none" /><path d="M 282.03 250.96 L 247.1 230.28 L 247.13 211.63 L 282.06 232.31 L 282.03 250.96 Z" fill="#f0efef" stroke="none" pointer-events="none" /><path d="M 282.08 250.96 L 317 230.28 L 316.97 211.63 L 282.06 232.31 L 282.08 250.96 Z" fill="#dcdddd" stroke="none" pointer-events="none" /><path d="M 316.87 211.68 L 281.95 191 L 247.03 211.68 L 247 230.32 L 281.92 251 L 281.98 251 L 316.9 230.32 L 316.87 211.68 Z" fill="none" stroke="#7f8080" stroke-width="NaN" stroke-miterlimit="10" pointer-events="none" /><rect x="247" y="191" width="0" height="0" fill="none" stroke="#000000" stroke-width="2" pointer-events="none" /><path d="M 274.99 204.26 L 276.4 205.59 L 270.86 210.87 L 269.45 209.55 L 274.99 204.26 Z" fill="#1366ec" stroke="none" pointer-events="none" /><path d="M 269.45 209.55 L 270.85 208.23 L 276.39 213.51 L 274.99 214.84 L 269.45 209.55 Z M 287.59 214.83 L 286.2 213.51 L 291.74 208.23 L 293.14 209.55 L 287.59 214.83 Z" fill="#1366ec" stroke="none" pointer-events="none" /><path d="M 293.14 209.55 L 291.75 210.87 L 286.2 205.59 L 287.59 204.25 L 293.14 209.55 Z M 284.96 200.28 L 285.66 200.95 L 275.91 210.23 L 275.22 209.55 L 284.96 200.28 Z" fill="#1366ec" stroke="none" pointer-events="none" /><path d="M 280.05 212.85 L 279.35 213.52 L 275.2 209.55 L 275.91 208.89 L 280.05 212.85 Z" fill="#1366ec" stroke="none" pointer-events="none" /><path d="M 281.46 210.21 L 282.16 210.88 L 279.39 213.52 L 278.69 212.85 L 281.46 210.21 Z M 285.99 201.63 C 285.04 201.63 284.25 200.89 284.25 200 C 284.25 199.1 285.03 198.37 285.99 198.37 C 286.94 198.37 287.73 199.11 287.73 200 C 287.73 200.89 286.94 201.63 285.99 201.63 Z M 285.99 199.29 C 285.58 199.29 285.25 199.6 285.25 199.99 C 285.25 200.37 285.58 200.69 285.99 200.69 C 286.41 200.69 286.73 200.37 286.73 199.99 C 286.73 199.6 286.39 199.29 285.99 199.29 Z M 277.63 218.83 L 276.92 218.17 L 286.66 208.89 L 287.37 209.55 L 277.63 218.83 Z" fill="#1366ec" stroke="none" pointer-events="none" /><path d="M 282.52 206.26 L 283.22 205.59 L 287.39 209.55 L 286.68 210.23 L 282.52 206.26 Z" fill="#1366ec" stroke="none" pointer-events="none" /><path d="M 281.13 208.9 L 280.43 208.23 L 283.19 205.59 L 283.9 206.26 L 281.13 208.9 Z M 276.6 217.49 C 277.54 217.49 278.33 218.23 278.33 219.13 C 278.33 220.03 277.56 220.75 276.6 220.75 C 275.64 220.75 274.86 220.01 274.86 219.13 C 274.87 218.23 275.64 217.49 276.6 217.49 Z M 276.6 219.83 C 277.01 219.83 277.34 219.52 277.34 219.13 C 277.34 218.76 277.01 218.44 276.6 218.44 C 276.18 218.44 275.85 218.76 275.85 219.13 C 275.85 219.52 276.19 219.83 276.6 219.83 Z" fill="#1366ec" stroke="none" pointer-events="none" /><rect x="250.5" y="256" width="63" height="20" fill="#ffffff" stroke="#000000" pointer-events="none" /><g><switch><foreignObject style="overflow: visible; text-align: left;" pointer-events="none" width="100%" height="100%" requiredFeatures="http://www.w3.org/TR/SVG11/feature#Extensibility"><div xmlns="http://www.w3.org/1999/xhtml" style="display: flex; align-items: unsafe center; justify-content: unsafe center; width: 61px; height: 1px; padding-top: 266px; margin-left: 252px;"><div style="box-sizing: border-box; font-size: 0; text-align: center; "><div style="display: inline-block; font-size: 14px; font-family: PingFangSC-Regular; color: #252525; line-height: 1.2; pointer-events: none; white-space: normal; word-wrap: normal; ">函数计算</div></div></div></foreignObject><text x="282" y="270" fill="#252525" font-family="PingFangSC-Regular" font-size="14px" text-anchor="middle">[Not supported by viewer]</text></switch></g><rect x="247" y="471" width="75" height="20" fill="#ffffff" stroke="#000000" pointer-events="none" /><g><switch><foreignObject style="overflow: visible; text-align: left;" pointer-events="none" width="100%" height="100%" requiredFeatures="http://www.w3.org/TR/SVG11/feature#Extensibility"><div xmlns="http://www.w3.org/1999/xhtml" style="display: flex; align-items: unsafe center; justify-content: unsafe center; width: 73px; height: 1px; padding-top: 481px; margin-left: 248px;"><div style="box-sizing: border-box; font-size: 0; text-align: center; "><div style="display: inline-block; font-size: 14px; font-family: PingFangSC-Regular; color: #252525; line-height: 1.2; pointer-events: none; white-space: normal; word-wrap: normal; ">云工作流</div></div></div></foreignObject><text x="285" y="485" fill="#252525" font-family="PingFangSC-Regular" font-size="14px" text-anchor="middle">[Not supported by viewer]</text></switch></g><g><switch><foreignObject style="overflow: visible; text-align: left;" pointer-events="none" width="100%" height="100%" requiredFeatures="http://www.w3.org/TR/SVG11/feature#Extensibility"><div xmlns="http://www.w3.org/1999/xhtml" style="display: flex; align-items: unsafe center; justify-content: unsafe center; width: 18px; height: 1px; padding-top: 131px; margin-left: 43px;"><div style="box-sizing: border-box; font-size: 0; text-align: center; "><div style="display: inline-block; font-size: 14px; font-family: PingFangSC-Regular; color: #252525; line-height: 1.2; pointer-events: none; white-space: normal; word-wrap: normal; ">上传视频</div></div></div></foreignObject><text x="52" y="135" fill="#252525" font-family="PingFangSC-Regular" font-size="14px" text-anchor="middle">[Not supported by viewer]</text></switch></g><g><switch><foreignObject style="overflow: visible; text-align: left;" pointer-events="none" width="100%" height="100%" requiredFeatures="http://www.w3.org/TR/SVG11/feature#Extensibility"><div xmlns="http://www.w3.org/1999/xhtml" style="display: flex; align-items: unsafe center; justify-content: unsafe center; width: 88px; height: 1px; padding-top: 204px; margin-left: 118px;"><div style="box-sizing: border-box; font-size: 0; text-align: center; "><div style="display: inline-block; font-size: 14px; font-family: PingFangSC-Regular; color: #252525; line-height: 1.2; pointer-events: none; white-space: normal; word-wrap: normal; ">自动触发函数</div></div></div></foreignObject><text x="162" y="208" fill="#252525" font-family="PingFangSC-Regular" font-size="14px" text-anchor="middle">[Not supported by viewer]</text></switch></g></g></svg>