<svg xmlns="http://www.w3.org/2000/svg" version="1.1" data-width="1206" data-height="683" class="icms-hetu-svg" width="1206" height="683"><defs /><g transform="translate(0.5,0.5)"><rect x="63" y="71" width="660" height="380" fill="none" stroke="#d9d9d9" pointer-events="none" /><path d="M 512 568 L 512 426.12" fill="none" stroke="#595959" stroke-miterlimit="10" pointer-events="none" /><path d="M 512 419.12 L 515.5 426.12 L 508.5 426.12 Z" fill="#595959" stroke="#595959" stroke-miterlimit="10" pointer-events="none" /><rect x="474.75" y="581" width="66.5" height="66.5" fill-opacity="0" fill="#ffffff" stroke="none" pointer-events="none" /><rect x="474.75" y="581" width="0" height="0" fill="none" stroke="#000000" stroke-width="2" pointer-events="none" /><path d="M 492.85 601.5 L 495.85 604.52 L 483.97 616.39 L 480.96 613.4 Z M 480.96 613.42 L 483.97 610.43 L 495.85 622.32 L 492.85 625.31 Z M 519.86 625.31 L 516.87 622.32 L 528.76 610.43 L 531.76 613.42 Z M 531.76 613.4 L 528.76 616.39 L 516.87 604.52 L 519.86 601.5 Z M 514.23 592.55 L 515.72 594.04 L 494.83 614.91 L 493.33 613.42 Z M 503.7 620.84 L 502.2 622.34 L 493.28 613.44 L 494.77 611.94 Z M 506.71 614.9 L 508.2 616.41 L 502.26 622.34 L 500.76 620.84 Z M 516.42 595.56 C 514.37 595.56 512.71 593.91 512.71 591.88 C 512.71 589.85 514.37 588.2 516.42 588.2 C 518.46 588.2 520.12 589.85 520.12 591.88 C 520.12 593.91 518.46 595.56 516.42 595.56 Z M 516.42 590.31 C 515.54 590.31 514.82 591.01 514.82 591.88 C 514.82 592.75 515.54 593.45 516.42 593.45 C 517.29 593.45 518.01 592.75 518.01 591.88 C 518.01 591.01 517.29 590.31 516.42 590.31 Z M 498.47 634.33 L 496.97 632.81 L 517.85 611.94 L 519.34 613.44 Z M 509 606.01 L 510.49 604.52 L 519.4 613.42 L 517.9 614.91 Z M 505.99 611.96 L 504.47 610.46 L 510.42 604.52 L 511.92 606.01 Z M 496.27 631.3 C 498.32 631.3 499.98 632.94 499.98 634.98 C 499.98 637.01 498.32 638.65 496.27 638.65 C 494.22 638.65 492.56 637.01 492.56 634.98 C 492.56 632.94 494.22 631.3 496.27 631.3 Z M 496.27 636.55 C 497.16 636.55 497.86 635.84 497.86 634.98 C 497.86 634.11 497.16 633.41 496.27 633.41 C 495.4 633.41 494.68 634.11 494.68 634.98 C 494.68 635.84 495.4 636.55 496.27 636.55 Z" fill="#1366ec" stroke="none" pointer-events="none" /><g><switch><foreignObject style="overflow: visible; text-align: left;" pointer-events="none" width="100%" height="100%" requiredFeatures="http://www.w3.org/TR/SVG11/feature#Extensibility"><div xmlns="http://www.w3.org/1999/xhtml" style="display: flex; align-items: unsafe center; justify-content: unsafe center; width: 63px; height: 1px; padding-top: 671px; margin-left: 479px;"><div style="box-sizing: border-box; font-size: 0; text-align: center; "><div style="display: inline-block; font-size: 14px; font-family: PingFangSC-Regular; color: #252525; line-height: 1.2; pointer-events: none; white-space: normal; word-wrap: normal; ">函数计算</div></div></div></foreignObject><text x="511" y="675" fill="#252525" font-family="PingFangSC-Regular" font-size="14px" text-anchor="middle">[Not supported by viewer]</text></switch></g><path d="M 1142 357.5 L 840 357.5 L 840 358 L 546.12 358" fill="none" stroke="#595959" stroke-miterlimit="10" pointer-events="none" /><path d="M 539.12 358 L 546.12 354.5 L 546.12 361.5 Z" fill="#595959" stroke="#595959" stroke-miterlimit="10" pointer-events="none" /><rect x="1142" y="327" width="61" height="61" fill-opacity="0" fill="#ffffff" stroke="none" pointer-events="none" /><rect x="1142" y="327" width="0" height="0" fill="none" stroke="#000000" stroke-width="2" pointer-events="none" /><path d="M 1172.5 354.11 C 1170.64 354.11 1169.11 352.59 1169.11 350.72 C 1169.11 348.86 1170.64 347.33 1172.5 347.33 C 1174.36 347.33 1175.89 348.86 1175.89 350.72 C 1175.89 352.59 1174.36 354.11 1172.5 354.11 M 1172.5 343.94 C 1168.76 343.94 1165.72 346.98 1165.72 350.72 C 1165.72 354.47 1168.76 357.5 1172.5 357.5 C 1176.24 357.5 1179.28 354.47 1179.28 350.72 C 1179.28 346.98 1176.24 343.94 1172.5 343.94" fill="#252525" stroke="none" pointer-events="none" /><path d="M 1186.06 372.63 L 1186.06 368.92 C 1186.05 364.49 1182.46 360.9 1178.02 360.89 L 1166.98 360.89 C 1162.54 360.9 1158.95 364.49 1158.94 368.92 L 1158.94 372.61 C 1154.79 368.9 1152.17 363.52 1152.17 357.5 C 1152.17 346.27 1161.27 337.17 1172.5 337.17 C 1183.73 337.17 1192.83 346.27 1192.83 357.5 C 1192.83 363.52 1190.21 368.9 1186.06 372.63 M 1162.33 375.09 L 1162.33 368.92 C 1162.33 367.69 1162.82 366.51 1163.69 365.64 C 1164.56 364.77 1165.74 364.28 1166.98 364.28 L 1178.02 364.28 C 1179.26 364.28 1180.44 364.77 1181.31 365.64 C 1182.18 366.51 1182.67 367.69 1182.67 368.92 L 1182.67 375.09 C 1176.38 378.75 1168.62 378.75 1162.33 375.09 M 1172.5 333.78 C 1159.42 333.78 1148.78 344.42 1148.78 357.5 C 1148.78 370.58 1159.42 381.22 1172.5 381.22 C 1185.58 381.22 1196.22 370.58 1196.22 357.5 C 1196.22 344.42 1185.58 333.78 1172.5 333.78" fill="#252525" stroke="none" pointer-events="none" /><g><switch><foreignObject style="overflow: visible; text-align: left;" pointer-events="none" width="100%" height="100%" requiredFeatures="http://www.w3.org/TR/SVG11/feature#Extensibility"><div xmlns="http://www.w3.org/1999/xhtml" style="display: flex; align-items: unsafe flex-start; justify-content: unsafe center; width: 1px; height: 1px; padding-top: 399px; margin-left: 1173px;"><div style="box-sizing: border-box; font-size: 0; text-align: center; "><div style="display: inline-block; font-size: 14px; font-family: PingFangSC-Regular; color: #252525; line-height: 1.2; pointer-events: none; white-space: nowrap; ">用户</div></div></div></foreignObject><text x="1173" y="413" fill="#252525" font-family="PingFangSC-Regular" font-size="14px" text-anchor="middle">[Not supported by viewer]</text></switch></g><rect x="122" y="321" width="74" height="74" fill="#ffffff" stroke="none" pointer-events="none" /><rect x="132.16" y="330.41" width="55.19" height="55.19" fill-opacity="0" fill="#ffffff" stroke="none" pointer-events="none" /><rect x="132.16" y="330.41" width="0" height="0" fill="none" stroke="#000000" stroke-width="2" pointer-events="none" /><path d="M 138.29 336.54 L 138.29 348.81 L 181.22 348.81 L 181.22 336.54 L 138.29 336.54 Z M 178.15 345.74 L 141.36 345.74 L 141.36 339.61 L 178.15 339.61 L 178.15 345.74 Z M 147.49 341.14 L 150.56 341.14 L 150.56 344.21 L 147.49 344.21 Z M 178.15 376.4 L 141.36 376.4 L 141.36 370.27 L 156.66 370.27 L 156.66 367.2 L 138.29 367.2 L 138.29 379.47 L 181.22 379.47 L 181.22 367.2 L 178.15 367.2 L 178.15 376.4 Z M 144.42 356.47 L 147.49 356.47 L 147.49 359.54 L 144.42 359.54 Z M 144.42 371.8 L 147.49 371.8 L 147.49 374.87 L 144.42 374.87 Z M 156.69 361.07 L 141.36 361.07 L 141.36 354.94 L 156.69 354.94 L 156.69 351.87 L 138.29 351.87 L 138.29 364.14 L 156.69 364.14 L 156.69 361.07 Z M 173.55 354.94 L 178.15 354.94 L 178.15 361.07 L 173.55 361.07 L 173.55 364.14 L 181.22 364.14 L 181.22 351.87 L 173.55 351.87 L 173.55 354.94 Z M 165.89 351.87 L 165.89 368.42 L 163.08 365.61 L 160.92 367.77 L 167.42 374.27 L 173.92 367.77 L 171.76 365.61 L 168.95 368.4 L 168.95 351.87 L 165.89 351.87 Z" fill="#1366ec" stroke="none" pointer-events="none" /><g><switch><foreignObject style="overflow: visible; text-align: left;" pointer-events="none" width="100%" height="100%" requiredFeatures="http://www.w3.org/TR/SVG11/feature#Extensibility"><div xmlns="http://www.w3.org/1999/xhtml" style="display: flex; align-items: unsafe flex-start; justify-content: unsafe center; width: 1px; height: 1px; padding-top: 397px; margin-left: 160px;"><div style="box-sizing: border-box; font-size: 0; text-align: center; "><div style="display: inline-block; font-size: 14px; font-family: PingFangSC-Regular; color: #252525; line-height: 1.2; pointer-events: none; white-space: nowrap; "><font style="font-size: 16px;">Bucket</font></div></div></div></foreignObject><text x="160" y="411" fill="#252525" font-family="PingFangSC-Regular" font-size="14px" text-anchor="middle">[Not supported by viewer]</text></switch></g><g><switch><foreignObject style="overflow: visible; text-align: left;" pointer-events="none" width="100%" height="100%" requiredFeatures="http://www.w3.org/TR/SVG11/feature#Extensibility"><div xmlns="http://www.w3.org/1999/xhtml" style="display: flex; align-items: unsafe center; justify-content: unsafe center; width: 231px; height: 1px; padding-top: 344px; margin-left: 196px;"><div style="box-sizing: border-box; font-size: 0; text-align: center; "><div style="display: inline-block; font-size: 14px; font-family: PingFangSC-Regular; color: #252525; line-height: 1.2; pointer-events: none; white-space: normal; word-wrap: normal; ">2. 自动构建对象FC接入点</div></div></div></foreignObject><text x="312" y="348" fill="#252525" font-family="PingFangSC-Regular" font-size="14px" text-anchor="middle">[Not supported by viewer]</text></switch></g><g><switch><foreignObject style="overflow: visible; text-align: left;" pointer-events="none" width="100%" height="100%" requiredFeatures="http://www.w3.org/TR/SVG11/feature#Extensibility"><div xmlns="http://www.w3.org/1999/xhtml" style="display: flex; align-items: unsafe center; justify-content: unsafe center; width: 169px; height: 1px; padding-top: 344px; margin-left: 732px;"><div style="box-sizing: border-box; font-size: 0; text-align: center; "><div style="display: inline-block; font-size: 14px; font-family: PingFangSC-Regular; color: #252525; line-height: 1.2; pointer-events: none; white-space: normal; word-wrap: normal; ">3. 发送GetObject请求</div></div></div></foreignObject><text x="817" y="348" fill="#252525" font-family="PingFangSC-Regular" font-size="14px" text-anchor="middle">[Not supported by viewer]</text></switch></g><rect x="1" y="1" width="121" height="121" fill="#ffffff" stroke="none" pointer-events="none" /><rect x="26.18" y="28.05" width="70.66" height="70.66" fill-opacity="0" fill="#ffffff" stroke="none" pointer-events="none" /><path d="M 68.63 41.04 C 58.44 41.04 49.92 48.07 47.61 57.51 C 47.4 57.5 47.19 57.49 46.98 57.49 C 39.58 57.49 33.6 63.49 33.6 70.89 C 33.59 74.44 35 77.85 37.52 80.35 C 40.03 82.86 43.43 84.27 46.98 84.26 C 50.54 84.26 53.95 82.85 56.46 80.33 C 58.56 78.21 59.74 75.41 60.07 72.29 L 55.22 71.91 C 54.12 71.78 53.77 70.93 54.44 70.05 L 62.66 59.88 C 63.33 59 64.23 59.12 64.66 60.14 L 69.32 71.52 C 69.75 72.54 69.2 73.27 68.1 73.13 L 64.49 72.8 C 64.1 76.57 62.39 79.9 60.01 82.53 C 62.73 83.71 65.66 84.32 68.63 84.32 C 80.58 84.32 90.26 74.62 90.26 62.69 C 90.26 50.74 80.58 41.06 68.63 41.06 Z" fill="#1366ec" stroke="none" pointer-events="none" /><g><switch><foreignObject style="overflow: visible; text-align: left;" pointer-events="none" width="100%" height="100%" requiredFeatures="http://www.w3.org/TR/SVG11/feature#Extensibility"><div xmlns="http://www.w3.org/1999/xhtml" style="display: flex; align-items: unsafe flex-start; justify-content: unsafe center; width: 1px; height: 1px; padding-top: 110px; margin-left: 62px;"><div style="box-sizing: border-box; font-size: 0; text-align: center; "><div style="display: inline-block; font-size: 14px; font-family: PingFangSC-Regular; color: #252525; line-height: 1.2; pointer-events: none; background-color: #ffffff; white-space: nowrap; "><font style="font-size: 18px;">OSS</font></div></div></div></foreignObject><text x="62" y="124" fill="#252525" font-family="PingFangSC-Regular" font-size="14px" text-anchor="middle">[Not supported by viewer]</text></switch></g><g><switch><foreignObject style="overflow: visible; text-align: left;" pointer-events="none" width="100%" height="100%" requiredFeatures="http://www.w3.org/TR/SVG11/feature#Extensibility"><div xmlns="http://www.w3.org/1999/xhtml" style="display: flex; align-items: unsafe center; justify-content: unsafe center; width: 208px; height: 1px; padding-top: 508px; margin-left: 504px;"><div style="box-sizing: border-box; font-size: 0; text-align: center; "><div style="display: inline-block; font-size: 14px; font-family: PingFangSC-Regular; color: #252525; line-height: 1.2; pointer-events: none; white-space: normal; word-wrap: normal; ">5. 返回处理和转换后的数据</div></div></div></foreignObject><text x="608" y="512" fill="#252525" font-family="PingFangSC-Regular" font-size="14px" text-anchor="middle">[Not supported by viewer]</text></switch></g><path d="M 196 358 L 437.1 358" fill="none" stroke="#595959" stroke-miterlimit="10" pointer-events="none" /><path d="M 444.1 358 L 437.1 361.5 L 437.1 354.5 Z" fill="#595959" stroke="#595959" stroke-miterlimit="10" pointer-events="none" /><rect x="122" y="151" width="73" height="73" fill-opacity="0" fill="#ffffff" stroke="none" pointer-events="none" /><rect x="122" y="151" width="0" height="0" fill="none" stroke="#000000" stroke-width="2" pointer-events="none" /><path d="M 158.5 185.57 C 153.14 185.57 148.3 182.34 146.25 177.39 C 144.2 172.43 145.33 166.73 149.12 162.93 C 152.92 159.14 158.62 158.01 163.58 160.06 C 168.53 162.11 171.76 166.95 171.76 172.31 C 171.75 179.63 165.82 185.56 158.5 185.57 Z M 158.5 163.17 C 153.42 163.17 149.29 167.29 149.29 172.37 C 149.29 177.46 153.42 181.58 158.5 181.58 C 163.58 181.58 167.71 177.46 167.71 172.37 C 167.69 167.29 163.58 163.18 158.5 163.17 Z M 150.39 207.78 L 138.22 207.78 L 138.22 199.67 C 138.22 196.31 140.95 193.58 144.31 193.58 L 150.39 193.58 L 150.39 189.53 L 144.31 189.53 C 138.71 189.53 134.17 194.07 134.17 199.67 L 134.17 211.83 L 150.39 211.83 Z M 174.88 205.75 C 172.73 205.75 170.67 204.9 169.15 203.38 C 167.62 201.86 166.77 199.79 166.77 197.64 C 166.77 195.49 167.62 193.42 169.15 191.9 C 171.74 189.31 175.76 188.78 178.93 190.61 C 182.11 192.45 183.66 196.19 182.71 199.74 C 181.76 203.28 178.55 205.75 174.88 205.75 Z M 174.88 193.58 C 172.64 193.58 170.83 195.4 170.83 197.64 C 170.83 198.71 171.25 199.74 172 200.5 C 172.77 201.26 173.8 201.69 174.87 201.69 C 175.95 201.69 176.98 201.26 177.74 200.5 C 178.51 199.74 178.93 198.71 178.93 197.63 C 178.93 196.55 178.51 195.52 177.74 194.76 C 176.98 194.01 175.96 193.58 174.88 193.58 Z M 157.59 212.87 L 170.75 199.73 L 173.61 202.59 L 160.47 215.75 Z M 158.66 204.45 L 161.54 201.57 L 165.64 205.67 L 162.78 208.55 Z" fill="#252525" stroke="none" pointer-events="none" /><g><switch><foreignObject style="overflow: visible; text-align: left;" pointer-events="none" width="100%" height="100%" requiredFeatures="http://www.w3.org/TR/SVG11/feature#Extensibility"><div xmlns="http://www.w3.org/1999/xhtml" style="display: flex; align-items: unsafe flex-start; justify-content: unsafe center; width: 1px; height: 1px; padding-top: 235px; margin-left: 159px;"><div style="box-sizing: border-box; font-size: 0; text-align: center; "><div style="display: inline-block; font-size: 14px; font-family: PingFangSC-Regular; color: #252525; line-height: 1.2; pointer-events: none; white-space: nowrap; ">OSS管理员</div></div></div></foreignObject><text x="159" y="249" fill="#252525" font-family="PingFangSC-Regular" font-size="14px" text-anchor="middle">[Not supported by viewer]</text></switch></g><path d="M 159 251 L 159 312.88" fill="none" stroke="#595959" stroke-miterlimit="10" pointer-events="none" /><path d="M 159 319.88 L 155.5 312.88 L 162.5 312.88 Z" fill="#595959" stroke="#595959" stroke-miterlimit="10" pointer-events="none" /><g><switch><foreignObject style="overflow: visible; text-align: left;" pointer-events="none" width="100%" height="100%" requiredFeatures="http://www.w3.org/TR/SVG11/feature#Extensibility"><div xmlns="http://www.w3.org/1999/xhtml" style="display: flex; align-items: unsafe center; justify-content: unsafe center; width: 231px; height: 1px; padding-top: 281px; margin-left: 123px;"><div style="box-sizing: border-box; font-size: 0; text-align: center; "><div style="display: inline-block; font-size: 14px; font-family: PingFangSC-Regular; color: #252525; line-height: 1.2; pointer-events: none; white-space: normal; word-wrap: normal; ">1. 创建对象FC接入点</div></div></div></foreignObject><text x="239" y="285" fill="#252525" font-family="PingFangSC-Regular" font-size="14px" text-anchor="middle">[Not supported by viewer]</text></switch></g><path d="M 501 421 L 501 562.88" fill="none" stroke="#595959" stroke-miterlimit="10" pointer-events="none" /><path d="M 501 569.88 L 497.5 562.88 L 504.5 562.88 Z" fill="#595959" stroke="#595959" stroke-miterlimit="10" pointer-events="none" /><g><switch><foreignObject style="overflow: visible; text-align: left;" pointer-events="none" width="100%" height="100%" requiredFeatures="http://www.w3.org/TR/SVG11/feature#Extensibility"><div xmlns="http://www.w3.org/1999/xhtml" style="display: flex; align-items: unsafe center; justify-content: unsafe center; width: 1px; height: 1px; padding-top: 508px; margin-left: 429px;"><div style="box-sizing: border-box; font-size: 0; text-align: center; "><div style="display: inline-block; font-size: 14px; font-family: PingFangSC-Regular; color: #595959; line-height: 1.2; pointer-events: none; background-color: #ffffff; white-space: nowrap; ">4. 自动触发函数</div></div></div></foreignObject><text x="429" y="512" fill="#595959" font-family="PingFangSC-Regular" font-size="14px" text-anchor="middle">[Not supported by viewer]</text></switch></g><path d="M 538 371.01 L 1133.88 371" fill="none" stroke="#595959" stroke-miterlimit="10" pointer-events="none" /><path d="M 1140.88 371 L 1133.88 374.5 L 1133.88 367.5 Z" fill="#595959" stroke="#595959" stroke-miterlimit="10" pointer-events="none" /><rect x="478" y="328" width="60" height="60" fill-opacity="0" fill="#ffffff" stroke="none" pointer-events="none" /><rect x="478" y="328" width="0" height="0" fill="none" stroke="#000000" stroke-width="2" pointer-events="none" /><path d="M 508 334.67 C 495.13 334.67 484.67 345.13 484.67 358 C 484.67 370.87 495.13 381.33 508 381.33 C 520.87 381.33 531.33 370.87 531.33 358 C 531.33 345.13 520.87 334.67 508 334.67 Z M 528 358 C 528 360.33 527.58 362.58 526.83 364.67 L 519.2 364.67 C 519.5 362.57 519.67 360.33 519.67 358 C 519.67 356.5 519.58 355.02 519.45 353.55 C 520.58 352.63 521.33 351.25 521.33 349.67 C 521.33 347.38 519.78 345.48 517.7 344.88 C 516.98 342.72 516.12 340.85 515.12 339.33 C 522.63 342.22 528 349.48 528 358 Z M 508 378 C 505.7 378 503.35 375.28 501.73 370.87 C 502.95 370.3 503.9 369.27 504.35 368 L 515.15 368 C 513.58 374.17 510.68 378 508 378 Z M 499.67 364.67 C 500.58 364.67 501.33 365.42 501.33 366.33 C 501.33 367.25 500.58 368 499.67 368 C 498.75 368 498 367.25 498 366.33 C 498 365.42 498.75 364.67 499.67 364.67 Z M 504.37 364.67 C 503.68 362.73 501.87 361.41 499.82 361.35 C 499.55 358.01 499.68 354.65 500.18 351.33 L 511.65 351.33 C 512.33 353.27 514.14 354.59 516.2 354.65 C 516.46 357.99 516.34 361.35 515.83 364.67 L 504.37 364.67 Z M 508 338 C 510.3 338 512.65 340.72 514.27 345.13 C 513.05 345.7 512.1 346.73 511.65 348 L 500.85 348 C 502.42 341.83 505.32 338 508 338 Z M 516.33 351.33 C 515.42 351.33 514.67 350.58 514.67 349.67 C 514.67 348.75 515.42 348 516.33 348 C 517.25 348 518 348.75 518 349.67 C 518 350.58 517.25 351.33 516.33 351.33 Z M 500.97 339.3 C 499.45 341.55 498.25 344.53 497.43 348 L 490.7 348 C 493 344.03 496.62 340.95 500.95 339.3 Z M 488 358 C 488 355.67 488.43 353.42 489.17 351.33 L 496.8 351.33 C 496.28 355.02 496.2 358.75 496.55 362.45 C 495.42 363.37 494.67 364.75 494.67 366.33 C 494.67 368.62 496.22 370.52 498.3 371.12 C 499.02 373.28 499.88 375.15 500.88 376.67 C 493.37 373.78 488 366.52 488 358 Z M 515.03 376.7 C 516.55 374.45 517.75 371.47 518.57 368 L 525.3 368 C 522.98 371.99 519.36 375.06 515.05 376.7 Z" fill="#252525" stroke="none" pointer-events="none" /><g><switch><foreignObject style="overflow: visible; text-align: left;" pointer-events="none" width="100%" height="100%" requiredFeatures="http://www.w3.org/TR/SVG11/feature#Extensibility"><div xmlns="http://www.w3.org/1999/xhtml" style="display: flex; align-items: unsafe flex-start; justify-content: unsafe center; width: 1px; height: 1px; padding-top: 399px; margin-left: 508px;"><div style="box-sizing: border-box; font-size: 0; text-align: center; "><div style="display: inline-block; font-size: 14px; font-family: PingFangSC-Regular; color: #252525; line-height: 1.2; pointer-events: none; white-space: nowrap; ">对象FC接入点</div></div></div></foreignObject><text x="508" y="413" fill="#252525" font-family="PingFangSC-Regular" font-size="14px" text-anchor="middle">[Not supported by viewer]</text></switch></g><g><switch><foreignObject style="overflow: visible; text-align: left;" pointer-events="none" width="100%" height="100%" requiredFeatures="http://www.w3.org/TR/SVG11/feature#Extensibility"><div xmlns="http://www.w3.org/1999/xhtml" style="display: flex; align-items: unsafe center; justify-content: unsafe center; width: 288px; height: 1px; padding-top: 384px; margin-left: 690px;"><div style="box-sizing: border-box; font-size: 0; text-align: center; "><div style="display: inline-block; font-size: 14px; font-family: PingFangSC-Regular; color: #252525; line-height: 1.2; pointer-events: none; white-space: normal; word-wrap: normal; ">6. 对象接入点返回从函数计算收到的数据</div></div></div></foreignObject><text x="834" y="388" fill="#252525" font-family="PingFangSC-Regular" font-size="14px" text-anchor="middle">[Not supported by viewer]</text></switch></g></g></svg>